<?xml version="1.0" standalone="no"?>
<!DOCTYPE svg PUBLIC "-//W3C//DTD SVG 1.1//EN" "http://www.w3.org/Graphics/SVG/1.1/DTD/svg11.dtd" >
<svg>
<metadata>
Created by FontForge 20090622 at Sat Nov 11 17:39:28 2017
 By deploy user
Copyright (c) 2007 by Jos Buivenga. All rights reserved.
</metadata>
<defs>
<font id="DiavloBold-Regular" horiz-adv-x="722" >
  <font-face 
    font-family="Diavlo Bold"
    font-weight="700"
    font-stretch="normal"
    units-per-em="1000"
    panose-1="2 0 0 0 0 0 0 0 0 0"
    ascent="750"
    descent="-250"
    x-height="515"
    cap-height="725"
    bbox="-103 -247 1093 995"
    underline-thickness="50"
    underline-position="-50"
    unicode-range="U+0020-U+FB06"
  />
<missing-glyph horiz-adv-x="250" 
 />
    <glyph glyph-name="ff" unicode="ff" horiz-adv-x="728" 
d="M424 58v334h-234v-399q-5 0 -14 0.5t-31.5 4t-39.5 9.5t-31 19.5t-14 31.5v521q0 79 67.5 127.5t161.5 48.5q115 0 161 -54q30 44 88.5 69t124.5 25q132 0 180 -56t-28 -132q3 46 -43 67t-104 21q-49 0 -81.5 -27t-32.5 -71v-106h179q0 -4 -0.5 -10.5t-4.5 -24
t-11.5 -30.5t-22.5 -23.5t-36 -10.5h-104v-399q-5 0 -14 0.5t-31.5 4t-39.5 9.5t-31 19.5t-14 31.5zM190 557v-66h234v76q0 47 -38 67.5t-92 20.5q-48 0 -76 -26.5t-28 -71.5z" />
    <glyph glyph-name="fi" unicode="fi" horiz-adv-x="614" 
d="M309 317h-119v-324q-5 0 -14 0.5t-31.5 4t-39.5 9.5t-31 19.5t-14 31.5v561q0 79 73.5 127.5t175.5 48.5q87 0 146 -24t69.5 -66.5t-49.5 -102.5q-1 46 -55 69.5t-111 23.5q-48 0 -83.5 -24t-35.5 -67v-188h119q48 0 81.5 27.5t33.5 61.5v17q10 0 24 -1.5t42 -6.5t46 -20
t18 -37v-464q-5 0 -14 0.5t-31.5 4t-39.5 9.5t-31 19.5t-14 31.5v297q-4 -4 -11.5 -10.5t-37 -17t-66.5 -10.5z" />
    <glyph glyph-name="fl" unicode="fl" horiz-adv-x="614" 
d="M60 58v561q0 79 72 127.5t167 48.5q27 0 67 -6t82 -16.5t71.5 -30.5t29.5 -43v-517q0 -29 1.5 -47.5t7.5 -45.5t21.5 -41.5t40.5 -14.5q-30 -40 -83 -40q-58 0 -88 44.5t-30 112.5v517q-41 28 -115 28q-49 0 -81.5 -27t-32.5 -71v-106h169q0 -4 -0.5 -10.5t-4.5 -24
t-11.5 -30.5t-22.5 -23.5t-36 -10.5h-94v-399q-5 0 -14 0.5t-31.5 4t-39.5 9.5t-31 19.5t-14 31.5z" />
    <glyph glyph-name="ffi" unicode="ffi" horiz-adv-x="978" 
d="M673 317h-119v-324q-5 0 -14 0.5t-31.5 4t-39.5 9.5t-31 19.5t-14 31.5v259h-234v-324q-5 0 -14 0.5t-31.5 4t-39.5 9.5t-31 19.5t-14 31.5v521q0 79 67.5 127.5t161.5 48.5q115 0 161 -54q31 44 91.5 69t131.5 25q87 0 146 -24t69.5 -66.5t-49.5 -102.5q-1 46 -55 69.5
t-111 23.5q-48 0 -83.5 -24t-35.5 -67v-188h119q48 0 81.5 27.5t33.5 61.5v17q10 0 24 -1.5t42 -6.5t46 -20t18 -37v-464q-5 0 -14 0.5t-31.5 4t-39.5 9.5t-31 19.5t-14 31.5v296q-37 -37 -115 -37zM190 557v-141h234v156q-3 45 -40.5 64t-89.5 19q-48 0 -76 -26.5
t-28 -71.5z" />
    <glyph glyph-name="ffl" unicode="ffl" horiz-adv-x="978" 
d="M60 58v521q0 79 67.5 127.5t161.5 48.5q115 0 161 -54q30 45 89 69.5t126 24.5q83 0 165.5 -28t82.5 -68v-517q0 -29 1.5 -47.5t7.5 -45.5t21.5 -41.5t40.5 -14.5q-30 -40 -83 -40q-58 0 -88 44.5t-30 112.5v517q-41 28 -115 28q-49 0 -81.5 -27t-32.5 -71v-106h169
q0 -4 -0.5 -10.5t-4.5 -24t-11.5 -30.5t-22.5 -23.5t-36 -10.5h-94v-399q-5 0 -14 0.5t-31.5 4t-39.5 9.5t-31 19.5t-14 31.5v334h-234v-399q-5 0 -14 0.5t-31.5 4t-39.5 9.5t-31 19.5t-14 31.5zM190 557v-66h234v81q-3 45 -40.5 64t-89.5 19q-48 0 -76 -26.5t-28 -71.5z
" />
    <glyph glyph-name="fj" unicode="fj" horiz-adv-x="614" 
d="M554 457v-539q0 -66 -32 -111.5t-86 -45.5q-53 0 -105 45q47 0 70 46.5t23 97.5v405q-4 -4 -11.5 -10.5t-37 -17t-66.5 -10.5h-119v-324q-5 0 -14 0.5t-31.5 4t-39.5 9.5t-31 19.5t-14 31.5v561q0 79 73.5 127.5t175.5 48.5q94 0 155 -28t61 -75q0 -41 -50 -90
q-1 46 -55 69.5t-111 23.5q-48 0 -83.5 -24t-35.5 -67v-188h119q48 0 81.5 27.5t33.5 61.5v17q10 0 24 -1.5t42 -6.5t46 -20t18 -37z" />
    <glyph glyph-name=".notdef" horiz-adv-x="250" 
 />
    <glyph glyph-name=".null" horiz-adv-x="0" 
 />
    <glyph glyph-name="nonmarkingreturn" horiz-adv-x="333" 
 />
    <glyph glyph-name="space" unicode=" " horiz-adv-x="280" 
 />
    <glyph glyph-name="exclam" unicode="!" horiz-adv-x="290" 
d="M230 660v-474h-14t-31.5 3.5t-39.5 9.5t-31 19.5t-14 32.5v474q5 0 14 -0.5t31.5 -4t39.5 -9.5t31 -19.5t14 -31.5zM105 31v94h82q15 0 27 -9.5t12 -21.5v-94h-81q-16 0 -28 9t-12 22z" />
    <glyph glyph-name="quotedbl" unicode="&#x22;" horiz-adv-x="440" 
d="M268 599v116h53q61 0 61 -65v-32q0 -132 -86 -132q-18 0 -33 7.5t-21 14.5l-6 8q4 1 9 4t14 24t9 55zM73 599v116h53q61 0 61 -65v-32q0 -132 -86 -132q-18 0 -33 7.5t-21 14.5l-6 8q4 1 9 4t14 24t9 55z" />
    <glyph glyph-name="numbersign" unicode="#" horiz-adv-x="695" 
d="M347 72l25 106h-131l-45 -190q-34 0 -74.5 26t-33.5 59l25 105h-92q-3 12 -3 29q0 73 60 73h59l14 60.5l17 73.5h-90q-3 12 -3 29q0 73 60 73h57l53 215q32 0 73.5 -27.5t34.5 -58.5l-31 -129h129l53 215q34 0 75 -27.5t33 -59.5l-31 -128h93q3 -14 3 -31q0 -71 -59 -71
h-62l-14 -60.5l-17 -73.5h92q3 -14 3 -31q0 -71 -59 -71h-61l-45 -190q-33 0 -74 26t-34 58zM297 414l-31 -134h130l14 60.5l17 73.5h-130z" />
    <glyph glyph-name="dollar" unicode="$" horiz-adv-x="644" 
d="M282 -49v39q-99 3 -163.5 33t-64.5 91q0 41 36 93q0 -107 192 -115v221q-46 7 -72.5 13t-64 20.5t-57.5 34t-35 54t-15 80.5q0 199 244 211v78q1 -1 7 0t15.5 -1.5t18.5 -7t15.5 -17t6.5 -29.5v-23q104 -3 158.5 -31t54.5 -92q0 -41 -33 -101q0 115 -180 120v-189
q43 -6 71.5 -13t63 -22.5t54.5 -37.5t34 -60.5t14 -89.5q0 -101 -61.5 -156.5t-175.5 -63.5v-92h-7t-15 3t-19 7.5t-15 16t-7 26.5zM443 201q0 46 -23 67.5t-75 32.5v-207q56 6 77 32t21 75zM176 530q0 -39 26 -58t80 -29v179q-106 -9 -106 -92z" />
    <glyph glyph-name="percent" unicode="%" horiz-adv-x="810" 
d="M358 618v-114q0 -50 -43.5 -76.5t-118.5 -26.5t-118.5 26.5t-43.5 76.5v114q0 49 44 77.5t118 28.5t118 -28.5t44 -77.5zM249 530v65q0 23 -11 34.5t-42 11.5t-42 -11.5t-11 -34.5v-65q0 -24 10.5 -35t42.5 -11q31 0 42 11t11 35zM776 207v-114q0 -50 -43.5 -76.5
t-118.5 -26.5t-118.5 26.5t-43.5 76.5v114q0 49 44 77.5t118 28.5t118 -28.5t44 -77.5zM667 119v65q0 23 -11 34.5t-42 11.5t-42 -11.5t-11 -34.5v-65q0 -24 10.5 -35t42.5 -11q31 0 42 11t11 35zM155 183l463 463q52 -52 52 -82q0 -20 -18 -38l-463 -463q-51 49 -51 82
q0 21 17 38z" />
    <glyph glyph-name="ampersand" unicode="&#x26;" horiz-adv-x="613" 
d="M294 308h-4q-101 -12 -101 -106q0 -49 34 -79.5t103 -30.5q88 0 147.5 29.5t59.5 98.5q81 -92 19 -162t-226 -70q-122 0 -196.5 54.5t-74.5 144.5v30q0 51 27 95.5t74 57.5q-42 12 -66.5 52t-24.5 89v25q0 88 72.5 139.5t188.5 51.5q158 0 220 -72.5t-23 -164.5
q0 39 -17.5 66t-47.5 41t-62.5 20t-69.5 6q-63 0 -95 -27.5t-32 -74.5q0 -57 21.5 -82t73.5 -29v121q5 0 13 -0.5t28 -4.5t35.5 -10t28 -19.5t12.5 -31.5v-56h104q0 -4 -0.5 -11t-4.5 -24.5t-11.5 -30.5t-22.5 -24t-36 -11h-29v-54q0 -20 4.5 -41t8.5 -32l5 -11
q-40 5 -68.5 16.5t-41 21.5t-19 28.5t-6.5 23v18.5v30z" />
    <glyph glyph-name="quotesingle" unicode="'" horiz-adv-x="245" 
d="M73 599v116h53q61 0 61 -65v-32q0 -132 -86 -132q-18 0 -33 7.5t-21 14.5l-6 8q4 1 9 4t14 24t9 55z" />
    <glyph glyph-name="parenleft" unicode="(" horiz-adv-x="336" 
d="M172 266q0 -187 39.5 -315.5t114.5 -139.5q-3 -5 -8.5 -12t-27 -19t-46.5 -12q-52 0 -99 67.5t-76 182.5t-29 246t29 245.5t76 181.5t99 67q25 0 45.5 -11t28.5 -21l8 -11q-75 -11 -114.5 -138t-39.5 -311z" />
    <glyph glyph-name="parenright" unicode=")" horiz-adv-x="336" 
d="M164 266q0 184 -39.5 311t-114.5 138q3 5 8.5 12t27 19t46.5 12q52 0 99 -67t76 -181.5t29 -245.5t-29 -246t-76 -182.5t-99 -67.5q-25 0 -45.5 11t-28.5 21l-8 11q75 11 114.5 139.5t39.5 315.5z" />
    <glyph glyph-name="asterisk" unicode="*" horiz-adv-x="419" 
d="M100 546q13 21 40 42q-15 3 -27 3q-42 0 -72 -37q-8 23 -8 51q0 25 18.5 43t58.5 18q19 0 56 -13q-17 58 -78 69q29 40 70 40q25 0 47.5 -24t29.5 -75q28 31 28 64q0 18 -7 38q3 0 8.5 -1t18.5 -5.5t23 -11t18.5 -19.5t8.5 -30q0 -45 -54 -90q13 -4 28 -4q41 0 71 37
q8 -22 8 -50q0 -25 -18.5 -43t-58.5 -18q-20 0 -57 13q19 -61 79 -69q-30 -40 -70 -40q-25 0 -46.5 23t-31.5 76q-28 -31 -28 -64q0 -16 8 -38q-9 1 -22 3.5t-34.5 19.5t-21.5 44q0 20 15 48z" />
    <glyph glyph-name="plus" unicode="+" horiz-adv-x="521" 
d="M197 108v97h-134q-1 4 -2 11t-0.5 24.5t5.5 31t18.5 24.5t35.5 11h77v128l13 2.5t29 2t37.5 -2.5t29.5 -15.5t13 -32.5v-82h138q1 -4 2 -11t0.5 -24.5t-4.5 -31t-18 -24.5t-36 -11h-82v-143l-13 -2.5t-29 -1.5t-37.5 3t-29.5 15t-13 32z" />
    <glyph glyph-name="comma" unicode="," horiz-adv-x="245" 
d="M55 125h33h52q43 0 43 -38v-75q0 -71 -20.5 -108t-73.5 -37q-37 0 -63 21q36 9 46 44.5t5 66.5z" />
    <glyph glyph-name="hyphen" unicode="-" horiz-adv-x="491" 
d="M113 304h314q1 -4 2 -10.5t1 -23t-4 -29t-16 -23t-32 -10.5h-315q-1 4 -2 10.5t-0.5 23t4.5 29t16 23t32 10.5z" />
    <glyph glyph-name="period" unicode="." horiz-adv-x="245" 
d="M62 31v94h82q15 0 27 -9.5t12 -21.5v-94h-81q-16 0 -28 9t-12 22z" />
    <glyph glyph-name="slash" unicode="/" horiz-adv-x="333" 
d="M9 -160l214 926l12.5 -2.5t27 -8.5t33.5 -15.5t23.5 -23t5.5 -31.5l-214 -925l-12.5 2.5t-27 8.5t-33.5 15t-23.5 22.5t-5.5 31.5z" />
    <glyph glyph-name="zero" unicode="0" horiz-adv-x="662" 
d="M602 531v-347q0 -96 -73 -146t-198 -50t-198 50t-73 146v347q0 96 73 146t198 50t198 -50t73 -146zM468 199v317q0 59 -32.5 85.5t-104.5 26.5t-104.5 -26.5t-32.5 -85.5v-317q0 -59 32.5 -85.5t104.5 -26.5t104.5 26.5t32.5 85.5z" />
    <glyph glyph-name="one" unicode="1" horiz-adv-x="554" 
d="M181 715q42 0 92.5 3.5t80.5 7.5l30 3q-13 -72 -13 -113v-512h170q3 -14 3 -31q0 -73 -59 -73h-419q-3 13 -3 29q0 75 61 75h116v508q-14 -2 -32.5 0t-38.5 -1.5t-36.5 -9.5t-27 -24.5t-10.5 -47.5q0 -13 1 -20q-61 56 -61 113q0 41 37 67t109 26z" />
    <glyph glyph-name="two" unicode="2" horiz-adv-x="616" 
d="M45 0v103q0 50 21 89.5t55 64.5t74.5 46t81.5 39t75 38t55 49.5t21 66.5v17q0 49 -32.5 79.5t-94.5 30.5q-37 0 -69.5 -6t-62.5 -20t-47.5 -41t-17.5 -66q-85 92 -23 164.5t220 72.5q115 0 188 -53.5t73 -142.5v-40q0 -52 -21.5 -92.5t-55.5 -66t-75 -46.5t-82 -38
t-75 -34.5t-55.5 -42.5t-21.5 -57v-10h304q29 0 53 5t33 11l10 5q0 -5 -0.5 -13.5t-5 -30t-12.5 -38t-25.5 -30t-41.5 -13.5h-446z" />
    <glyph glyph-name="three" unicode="3" horiz-adv-x="627" 
d="M306 623q-37 0 -69.5 -6t-62.5 -20t-47.5 -41t-17.5 -66q-85 92 -23 164.5t220 72.5q116 0 188.5 -51.5t72.5 -139.5v-25q0 -49 -24.5 -89t-66.5 -52q47 -13 74 -57.5t27 -95.5v-30q0 -90 -74.5 -144.5t-196.5 -54.5q-168 0 -230 67.5t23 174.5q0 -39 18 -67t48.5 -43
t65 -21.5t75.5 -6.5q69 0 103 30.5t34 79.5q0 104 -101 116q-12 2 -19.5 4.5t-19.5 12t-17.5 31t-3.5 53.5h32q65 0 92 23.5t27 78.5q0 47 -32 74.5t-95 27.5z" />
    <glyph glyph-name="four" unicode="4" horiz-adv-x="582" 
d="M5 189q4 66 54 158.5t115.5 173.5t114.5 134.5t69 71.5q5 0 13 -0.5t29 -4.5t37.5 -10t29.5 -19.5t13 -30.5v-376h87q0 -7 -2 -18.5t-8 -31.5t-23 -33.5t-42 -13.5h-12v-199q-11 0 -26 1.5t-43 6.5t-46.5 20t-18.5 37v134h-341zM346 286v224l5 55q-23 -36 -33 -47
q-116 -134 -158 -232h186z" />
    <glyph glyph-name="five" unicode="5" horiz-adv-x="597" 
d="M286 -12q-168 0 -230 67.5t23 174.5q0 -39 18 -67t48.5 -43t65 -21.5t75.5 -6.5q73 0 105 24.5t32 83.5v58q0 115 -137 115h-127l-93 -3q8 39 8 86v165q0 4 0.5 10t4.5 22.5t11 29t22.5 22.5t36.5 10h275q32 0 56 3.5t32 7.5l8 3q0 -5 -0.5 -13t-5 -28t-12.5 -35.5
t-25.5 -28.5t-41.5 -13h-227v-95l-4 -44h80q129 0 201 -49t72 -152v-84q0 -96 -73 -147.5t-198 -51.5z" />
    <glyph glyph-name="six" unicode="6" horiz-adv-x="657" 
d="M602 258v-74q0 -96 -73 -146t-198 -50t-198 50t-73 146v347q0 96 73 146t198 50q170 0 231.5 -67.5t-24.5 -171.5q2 51 -28 82.5t-74 42t-105 10.5q-73 0 -105 -24.5t-32 -82.5v-53l-5 -51q5 5 15 12t49.5 18.5t87.5 11.5q118 0 189.5 -50.5t71.5 -145.5zM331 87
q72 0 104.5 26.5t32.5 85.5v44q0 59 -31 85.5t-96 26.5q-143 0 -147 -106v-50q0 -59 32.5 -85.5t104.5 -26.5z" />
    <glyph glyph-name="seven" unicode="7" horiz-adv-x="572" 
d="M421 611h-325q-32 0 -56 -3.5t-32 -7.5l-8 -3q0 5 0.5 13t5 28t12.5 35.5t25.5 28.5t41.5 13h481q2 -68 -15.5 -131t-47.5 -111.5t-66 -94.5l-73 -89t-68 -85.5t-52 -93t-23 -103.5q-32 -17 -56 -17q-75 0 -75 52q0 59 28.5 118.5t72 111.5l89 103t85.5 113.5t56 122.5z
" />
    <glyph glyph-name="eight" unicode="8" horiz-adv-x="662" 
d="M60 184v28q0 52 26 93.5t72 57.5q-38 16 -63 57.5t-25 88.5v22q0 95 71.5 145.5t189.5 50.5t189.5 -50.5t71.5 -145.5v-22q0 -47 -25 -88.5t-63 -57.5q46 -16 72 -57.5t26 -93.5v-25q0 -96 -73 -147.5t-198 -51.5t-198 50t-73 146zM468 199q0 60 -32.5 87t-104.5 27
t-104.5 -27.5t-32.5 -89.5q0 -59 32 -84t105 -25q72 0 104.5 26t32.5 86zM204 520q0 -58 27 -83t92 -25h16q65 0 92 25t27 83t-30.5 83t-96.5 25t-96.5 -25t-30.5 -83z" />
    <glyph glyph-name="nine" unicode="9" horiz-adv-x="657" 
d="M55 457v74q0 96 73 146t198 50t198 -50t73 -146v-347q0 -96 -73 -146t-198 -50q-170 0 -231.5 68t24.5 171q-2 -51 28 -82.5t74 -42t105 -10.5q73 0 105 24.5t32 82.5v53l5 51q-5 -5 -15 -12t-49.5 -18.5t-87.5 -11.5q-118 0 -189.5 50.5t-71.5 145.5zM326 628
q-72 0 -104.5 -26.5t-32.5 -85.5v-44q0 -59 31 -85.5t96 -26.5q143 0 147 106v50q0 59 -32.5 85.5t-104.5 26.5z" />
    <glyph glyph-name="colon" unicode=":" horiz-adv-x="245" 
d="M77 31v94h82q15 0 27 -9.5t12 -21.5v-94h-81q-16 0 -28 9t-12 22zM77 372v94h82q15 0 27 -9.5t12 -21.5v-94h-81q-16 0 -28 9t-12 22z" />
    <glyph glyph-name="semicolon" unicode=";" horiz-adv-x="245" 
d="M77 372v94h82q15 0 27 -9.5t12 -21.5v-94h-81q-16 0 -28 9t-12 22zM70 125h33h52q43 0 43 -38v-75q0 -71 -20.5 -108t-73.5 -37q-37 0 -63 21q36 9 46 44.5t5 66.5z" />
    <glyph glyph-name="less" unicode="&#x3c;" horiz-adv-x="427" 
d="M174 255l183 -183q-16 -32 -50 -46.5t-64 9.5l-164 164q-56 56 1 113l201 201q93 -57 46 -104z" />
    <glyph glyph-name="equal" unicode="=" horiz-adv-x="503" 
d="M120 394h320q16 -96 -55 -96h-320q-11 35 3.5 65.5t51.5 30.5zM120 220h320q16 -96 -55 -96h-320q-11 35 3.5 65.5t51.5 30.5z" />
    <glyph glyph-name="greater" unicode="&#x3e;" horiz-adv-x="427" 
d="M70 72l183 183l-153 154q-47 47 46 104l201 -201q57 -57 1 -113l-164 -164q-30 -24 -64 -9.5t-50 46.5z" />
    <glyph glyph-name="question" unicode="?" horiz-adv-x="555" 
d="M264 623q-65 0 -108 -27t-43 -83q-41 38 -50.5 76.5t10 69t69.5 49.5t122 19q117 0 189 -48.5t72 -137.5v-25q0 -39 -17 -71.5t-42.5 -53t-55.5 -41t-55.5 -36t-42.5 -38t-17 -48.5v-48q-5 0 -13.5 0.5t-30.5 4t-38.5 10t-30 20.5t-13.5 33v16q0 34 23 62.5t55.5 49.5
l65 41t55.5 47t23 59q0 47 -32 73.5t-95 26.5zM171 31v94h82q15 0 27 -9.5t12 -21.5v-94h-81q-16 0 -28 9t-12 22z" />
    <glyph glyph-name="at" unicode="@" horiz-adv-x="923" 
d="M242 150q0 49 23.5 80t60.5 45t76 23t77.5 23t56.5 36q0 36 -15.5 53t-65.5 17q-129 0 -143 -103q-45 49 -45 93q0 50 55 80t133 30q105 0 158 -46t53 -130v-120q0 -13 -3.5 -25.5t-16 -33.5t-45 -36.5t-81.5 -21.5q19 30 19 93v50q-9 -18 -38.5 -27.5t-58.5 -13.5
t-52 -19.5t-23 -44.5q0 -34 39.5 -53.5t102.5 -19.5q106 0 165 37t59 133v153q0 79 -48.5 130t-149.5 51h-149q-100 0 -148 -51t-48 -130v-292q0 -75 31.5 -125.5t85.5 -50.5q20 0 39.5 4t29.5 8l9 4q0 -4 -1.5 -10.5t-9.5 -23t-21 -29.5t-39.5 -23.5t-60.5 -10.5
q-84 0 -138.5 72t-54.5 172v318q0 114 88.5 188.5t238.5 74.5h149q149 0 238 -75t89 -188v-179q0 -248 -357 -248q-75 0 -131 13.5t-94.5 51.5t-38.5 97z" />
    <glyph glyph-name="A" unicode="A" horiz-adv-x="682" 
d="M341 738q10 -7 28 -24.5t48 -53.5t62.5 -96.5t55.5 -131.5l85 -263q44 -138 62 -165q-33 -11 -56 -11q-32 0 -55.5 11.5t-39.5 36.5t-24 44t-20 55l-3 9l-17 53h-252l-17 -53q-28 -84 -49 -112q-34 -44 -93 -44q-10 0 -24 3t-23 6l-9 2q18 27 62 165l85 263
q23 71 55.5 131.5t62.5 96.5t48 53.5t28 24.5zM341 575q-29 -46 -66 -169l-31 -104h194l-31 104q-11 37 -27.5 79.5t-27.5 66.5z" />
    <glyph glyph-name="B" unicode="B" horiz-adv-x="622" 
d="M70 65v650h231q261 0 261 -182v-25q0 -47 -22 -88.5t-56 -57.5q39 -17 63.5 -59.5t24.5 -91.5v-25q0 -95 -72 -140.5t-199 -45.5h-123q-4 0 -11.5 0.5t-26 4t-33 9.5t-26 19.5t-11.5 31.5zM309 312h-105v-213h97q73 0 105 23.5t32 78.5q0 111 -129 111zM301 616h-97v-205
h105q64 0 91.5 27.5t27.5 84.5q0 53 -29.5 73t-97.5 20z" />
    <glyph glyph-name="C" unicode="C" horiz-adv-x="690" 
d="M366 623q-172 0 -172 -156v-218q0 -158 172 -158q208 0 245 120q31 -60 24 -102.5t-49.5 -69.5t-98 -39t-121.5 -12q-133 0 -219.5 59.5t-86.5 186.5v247q0 127 86.5 186.5t219.5 59.5q52 0 99 -7t87.5 -23.5t64 -41.5t23.5 -64t-29 -87q-17 63 -88 91t-157 28z" />
    <glyph glyph-name="D" unicode="D" horiz-adv-x="731" 
d="M360 0h-183q-9 0 -22 1.5t-34.5 7t-36 20.5t-14.5 36v650h290q64 0 116.5 -12t98 -38.5t71 -76t25.5 -119.5v-223q0 -70 -25.5 -119.5t-71 -76t-98 -38.5t-116.5 -12zM360 616h-156v-517h156q177 0 177 157v204q0 156 -177 156z" />
    <glyph glyph-name="E" unicode="E" horiz-adv-x="596" 
d="M426 332h-222v-233h357q0 -8 -2 -19t-8 -32t-23 -34.5t-42 -13.5h-307q-4 0 -11.5 0.5t-26.5 4t-33 9.5t-26 19.5t-12 31.5v650h491q0 -4 -0.5 -10.5t-4.5 -24t-11 -30.5t-22.5 -23.5t-36.5 -10.5h-282v-185h206q38 0 66 4t36 8l9 4q0 -115 -95 -115z" />
    <glyph glyph-name="F" unicode="F" horiz-adv-x="523" 
d="M204 431h166q29 0 57 2.5t41 5.5l13 3q0 -49 -19.5 -79.5t-75.5 -30.5h-182v-342q-5 0 -14.5 0.5t-32.5 4t-40.5 9.5t-32 19.5t-14.5 31.5v660h461q0 -4 -0.5 -10.5t-4.5 -24t-11 -30.5t-22.5 -23.5t-36.5 -10.5h-252v-185z" />
    <glyph glyph-name="G" unicode="G" 
d="M60 234v247q0 87 43 144t108 79.5t150 22.5q72 0 132.5 -12.5t103.5 -44.5t43 -79q0 -40 -31 -88q-12 44 -53.5 72t-90 38t-104.5 10q-167 0 -167 -156v-218q0 -157 167 -157q84 0 125.5 29.5t41.5 117.5v32h-115q-83 0 -83 112q27 -13 100 -13h232v-146
q0 -64 -24 -111.5t-67 -74t-95 -38.5t-115 -12q-85 0 -150 22.5t-108 79.5t-43 144z" />
    <glyph glyph-name="H" unicode="H" horiz-adv-x="735" 
d="M531 55v257h-327v-322q-5 0 -14.5 0.5t-32.5 4t-40.5 9.5t-32 19.5t-14.5 31.5v670q5 0 14.5 -0.5t32.5 -4t40.5 -9.5t32 -19.5t14.5 -31.5v-248h327v313q5 0 14.5 -0.5t32.5 -4t40.5 -9.5t32 -19.5t14.5 -31.5v-670q-5 0 -14.5 0.5t-32.5 4t-40.5 9.5t-32 19.5
t-14.5 31.5z" />
    <glyph glyph-name="I" unicode="I" horiz-adv-x="274" 
d="M70 55v670q5 0 14.5 -0.5t32.5 -4t40.5 -9.5t32 -19.5t14.5 -31.5v-670q-5 0 -14.5 0.5t-32.5 4t-40.5 9.5t-32 19.5t-14.5 31.5z" />
    <glyph glyph-name="J" unicode="J" horiz-adv-x="295" 
d="M225 658v-691q0 -70 -33.5 -118t-89.5 -48q-58 0 -109 47q34 0 57.5 27.5t32 60t8.5 65.5v724q11 0 24.5 -1.5t43 -6.5t48 -20.5t18.5 -38.5z" />
    <glyph glyph-name="K" unicode="K" horiz-adv-x="644" 
d="M204 334v-344q-5 0 -14.5 0.5t-32.5 4t-40.5 9.5t-32 19.5t-14.5 31.5v670q5 0 14.5 -0.5t32.5 -4t40.5 -9.5t32 -19.5t14.5 -31.5v-233q72 15 126.5 72t113.5 163q36 65 115 65q11 0 26.5 -2.5t24.5 -4.5l10 -2q-17 -27 -55.5 -94.5t-62 -104.5t-65.5 -78.5t-88 -59.5
q125 -35 244 -278q38 -73 57 -101q-40 -10 -61 -10q-88 0 -124 65l-26 48.5t-29 52l-29 46t-35.5 46.5l-38.5 35.5t-48.5 31.5t-54.5 17z" />
    <glyph glyph-name="L" unicode="L" horiz-adv-x="544" 
d="M463 0h-284q-4 0 -11.5 0.5t-26.5 4t-33 9.5t-26 19.5t-12 31.5v660q5 0 14.5 -0.5t32.5 -4t40.5 -9.5t32 -19.5t14.5 -31.5v-561h223q38 0 65.5 4t36.5 8l9 4q0 -115 -75 -115z" />
    <glyph glyph-name="M" unicode="M" horiz-adv-x="833" 
d="M629 55v338q0 20 2.5 46t4.5 41l3 16l-182 -371q-3 0 -9 0.5t-22 4t-30.5 9.5t-31.5 19t-28 31l-141 301q9 -51 9 -97v-403q-5 0 -14.5 0.5t-32.5 4t-40.5 9.5t-32 19.5t-14.5 31.5v660h86q69 0 96 -59l163 -349l196 408q152 0 152 -65v-660q-5 0 -14.5 0.5t-32.5 4
t-40.5 9.5t-32 19.5t-14.5 31.5z" />
    <glyph glyph-name="N" unicode="N" horiz-adv-x="736" 
d="M251 658l293 -459q-12 57 -12 106v410q5 0 14.5 -0.5t32.5 -4t40.5 -9.5t32 -19.5t14.5 -31.5v-660q-42 0 -76.5 7.5t-53 18t-31.5 21t-17 17.5l-4 8l-291 462q11 -57 11 -106v-428q-5 0 -14.5 0.5t-32.5 4t-40.5 9.5t-32 19.5t-14.5 31.5v660q52 0 77.5 -2t56.5 -15
t47 -40z" />
    <glyph glyph-name="O" unicode="O" 
d="M662 490v-265q0 -114 -75 -175.5t-226 -61.5t-226 61.5t-75 175.5v265q0 114 75 175.5t226 61.5t226 -61.5t75 -175.5zM528 238v239q0 78 -34.5 114.5t-133.5 36.5q-98 0 -132 -36.5t-34 -114.5v-239q0 -78 34 -114.5t132 -36.5q99 0 133.5 36.5t34.5 114.5z" />
    <glyph glyph-name="P" unicode="P" horiz-adv-x="611" 
d="M70 55v660h201q51 0 93 -5.5t82 -21.5t66.5 -41.5t43 -67t16.5 -97.5v-18q0 -235 -301 -235h-67v-239q-5 0 -14.5 0.5t-32.5 4t-40.5 9.5t-32 19.5t-14.5 31.5zM271 616h-67v-288h67q84 0 125.5 28.5t41.5 116.5q0 82 -42.5 112.5t-124.5 30.5z" />
    <glyph glyph-name="Q" unicode="Q" 
d="M662 490v-265q0 -100 -63 -161t-184 -73v-15q0 -48 42.5 -74.5t99.5 -26.5q33 0 56.5 2.5t52 10.5t47.5 27t27 48q17 -35 17 -67q0 -59 -56 -92t-145 -33q-103 0 -179 50.5t-76 139.5v31q-120 12 -180.5 72t-60.5 161v265q0 114 75 175.5t226 61.5t226 -61.5t75 -175.5z
M528 238v239q0 78 -34.5 114.5t-133.5 36.5q-98 0 -132 -36.5t-34 -114.5v-239q0 -78 34 -114.5t132 -36.5q99 0 133.5 36.5t34.5 114.5z" />
    <glyph glyph-name="R" unicode="R" horiz-adv-x="610" 
d="M562 504q0 -81 -50.5 -132.5t-130.5 -51.5q42 -25 78.5 -68t57.5 -82l48 -90.5t45 -77.5q-40 -10 -61 -10q-85 0 -119 65q-4 7 -22 42t-24.5 46.5t-24 40t-30.5 41.5l-33 32t-43 30.5t-49 18.5v-318q-5 0 -14.5 0.5t-32.5 4.5t-40.5 10t-32 19t-14.5 31v660h231
q261 0 261 -181v-30zM301 616h-97v-207h105q64 0 91.5 27t27.5 83q0 54 -30 75.5t-97 21.5z" />
    <glyph glyph-name="S" unicode="S" horiz-adv-x="654" 
d="M40 515q0 212 287 212q263 0 263 -124q0 -41 -33 -101q0 121 -229 121q-150 0 -150 -93q0 -29 18.5 -48t49.5 -27t70 -15.5t80 -12.5t80 -20t70 -36.5t49.5 -62.5t18.5 -98q0 -107 -80.5 -164t-213.5 -57q-50 0 -94.5 6.5t-84 20.5t-62.5 39t-23 59q0 41 36 93
q0 -115 228 -115q77 0 116 28.5t39 80.5q0 37 -24 60t-62.5 33t-84.5 17t-92.5 18t-85 29.5t-62.5 58.5t-24 98z" />
    <glyph glyph-name="T" unicode="T" horiz-adv-x="577" 
d="M480 616h-126v-626q-5 0 -14.5 0.5t-32.5 4t-40.5 9.5t-32 19.5t-14.5 31.5v561h-123q-95 0 -95 115q35 -16 111 -16h351q34 0 61.5 4t38.5 8l11 4q0 -115 -95 -115z" />
    <glyph glyph-name="U" unicode="U" 
d="M662 660v-446q0 -108 -86.5 -167t-214.5 -59t-214.5 59t-86.5 167v511q5 0 14.5 -0.5t32.5 -4t40.5 -9.5t32 -19.5t14.5 -31.5v-431q0 -66 45.5 -101.5t121.5 -35.5t121.5 35.5t45.5 101.5v496q5 0 14.5 -0.5t32.5 -4t40.5 -9.5t32 -19.5t14.5 -31.5z" />
    <glyph glyph-name="V" unicode="V" horiz-adv-x="712" 
d="M356 -24q-11 7 -29.5 24.5t-49.5 53.5t-64.5 96.5t-57.5 131.5l-88 263q-44 138 -62 165q33 11 56 11q32 0 55.5 -11.5t39.5 -36.5t24 -44t20 -55l3 -9l87 -257q12 -37 28.5 -76t27.5 -59l10 -20q30 47 66 155l87 257q28 84 49 112q34 44 93 44q10 0 24 -2.5t23 -5.5
l9 -3q-18 -27 -62 -165l-88 -263q-24 -71 -57.5 -131.5t-64.5 -96.5t-49.5 -53.5t-29.5 -24.5z" />
    <glyph glyph-name="W" unicode="W" horiz-adv-x="1030" 
d="M355 -24l-14.5 12t-36 36.5t-50 61t-52 85.5t-47.5 111l-88 263l-14 42l-13.5 40.5l-11 32t-12 30t-11.5 20.5q33 11 55 11q32 0 55 -11.5t38 -34.5t24 -44t19 -53q3 -9 4 -13l86 -257q12 -37 29.5 -76t28.5 -60l12 -20q54 58 101 179q-36 144 -36 246q0 62 34.5 95
t100.5 33q-6 -51 -6 -99q0 -74 12.5 -147.5t31 -126.5t36.5 -95t30 -63l13 -22q42 71 69 156l86 257q28 83 47 110q34 46 93 46q10 0 24 -2.5t23 -5.5l9 -3q-7 -11 -15 -30t-13.5 -34t-17 -50l-16.5 -51l-88 -263q-19 -57 -47 -110t-54 -87t-49 -60t-37 -37l-14 -12
q-4 3 -11 9t-27.5 27t-39 44.5t-41.5 59.5t-40 74q-27 -63 -67 -116.5t-66 -75.5z" />
    <glyph glyph-name="X" unicode="X" horiz-adv-x="630" 
d="M315 278q-63 -78 -139 -223q-35 -65 -113 -65q-11 0 -26.5 2t-24.5 4l-10 3q27 42 65.5 116.5t75.5 134t81 104.5q-59 70 -130 200t-89 157q36 9 61 9q79 0 113 -65l53.5 -99t39 -65t43.5 -60q20 23 43.5 60t39 65l53.5 99q34 65 113 65q11 0 26.5 -2t25.5 -4l9 -3
q-18 -27 -89 -157t-130 -200q44 -45 81 -104.5t75.5 -134t65.5 -116.5q-36 -9 -61 -9q-78 0 -113 65q-72 136 -139 223z" />
    <glyph glyph-name="Y" unicode="Y" horiz-adv-x="624" 
d="M245 55v243q-53 53 -93 123.5t-78.5 155t-71.5 135.5q36 9 61 9q81 0 113 -65l46 -93q63 -129 90 -163q11 14 23 35t19.5 36l23 45.5l21.5 42.5l49 97q33 65 113 65q9 0 24.5 -2.5t26.5 -4.5l10 -3q-28 -46 -69 -133.5t-82 -157.5t-92 -122v-308q-5 0 -14.5 0.5t-32.5 4
t-40.5 9.5t-32 19.5t-14.5 31.5z" />
    <glyph glyph-name="Z" unicode="Z" horiz-adv-x="593" 
d="M508 0h-480q-5 77 23.5 144t77.5 121t101.5 104t103 115t74.5 132h-366q0 4 0.5 10.5t4.5 24t11 30.5t23 23.5t37 10.5h443q0 -82 -36.5 -163.5t-90 -145t-108 -119t-97 -105.5t-49.5 -84h292q38 0 65.5 4t36.5 8l8 5q-7 -115 -74 -115z" />
    <glyph glyph-name="bracketleft" unicode="[" horiz-adv-x="312" 
d="M70 -45v760h232q0 -4 -0.5 -10t-4.5 -22t-11 -28t-22.5 -22t-36.5 -10h-38v-641h38q21 0 36 -9.5t22.5 -21.5t11.5 -27.5t4.5 -22.5t0.5 -11h-133q-4 0 -10.5 0.5t-24 4t-30.5 9.5t-23.5 19.5t-10.5 31.5z" />
    <glyph glyph-name="backslash" unicode="\" horiz-adv-x="363" 
d="M262 -189l-274 942q118 39 138 -28l273 -940q-119 -39 -137 26z" />
    <glyph glyph-name="bracketright" unicode="]" horiz-adv-x="312" 
d="M242 715v-760q0 -29 -25 -45t-49 -18l-25 -2h-133q0 4 0.5 11t4.5 22.5t11.5 27.5t22.5 21.5t36 9.5h38v641h-38q-33 0 -52 23t-21 46l-2 23h232z" />
    <glyph glyph-name="asciicircum" unicode="^" horiz-adv-x="565" 
d="M476 417l-180 180l-157 -156q-20 -19 -43 -15.5t-43 19t-33 36.5l209 209q29 29 66 30t67 -29l163 -163q49 -49 -49 -111z" />
    <glyph glyph-name="underscore" unicode="_" horiz-adv-x="595" 
d="M62 -14h529q4 -22 4 -39q0 -63 -62 -63h-529q-4 20 -4 38q0 64 62 64z" />
    <glyph glyph-name="grave" unicode="`" horiz-adv-x="489" 
d="M240 782q-12 -21 0.5 -43t50.5 -60l33 -33q12 -13 10.5 -24t-13 -19t-24.5 -13.5t-23 -8.5l-11 -3l-59 44q-39 29 -48 64t13.5 62.5t70.5 33.5z" />
    <glyph glyph-name="a" unicode="a" horiz-adv-x="534" 
d="M354 97v163q-7 -17 -38 -27.5t-62.5 -15.5t-57 -22.5t-25.5 -47.5q0 -68 90 -68q24 0 47 4.5t34 8.5zM42 145q0 52 28 86t69.5 49t84.5 24.5t79.5 23t47.5 34.5q0 68 -97 68q-70 0 -115 -27t-45 -86q-38 51 -38 97q0 41 34 67.5t76 36t89 9.5q110 0 167.5 -44.5
t57.5 -126.5v-366q-32 16 -77 16q-24 0 -76 -9t-81 -9q-56 0 -99.5 13.5t-74 50.5t-30.5 93z" />
    <glyph glyph-name="b" unicode="b" horiz-adv-x="561" 
d="M511 354v-192q0 -84 -60.5 -129t-174.5 -45q-44 0 -111.5 17.5t-104.5 18.5v738q12 0 25.5 -1.5t41.5 -7t45.5 -23t17.5 -43.5v-141q0 -11 -2 -25.5t-4 -23.5l-2 -9q5 4 15 10.5t43.5 17.5t70.5 11q83 0 141.5 -47.5t58.5 -125.5zM190 349v-250q35 -16 84 -16
q60 0 83.5 22.5t23.5 71.5v162q0 47 -22.5 70t-60.5 23q-42 0 -75 -24t-33 -59z" />
    <glyph glyph-name="c" unicode="c" horiz-adv-x="509" 
d="M448 189q31 -46 31 -82q0 -54 -55.5 -86.5t-142.5 -32.5q-107 0 -169 46.5t-62 129.5v187q0 82 59.5 129t166.5 47q44 0 84.5 -9.5t73 -37t32.5 -68.5q0 -43 -39 -99q0 57 -38 86.5t-90 29.5q-59 0 -89.5 -22.5t-30.5 -81.5v-135q0 -54 28.5 -78.5t88.5 -24.5
q65 0 108 29t44 73z" />
    <glyph glyph-name="d" unicode="d" horiz-adv-x="561" 
d="M371 546v216q12 0 25.5 -1.5t41.5 -7t45.5 -23t17.5 -43.5v-699q-34 17 -80 17q-28 0 -77 -8.5t-69 -8.5q-107 0 -166 45.5t-59 128.5v192q0 78 58.5 125.5t141.5 47.5q37 0 69 -9.5t46 -19.5l14 -10q-8 33 -8 58zM371 95v254q0 35 -33 59t-75 24q-38 0 -60.5 -23
t-22.5 -70v-162q0 -49 23.5 -71.5t83.5 -22.5q20 0 41 3t32 6z" />
    <glyph glyph-name="e" unicode="e" horiz-adv-x="529" 
d="M180 336v-29q45 -9 75 -9q97 0 97 63q0 71 -85 71q-49 0 -68 -23.5t-19 -72.5zM291 -12q-114 0 -177.5 46.5t-63.5 129.5v187q0 83 57.5 129.5t163.5 46.5q104 0 157.5 -44.5t53.5 -121.5q0 -72 -49 -118t-159 -46q-49 0 -94 18v-36q0 -91 111 -91q74 0 120 28.5t47 73.5
q31 -44 31 -82q0 -54 -55.5 -87t-142.5 -33z" />
    <glyph glyph-name="f" unicode="f" horiz-adv-x="364" 
d="M61 58v561q0 78 72 127t167 49q84 0 137.5 -27t53.5 -73q0 -37 -48 -76q0 37 -40.5 56.5t-97.5 19.5q-48 0 -81.5 -27t-33.5 -71v-106h179q0 -4 -0.5 -10.5t-4.5 -23.5t-11 -30t-22.5 -23.5t-35.5 -10.5h-105v-400q-5 0 -14 0.5t-31 4t-39 9.5t-31 19.5t-14 31.5z" />
    <glyph glyph-name="g" unicode="g" horiz-adv-x="527" 
d="M34 94q0 28 13 51.5t41 56.5q-19 19 -30.5 52t-11.5 63v47q0 83 57.5 123t142.5 40q28 0 80 -10.5t76 -10.5q35 0 85 20v-209q0 -84 -57 -130.5t-163 -46.5q-33 0 -64.5 7t-46.5 14l-15 7q-6 -20 -6 -39q0 -31 28.5 -41.5t86.5 -10.5h33q31 0 46 -0.5t43.5 -3t43 -7.5
t34.5 -15t30 -25t17.5 -38t7.5 -53q0 -82 -59.5 -129.5t-178.5 -47.5q-101 0 -160 29.5t-59 79.5q0 40 34 84q11 -98 176 -98q120 0 120 75q0 32 -24 42t-74 10h-49q-45 0 -76 4t-61 15t-45 35t-15 60zM175 332q0 -50 19.5 -73.5t72.5 -23.5t72 23.5t19 73.5v85
q-45 17 -89 17q-51 0 -72.5 -19.5t-21.5 -65.5v-17z" />
    <glyph glyph-name="h" unicode="h" horiz-adv-x="571" 
d="M190 349v-356q-5 0 -14 0.5t-31.5 4t-39.5 9.5t-31 19.5t-14 31.5v704h17t31 -4t39.5 -11t29 -22.5t13.5 -37.5v-139l-8 -60q5 4 15.5 10.5t44 17.5t69.5 11q86 0 143 -44.5t57 -128.5v-361q-5 0 -14 0.5t-31.5 4.5t-39.5 10t-31 19t-14 31v281q0 47 -22.5 70t-60.5 23
q-42 0 -75 -24t-33 -59z" />
    <glyph glyph-name="i" unicode="i" horiz-adv-x="250" 
d="M60 58v464q10 0 24.5 -1.5t42 -6.5t45.5 -20t18 -37v-464q-5 0 -14 0.5t-31.5 4t-39.5 9.5t-31 19.5t-14 31.5zM63 624v83h88q12 0 24.5 -9.5t12.5 -19.5v-83h-88q-15 0 -26 9t-11 20z" />
    <glyph glyph-name="j" unicode="j" horiz-adv-x="250" 
d="M190 457v-539q0 -66 -32 -111.5t-86 -45.5q-53 0 -105 45q47 0 70 46.5t23 97.5v572q5 0 14 -0.5t31.5 -4t39.5 -9.5t31 -19.5t14 -31.5zM64 624v83h88q12 0 24.5 -9.5t12.5 -19.5v-83h-88q-15 0 -26 9t-11 20z" />
    <glyph glyph-name="k" unicode="k" horiz-adv-x="530" 
d="M494 510q-15 -21 -47 -77.5t-62 -91.5t-70 -51q42 -15 73 -38.5t50.5 -54t32 -58.5l29 -67.5t30.5 -65.5q-54 -13 -74 -13q-28 0 -47 11.5t-30 30.5t-20.5 42.5t-21.5 48t-28.5 46.5t-46.5 39t-72 24v-242q-5 0 -14 0.5t-31.5 4t-39.5 9.5t-31 19.5t-14 31.5v706
q5 0 14 -0.5t31.5 -4t39.5 -9.5t31 -19.5t14 -31.5v-364q42 6 71.5 37.5t65.5 100.5q26 49 96 49q33 0 71 -12z" />
    <glyph glyph-name="l" unicode="l" horiz-adv-x="250" 
d="M55 150v614q10 0 24.5 -1.5t42 -6.5t45.5 -20t18 -37v-517q0 -29 1.5 -47.5t7.5 -45.5t21.5 -41.5t40.5 -14.5q-30 -40 -83 -40q-58 0 -88 44.5t-30 112.5z" />
    <glyph glyph-name="m" unicode="m" horiz-adv-x="892" 
d="M381 58v289q0 41 -22.5 62t-73.5 21q-23 0 -46.5 -3.5t-36.5 -6.5l-12 -4v-423q-5 0 -14 0.5t-31.5 4t-39.5 9.5t-31 19.5t-14 31.5v469q39 -21 90 -21q24 0 72.5 10.5t76.5 10.5q103 0 158 -43q5 5 16 12t55 19t100 12q88 0 146 -44.5t58 -128.5v-361q-5 0 -14 0.5
t-31.5 4.5t-39.5 10t-31 19t-14 31v281q0 47 -22.5 70t-60.5 23q-43 0 -75 -18.5t-33 -51.5v-369q-5 0 -14 0.5t-31.5 4.5t-39.5 10t-31 19t-14 31z" />
    <glyph glyph-name="n" unicode="n" horiz-adv-x="571" 
d="M381 58v289q0 41 -22.5 62t-73.5 21q-23 0 -46.5 -3.5t-36.5 -6.5l-12 -4v-423q-5 0 -14 0.5t-31.5 4t-39.5 9.5t-31 19.5t-14 31.5v469q39 -21 90 -21q24 0 72.5 10.5t76.5 10.5q90 0 151 -38t61 -127v-369q-5 0 -14 0.5t-31.5 4.5t-39.5 10t-31 19t-14 31z" />
    <glyph glyph-name="o" unicode="o" horiz-adv-x="582" 
d="M532 351v-187q0 -84 -60 -130t-181 -46t-181 46t-60 130v187q0 84 60 130t181 46t181 -46t60 -130zM402 179v157q0 50 -23 73t-88 23t-88 -23t-23 -73v-157q0 -50 23 -73t88 -23t88 23t23 73z" />
    <glyph glyph-name="p" unicode="p" horiz-adv-x="561" 
d="M190 -31v-216q-12 0 -25.5 1.5t-41.5 7t-45.5 23t-17.5 43.5v699q38 -19 80 -19q28 0 77 9.5t69 9.5q107 0 166 -45.5t59 -128.5v-192q0 -78 -58.5 -125.5t-141.5 -47.5q-37 0 -69 10t-46 20l-14 9q8 -33 8 -58zM190 420v-254q0 -36 33 -59.5t75 -23.5q38 0 60.5 23
t22.5 70v162q0 49 -23.5 71.5t-83.5 22.5q-20 0 -41 -3t-32 -6z" />
    <glyph glyph-name="q" unicode="q" horiz-adv-x="561" 
d="M371 166v254q-39 12 -84 12q-60 0 -83.5 -22.5t-23.5 -71.5v-162q0 -47 22.5 -70t60.5 -23q42 0 75 23.5t33 59.5zM501 527v-774q-12 0 -25.5 1.5t-41.5 7t-45.5 23t-17.5 43.5v141q0 11 2 25.5t4 23.5l2 9q-5 -4 -15 -10.5t-43.5 -17.5t-70.5 -11q-83 0 -141.5 47.5
t-58.5 125.5v192q0 83 59 128.5t166 45.5q20 0 69 -9.5t77 -9.5q42 0 80 19z" />
    <glyph glyph-name="r" unicode="r" horiz-adv-x="418" 
d="M190 -7q-5 0 -14 0.5t-31.5 4t-39.5 9.5t-31 19.5t-14 31.5v468q40 -20 77 -20q20 0 68 10.5t79 10.5q58 0 96.5 -23t38.5 -71q0 -17 -6.5 -34.5t-13 -28t-16 -22.5t-10.5 -13q0 45 -30.5 68t-77.5 23q-15 0 -75 -11v-422z" />
    <glyph glyph-name="s" unicode="s" horiz-adv-x="511" 
d="M354 154q0 26 -24 39.5t-60 16t-78 9t-78 17t-60 42.5t-24 83q0 82 56.5 124t164.5 42q93 0 148 -26t55 -75q0 -42 -38 -90q0 44 -44 68t-111 24q-103 0 -103 -61q0 -22 24 -33.5t60 -13t77.5 -9.5t77.5 -21t60 -49t24 -92q0 -76 -58.5 -118.5t-171.5 -42.5
q-97 0 -155 28t-58 79q0 44 47 94q1 -40 28 -64.5t61 -32t77 -7.5q39 0 71 16.5t32 52.5z" />
    <glyph glyph-name="t" unicode="t" horiz-adv-x="445" 
d="M61 164v448q129 0 129 -85v-36h204q0 -4 -0.5 -10.5t-4.5 -23.5t-11 -30t-22.5 -23.5t-35.5 -10.5h-130v-201q0 -54 20.5 -80t74.5 -26q50 0 84 25t34 80q42 -47 42 -89q0 -49 -46 -81.5t-132 -32.5q-98 0 -152 46.5t-54 129.5z" />
    <glyph glyph-name="u" unicode="u" horiz-adv-x="571" 
d="M190 457v-289q0 -41 22.5 -62t73.5 -21q23 0 46.5 3.5t35.5 7.5l13 3v423q5 0 14 -0.5t31.5 -4t39.5 -9.5t31 -19.5t14 -31.5v-469q-39 21 -90 21q-24 0 -72.5 -10.5t-76.5 -10.5q-90 0 -151 38t-61 127v369q5 0 14 -0.5t31.5 -4.5t39.5 -10t31 -19t14 -31z" />
    <glyph glyph-name="v" unicode="v" horiz-adv-x="523" 
d="M503 522l-22 -197q-7 -65 -32.5 -125t-54.5 -97.5t-62 -68.5t-49 -42t-22 -14q-6 3 -22 14t-49.5 42t-62.5 68.5t-54.5 97.5t-31.5 125l-21 197q5 0 13.5 -0.5t31 -4t39.5 -9t32.5 -18.5t17.5 -31l20 -152q5 -41 15.5 -76t22.5 -56.5t23 -37t19 -21.5l7 -6q3 2 7.5 7
t17.5 22.5t24 38t22 55.5t16 74l20 152q3 28 37 43.5t66 17.5z" />
    <glyph glyph-name="w" unicode="w" horiz-adv-x="814" 
d="M21 522q68 0 107 -26q24 -15 27 -38l20 -152q5 -41 16 -76.5t23 -56.5t23.5 -36.5t18.5 -21.5l7 -6q8 5 19.5 13t37.5 34.5t39 52.5q-22 68 -22 159q0 68 30.5 102.5t99.5 37.5q-11 -86 -11 -143q0 -52 10 -97.5t24.5 -73t28.5 -48t24 -28.5l10 -9l21 27.5t37.5 69
t30.5 100.5l20 152q4 28 37 44t64 18l31 2l-20 -198q-7 -65 -32 -124.5t-56 -98t-61 -67.5t-51 -42l-20 -13q-10 5 -26.5 14.5t-56 42t-63.5 69.5q-26 -36 -62.5 -67.5t-59.5 -45.5l-24 -13l-21 13.5t-48 40.5t-62.5 69t-54 97t-33.5 125z" />
    <glyph glyph-name="x" unicode="x" horiz-adv-x="498" 
d="M324 48l-75 132l-75 -132q-17 -30 -48 -42.5t-60 -12.5l-66 8q25 31 54 81l69 118q11 18 23.5 32t19.5 18l7 5q-36 36 -50 60l-76 129q-22 38 -47 70q45 8 66 8q28 0 58 -13t48 -42l77 -130l77 130q18 29 48 42t58 13l66 -8q-25 -32 -47 -70l-76 -129q-6 -11 -18.5 -26
t-22.5 -25l-9 -9q26 -14 50 -55l69 -118q29 -50 54 -81q-45 -8 -66 -8q-29 0 -60 12.5t-48 42.5z" />
    <glyph glyph-name="y" unicode="y" horiz-adv-x="533" 
d="M31 522q5 0 13.5 -0.5t30 -4.5t38.5 -11.5t33 -24.5t19 -40l20 -135q5 -35 16 -65t22.5 -49t23 -32.5t18 -19t7.5 -5.5l7 6q7 6 19 20t24 33t23 49t15 63l18 134q5 36 39 56.5t65 23.5l32 2l-22 -198q-10 -89 -56.5 -161.5t-101.5 -114.5l-39 -30q-39 -31 -59.5 -50
t-37.5 -48t-17 -61q0 -42 21 -87q-26 -14 -53 -14q-39 0 -65.5 28t-26.5 84q0 62 35 105t104 94q-51 30 -92.5 101t-50.5 154z" />
    <glyph glyph-name="z" unicode="z" horiz-adv-x="475" 
d="M304 416h-269q0 4 0.5 10.5t4.5 24t11 30.5t22.5 23.5t36.5 10.5h348q-5 -17 -11.5 -48t-9.5 -44q-13 -46 -48.5 -92.5t-73.5 -79t-82.5 -75t-67.5 -77.5h295q0 -4 -0.5 -10.5t-4.5 -24t-11 -30.5t-22.5 -23.5t-36.5 -10.5h-356q-6 27 -6 43q0 45 22 86t57.5 75
t72.5 65.5t74 70t55 76.5z" />
    <glyph glyph-name="braceleft" unicode="{" horiz-adv-x="268" 
d="M10 272q2 1 5.5 3.5t13 11.5t16.5 19.5t13 27.5t6 36v270q0 58 31.5 91t78 25t84.5 -58q-24 0 -39.5 -7t-22 -22t-8 -28.5t-1.5 -36.5v-239q0 -56 -52 -94q52 -35 52 -94v-239q0 -23 1.5 -36.5t8 -28.5t22 -22t39.5 -7q-38 -50 -84.5 -58t-78 25t-31.5 91v270
q0 23 -13.5 48t-26.5 38z" />
    <glyph glyph-name="bar" unicode="|" horiz-adv-x="270" 
d="M70 -177v942q5 0 14 -0.5t31.5 -4t39.5 -9.5t31 -19.5t14 -31.5v-942q-5 0 -14 0.5t-31.5 4t-39.5 9.5t-31 19.5t-14 31.5z" />
    <glyph glyph-name="braceright" unicode="}" horiz-adv-x="268" 
d="M258 272q-6 -5 -15 -15t-24 -36t-15 -49v-270q0 -58 -31.5 -91t-78 -25t-84.5 58q24 0 39.5 7t22 22t8 28.5t1.5 36.5v239q0 59 52 94q-52 38 -52 94v239q0 23 -1.5 36.5t-8 28.5t-22 22t-39.5 7q38 50 84.5 58t78 -25t31.5 -91v-270q0 -30 13.5 -54.5t26.5 -33.5z" />
    <glyph glyph-name="asciitilde" unicode="~" horiz-adv-x="659" 
d="M144 441q63 0 187 -26t189 -26q20 0 32 1.5t31.5 12.5t37.5 32q37 -147 -106 -147q-63 0 -187 26t-188 26q-62 0 -100 -41q-22 68 5 105t99 37z" />
    <glyph glyph-name="uni00A0" unicode="&#xa0;" horiz-adv-x="280" 
 />
    <glyph glyph-name="exclamdown" unicode="&#xa1;" horiz-adv-x="290" 
d="M100 55v474h14t31.5 -3.5t39.5 -9.5t31 -19.5t14 -32.5v-474q-5 0 -14 0.5t-31.5 4t-39.5 9.5t-31 19.5t-14 31.5zM225 684v-94h-82q-15 0 -27 9.5t-12 21.5v94h81q16 0 28 -9t12 -22z" />
    <glyph glyph-name="cent" unicode="&#xa2;" horiz-adv-x="519" 
d="M259 -26v15q-97 5 -153 51t-56 124v187q0 81 54 127t155 49v59q3 0 7 -0.5t15.5 -3t20 -7t15.5 -15t7 -24.5v-13q60 -8 100.5 -34.5t40.5 -74.5q0 -45 -38 -101q0 93 -103 112v-334q56 8 89.5 34.5t34.5 64.5q31 -44 31 -82q0 -47 -42.5 -78.5t-112.5 -39.5v-66
q-3 0 -7 0.5t-15.5 3t-20 7t-15.5 15t-7 24.5zM180 189q0 -48 18 -72t61 -28v339q-42 -3 -60.5 -26t-18.5 -76v-137z" />
    <glyph glyph-name="sterling" unicode="&#xa3;" horiz-adv-x="644" 
d="M218 363v-213l-4 -56q91 -25 196 -25q57 0 101 31.5t60 93.5q64 -95 13 -162t-167 -67q-82 0 -157 15t-190 48q14 57 14 94v467q0 81 65 128.5t166 47.5t151.5 -29.5t48.5 -73t-46 -92.5q-4 54 -44 75.5t-110 21.5q-47 0 -72 -24t-25 -69v-112h195q0 -4 -0.5 -10.5
t-4.5 -24t-11.5 -30.5t-22.5 -23.5t-36 -10.5h-120z" />
    <glyph glyph-name="yen" unicode="&#xa5;" horiz-adv-x="644" 
d="M193 342h22q-50 63 -111 192t-92 178q36 9 61 9q81 0 113 -65l46 -93q63 -129 90 -163q11 14 23 35t19.5 36l23 45.5l21.5 42.5l49 97q33 65 113 65q9 0 24.5 -2.5t26.5 -4.5l10 -3q-23 -39 -88.5 -172t-115.5 -197h85q14 -86 -55 -86h-69v-69h124q14 -86 -55 -86h-69
v-111q-5 0 -14.5 0.5t-32.5 4t-40.5 9.5t-32 19.5t-14.5 31.5v46h-117q-11 34 3 60t52 26h62v69h-117q-11 34 3 60t52 26z" />
    <glyph glyph-name="brokenbar" unicode="&#xa6;" horiz-adv-x="270" 
d="M70 398v366q5 0 14 -0.5t31.5 -4t39.5 -9.5t31 -19.5t14 -31.5v-366q-5 0 -14 0.5t-31.5 4t-39.5 9.5t-31 19.5t-14 31.5zM70 -177v367q5 0 14 -0.5t31.5 -4t39.5 -9.5t31 -19.5t14 -31.5v-367q-5 0 -14 0.5t-31.5 4t-39.5 9.5t-31 19.5t-14 31.5z" />
    <glyph glyph-name="section" unicode="&#xa7;" horiz-adv-x="601" 
d="M303 764q117 0 180 -33t63 -95q0 -45 -34 -103q-22 137 -209 137q-41 0 -67.5 -7.5t-38 -24t-15 -32t-3.5 -41.5q0 -34 26 -55.5t65 -30t84.5 -21.5t84.5 -27.5t65 -50t26 -88.5q0 -95 -75 -128q6 44 6 52q0 41 -22.5 68t-58 40.5t-79 24t-86.5 24.5t-78.5 35t-58 62
t-22.5 100q0 194 247 194zM302 -233q-117 0 -180 33t-63 95q0 45 34 103q22 -137 209 -137q41 0 67.5 7.5t38 24t15 32t3.5 41.5q0 34 -26 55.5t-65 30t-84.5 21.5t-84.5 27.5t-65 50t-26 88.5q0 95 75 128q-6 -43 -6 -52q0 -41 22.5 -68t58 -40.5t78.5 -24t86.5 -24.5
t79 -35t58 -62t22.5 -100q0 -194 -247 -194z" />
    <glyph glyph-name="dieresis" unicode="&#xa8;" horiz-adv-x="462" 
d="M263 624v84h80q15 0 25 -9.5t10 -19.5v-83h-80q-16 0 -25.5 8.5t-9.5 19.5zM84 624v84h80q15 0 25 -9.5t10 -19.5v-83h-80q-16 0 -25.5 8.5t-9.5 19.5z" />
    <glyph glyph-name="copyright" unicode="&#xa9;" horiz-adv-x="844" 
d="M434 493q-16 0 -27.5 -2.5t-23.5 -9t-18.5 -22t-6.5 -39.5v-115q0 -24 6.5 -39.5t18.5 -22.5t23.5 -9.5t27.5 -2.5q49 0 81.5 13.5t48.5 55.5q26 -43 26 -74q0 -41 -41.5 -62.5t-114.5 -21.5q-196 0 -196 149v142q0 148 196 148q78 0 120 -23t42 -61q0 -31 -29 -71
q-16 41 -49.5 54t-83.5 13zM671 267v189q0 92 -56.5 139.5t-194.5 47.5q-136 0 -191.5 -47.5t-55.5 -139.5v-189q0 -92 55.5 -139.5t191.5 -47.5q138 0 194.5 47.5t56.5 139.5zM60 234v255q0 113 97.5 178.5t264.5 65.5t264.5 -65.5t97.5 -178.5v-255q0 -113 -97.5 -178.5
t-264.5 -65.5t-264.5 65.5t-97.5 178.5z" />
    <glyph glyph-name="ordfeminine" unicode="&#xaa;" horiz-adv-x="477" 
d="M240 396q17 0 31.5 3t20.5 5l7 3v101q-8 -13 -28.5 -21.5t-39.5 -11.5t-34 -12t-15 -24q0 -43 58 -43zM60 432q0 37 20.5 62t51.5 36t63 18.5t61 17t39 24.5q-2 50 -66 50q-106 0 -110 -67q-37 33 -37 68q0 36 40.5 60t116.5 24q86 0 132 -36t46 -100v-265q-31 9 -64 9
q-24 0 -71 -8.5t-79 -8.5q-60 0 -101.5 29t-41.5 87z" />
    <glyph glyph-name="guillemotleft" unicode="&#xab;" horiz-adv-x="677" 
d="M174 255l183 -183q-16 -32 -50 -46.5t-64 9.5l-164 164q-56 56 1 113l201 201q93 -57 46 -104zM424 255l183 -183q-16 -32 -50 -46.5t-64 9.5l-164 164q-56 56 1 113l201 201q93 -57 46 -104z" />
    <glyph glyph-name="logicalnot" unicode="&#xac;" horiz-adv-x="683" 
d="M496 28v265l-411 1q-62 0 -62 64q0 22 6 44h495q53 0 71 -19t18 -64v-246q-1 -52 -64 -52q-25 0 -53 7z" />
    <glyph glyph-name="uni00AD" unicode="&#xad;" horiz-adv-x="491" 
d="M113 304h314q1 -4 2 -10.5t1 -23t-4 -29t-16 -23t-32 -10.5h-315q-1 4 -2 10.5t-0.5 23t4.5 29t16 23t32 10.5z" />
    <glyph glyph-name="registered" unicode="&#xae;" horiz-adv-x="501" 
d="M169 406v199h65q48 0 75.5 -16t27.5 -60q0 -20 -16 -41.5t-38 -26.5q44 -15 65 -80q-32 -10 -46 -10q-13 0 -20.5 11.5t-17.5 29.5t-26 29v-69h-7.5t-16.5 2t-21 5t-16.5 10t-7.5 17zM271 532q0 29 -30 29h-3v-60h3q30 0 30 31zM382 421v129q0 43 -33 69t-101 26
q-65 0 -97.5 -26t-32.5 -69v-129q0 -43 32 -68t98 -25q68 0 101 25t33 68zM39 406v162q0 67 57 105.5t154 38.5t154.5 -38.5t57.5 -105.5v-162q0 -67 -57.5 -106t-154.5 -39t-154 39t-57 106z" />
    <glyph glyph-name="macron" unicode="&#xaf;" horiz-adv-x="439" 
d="M125 692h252q1 -4 2 -9.5t0.5 -21t-4.5 -27t-18 -21t-36 -9.5h-253q-1 4 -2 9.5t-0.5 21t5.5 27t18.5 21t35.5 9.5z" />
    <glyph glyph-name="degree" unicode="&#xb0;" horiz-adv-x="389" 
d="M349 665v-91q0 -48 -41.5 -73.5t-113.5 -25.5q-71 0 -112.5 25.5t-41.5 73.5v91q0 46 42 73t112 27q71 0 113 -27t42 -73zM241 597v46q0 20 -10 30.5t-37 10.5t-36.5 -10t-9.5 -31v-46q0 -21 9.5 -31t36.5 -10t37 10t10 31z" />
    <glyph glyph-name="plusminus" unicode="&#xb1;" horiz-adv-x="521" 
d="M197 212v62h-134q-1 4 -2 11t-0.5 24.5t5.5 31t18.5 24.5t35.5 11h77v113l13 2.5t29 2t37.5 -2.5t29.5 -15.5t13 -32.5v-67h138q1 -4 2 -11t0.5 -24.5t-4.5 -31t-18 -24.5t-36 -11h-82v-108l-13 -2.5t-29 -1.5t-37.5 3t-29.5 15t-13 32zM137 120h307q1 -4 2 -10.5
t0.5 -23t-4.5 -29.5t-18 -23.5t-36 -10.5h-307q-1 4 -2 10.5t-0.5 23t5 29.5t18 23.5t35.5 10.5z" />
    <glyph glyph-name="twosuperior" unicode="&#xb2;" horiz-adv-x="391" 
d="M50 342v57q0 34 19 58.5t46.5 38l54.5 26t46 29t19 39.5v7q0 46 -49 46q-20 0 -31.5 -1.5t-28.5 -7.5t-25.5 -22t-8.5 -41q-38 32 -38 68q0 32 36.5 51t95.5 19q61 0 99.5 -28.5t38.5 -74.5v-19q0 -34 -19 -59t-46 -39t-54 -25.5t-47 -25t-21 -31.5h144q16 0 30 4t19 8
l6 4q0 -8 -1 -15t-4.5 -25.5t-15 -29.5t-29.5 -11h-236z" />
    <glyph glyph-name="threesuperior" unicode="&#xb3;" horiz-adv-x="378" 
d="M178 643q-38 0 -62.5 -14t-30.5 -57q-35 29 -35 66q0 33 36 52t92 19q62 0 100 -26.5t38 -73.5v-13q0 -56 -37 -70q42 -22 42 -72v-14q0 -46 -39.5 -75t-103.5 -29q-57 0 -91.5 20t-34.5 52q0 33 27 61q13 -67 99 -67q27 0 41 13.5t14 34.5q0 27 -12.5 37t-27 8.5t-27 9
t-12.5 39.5v4v4q1 4 1 5h27q46 0 46 44q0 42 -50 42z" />
    <glyph glyph-name="acute" unicode="&#xb4;" horiz-adv-x="489" 
d="M220 782q48 -6 70.5 -33.5t13.5 -62.5t-48 -64l-59 -44l-38 13q-54 24 -23 55l33 33q38 38 50.5 60t0.5 43z" />
    <glyph glyph-name="mu" unicode="&#xb5;" horiz-adv-x="571" 
d="M190 457v-289q0 -41 22.5 -62t73.5 -21q23 0 46.5 3.5t35.5 7.5l13 3v423q5 0 14 -0.5t31.5 -4t39.5 -9.5t31 -19.5t14 -31.5v-469q-39 21 -90 21q-24 0 -72.5 -10.5t-76.5 -10.5q-47 0 -86 10q4 -36 4 -48v-194q-5 0 -14 0.5t-31.5 4t-39.5 9.5t-31 19.5t-14 31.5v322v2
v8v369q5 0 14 -0.5t31.5 -4.5t39.5 -10t31 -19t14 -31z" />
    <glyph glyph-name="mu" unicode="&#x3bc;" horiz-adv-x="571" 
d="M190 457v-289q0 -41 22.5 -62t73.5 -21q23 0 46.5 3.5t35.5 7.5l13 3v423q5 0 14 -0.5t31.5 -4t39.5 -9.5t31 -19.5t14 -31.5v-469q-39 21 -90 21q-24 0 -72.5 -10.5t-76.5 -10.5q-47 0 -86 10q4 -36 4 -48v-194q-5 0 -14 0.5t-31.5 4t-39.5 9.5t-31 19.5t-14 31.5v322v2
v8v369q5 0 14 -0.5t31.5 -4.5t39.5 -10t31 -19t14 -31z" />
    <glyph glyph-name="paragraph" unicode="&#xb6;" horiz-adv-x="600" 
d="M454 618h-69q4 -17 4 -49v-654q0 -71 -30 -113.5t-78 -42.5q-47 0 -95 44q83 12 83 144v175l4 48q-12 -7 -44 -7q-85 0 -147 49t-62 125v200q0 83 57.5 130.5t163.5 47.5h131q138 0 181 30q26 18 23 48q41 -45 43.5 -84.5t-40 -65t-125.5 -25.5zM545 480v-500
q0 -6 0.5 -27t0 -28.5t-1.5 -25.5t-4.5 -26t-9 -22t-14 -21.5t-20.5 -17t-29.5 -15.5t-38.5 -10q22 17 22 145v656l10.5 -5t22.5 -13.5t28.5 -22t23 -30t10.5 -37.5z" />
    <glyph glyph-name="periodcentered" unicode="&#xb7;" horiz-adv-x="215" 
d="M47 242v94h82q15 0 27 -9.5t12 -21.5v-94h-81q-16 0 -28 9t-12 22z" />
    <glyph glyph-name="cedilla" unicode="&#xb8;" horiz-adv-x="833" 
d="M204 -103q4 18 10 36l39 107q29 0 44 -10t12 -31l-5 -36l20 -2q43 -5 68 -30t25 -67q0 -44 -34.5 -71t-81.5 -27q-36 0 -59.5 17t-29.5 32.5t-6 27.5q26 -13 63 -13q23 0 38.5 10t15.5 30q0 38 -61 38q-14 0 -28.5 -3t-21.5 -5z" />
    <glyph glyph-name="onesuperior" unicode="&#xb9;" horiz-adv-x="338" 
d="M110 705q20 0 48.5 2.5t47.5 4.5l18 2q-7 -47 -7 -65v-241h77q4 -12 4 -22q0 -43 -40 -43h-213q-4 12 -4 22q0 43 43 43h44v231q-56 0 -56 -54q-43 36 -43 67q0 23 20.5 38t60.5 15z" />
    <glyph glyph-name="ordmasculine" unicode="&#xba;" horiz-adv-x="504" 
d="M444 589v-135q0 -65 -48 -100.5t-144 -35.5t-144 35.5t-48 100.5v135q0 65 48 100.5t144 35.5t144 -35.5t48 -100.5zM322 465v113q0 34 -14 50t-56 16t-56.5 -16t-14.5 -50v-113q0 -34 14.5 -50t56.5 -16t56 16t14 50z" />
    <glyph glyph-name="guillemotright" unicode="&#xbb;" horiz-adv-x="677" 
d="M320 72l183 183l-153 154q-47 47 46 104l201 -201q57 -57 1 -113l-164 -164q-30 -24 -64 -9.5t-50 46.5zM70 72l183 183l-153 154q-47 47 46 104l201 -201q57 -57 1 -113l-164 -164q-30 -24 -64 -9.5t-50 46.5z" />
    <glyph glyph-name="onequarter" unicode="&#xbc;" horiz-adv-x="705" 
d="M544 97h-165q4 65 72 154t105 122q3 0 8.5 -0.5t18.5 -2.5t23 -6t18.5 -12t8.5 -18v-175h41q0 -3 -1.5 -10.5t-5 -19t-12.5 -21t-22 -11.5v-97q-7 0 -17 1t-28.5 4t-31 12.5t-12.5 22.5v57zM544 159v101q-51 -59 -70 -101h70zM110 705q20 0 48.5 2.5t47.5 4.5l18 2
q-7 -47 -7 -65v-241h77q4 -12 4 -22q0 -43 -40 -43h-213q-4 12 -4 22q0 43 43 43h44v231q-56 0 -56 -54q-43 36 -43 67q0 23 20.5 38t60.5 15zM178 211l354 352q62 -60 27 -95l-354 -352q-62 59 -27 95z" />
    <glyph glyph-name="onehalf" unicode="&#xbd;" horiz-adv-x="770" 
d="M110 705q20 0 48.5 2.5t47.5 4.5l18 2q-7 -47 -7 -65v-241h77q4 -12 4 -22q0 -43 -40 -43h-213q-4 12 -4 22q0 43 43 43h44v231q-56 0 -56 -54q-43 36 -43 67q0 23 20.5 38t60.5 15zM178 211l354 352q62 -60 27 -95l-354 -352q-62 59 -27 95zM455 -5v57q0 34 19 58.5
t46.5 38l54.5 26t46 29t19 39.5v7q0 46 -49 46q-20 0 -31.5 -1.5t-28.5 -7.5t-25.5 -22t-8.5 -41q-38 32 -38 68q0 32 36.5 51t95.5 19q61 0 99.5 -28.5t38.5 -74.5v-19q0 -34 -19 -59t-46 -39t-54 -25.5t-47 -25t-21 -31.5h144q16 0 30 4t20 8l5 4q0 -8 -1 -15t-4.5 -25.5
t-15 -29.5t-29.5 -11h-236z" />
    <glyph glyph-name="threequarters" unicode="&#xbe;" horiz-adv-x="707" 
d="M545 97h-165q4 65 72 154t105 122q3 0 8.5 -0.5t18.5 -2.5t23 -6t18.5 -12t8.5 -18v-175h41q0 -3 -1.5 -10.5t-5 -19t-12.5 -21t-22 -11.5v-97q-7 0 -17 1t-28.5 4t-31 12.5t-12.5 22.5v57zM545 159v101q-51 -59 -70 -101h70zM190 211l354 352q62 -60 27 -95l-354 -352
q-62 59 -27 95zM178 643q-38 0 -62.5 -14t-30.5 -57q-35 29 -35 66q0 33 36 52t92 19q62 0 100 -26.5t38 -73.5v-13q0 -56 -37 -70q42 -22 42 -72v-14q0 -46 -39.5 -75t-103.5 -29q-57 0 -91.5 20t-34.5 52q0 33 27 61q13 -67 99 -67q27 0 41 13.5t14 34.5q0 27 -12.5 37
t-27 8.5t-27 9t-12.5 39.5v4v4q1 4 1 5h27q46 0 46 44q0 42 -50 42z" />
    <glyph glyph-name="questiondown" unicode="&#xbf;" horiz-adv-x="555" 
d="M291 91q65 0 108 27t43 83q41 -38 50.5 -76.5t-10 -69t-69.5 -49.5t-122 -19q-117 0 -189 48.5t-72 137.5v25q0 39 17 71.5t42.5 53t55.5 41t55.5 36t42.5 38t17 48.5v48q5 0 13.5 -0.5t30.5 -4t38.5 -10t30 -20.5t13.5 -33v-16q0 -34 -23 -62.5t-55.5 -49.5l-65 -41
t-55.5 -47t-23 -59q0 -47 32 -73.5t95 -26.5zM384 683v-94h-82q-15 0 -27 9.5t-12 21.5v94h81q16 0 28 -9t12 -22z" />
    <glyph glyph-name="Agrave" unicode="&#xc0;" horiz-adv-x="682" 
d="M341 738q10 -7 28 -24.5t48 -53.5t62.5 -96.5t55.5 -131.5l85 -263q44 -138 62 -165q-33 -11 -56 -11q-32 0 -55.5 11.5t-39.5 36.5t-24 44t-20 55l-3 9l-17 53h-252l-17 -53q-28 -84 -49 -112q-34 -44 -93 -44q-10 0 -24 3t-23 6l-9 2q18 27 62 165l85 263
q23 71 55.5 131.5t62.5 96.5t48 53.5t28 24.5zM341 575q-29 -46 -66 -169l-31 -104h194l-31 104q-11 37 -27.5 79.5t-27.5 66.5zM313 966q-12 -21 0.5 -43t50.5 -60l33 -33q12 -13 10.5 -24t-13 -19t-24.5 -13.5t-23 -8.5l-11 -3l-59 44q-39 29 -48 64t13.5 62.5t70.5 33.5z
" />
    <glyph glyph-name="Aacute" unicode="&#xc1;" horiz-adv-x="682" 
d="M341 738q10 -7 28 -24.5t48 -53.5t62.5 -96.5t55.5 -131.5l85 -263q44 -138 62 -165q-33 -11 -56 -11q-32 0 -55.5 11.5t-39.5 36.5t-24 44t-20 55l-3 9l-17 53h-252l-17 -53q-28 -84 -49 -112q-34 -44 -93 -44q-10 0 -24 3t-23 6l-9 2q18 27 62 165l85 263
q23 71 55.5 131.5t62.5 96.5t48 53.5t28 24.5zM341 575q-29 -46 -66 -169l-31 -104h194l-31 104q-11 37 -27.5 79.5t-27.5 66.5zM368 966q48 -6 70.5 -33.5t13.5 -62.5t-48 -64l-59 -44l-38 13q-54 24 -23 55l33 33q38 38 50.5 60t0.5 43z" />
    <glyph glyph-name="Acircumflex" unicode="&#xc2;" horiz-adv-x="682" 
d="M341 738q10 -7 28 -24.5t48 -53.5t62.5 -96.5t55.5 -131.5l85 -263q44 -138 62 -165q-33 -11 -56 -11q-32 0 -55.5 11.5t-39.5 36.5t-24 44t-20 55l-3 9l-17 53h-252l-17 -53q-28 -84 -49 -112q-34 -44 -93 -44q-10 0 -24 3t-23 6l-9 2q18 27 62 165l85 263
q23 71 55.5 131.5t62.5 96.5t48 53.5t28 24.5zM341 575q-29 -46 -66 -169l-31 -104h194l-31 104q-11 37 -27.5 79.5t-27.5 66.5zM405 765q13 20 -3 47.5t-38 45.5l-23 17q-2 -1 -5 -3.5l-12.5 -10.5t-16.5 -15t-16.5 -18.5t-12.5 -20.5t-5.5 -21t5.5 -21q-28 10 -47 20
t-27.5 21t-11.5 21t5.5 23t18.5 24t31.5 27.5t41.5 30l52 34.5l52 -34t42 -29.5t32 -28t18.5 -24.5t5.5 -23t-11.5 -21t-27.5 -21t-47 -20z" />
    <glyph glyph-name="Atilde" unicode="&#xc3;" horiz-adv-x="682" 
d="M341 738q10 -7 28 -24.5t48 -53.5t62.5 -96.5t55.5 -131.5l85 -263q44 -138 62 -165q-33 -11 -56 -11q-32 0 -55.5 11.5t-39.5 36.5t-24 44t-20 55l-3 9l-17 53h-252l-17 -53q-28 -84 -49 -112q-34 -44 -93 -44q-10 0 -24 3t-23 6l-9 2q18 27 62 165l85 263
q23 71 55.5 131.5t62.5 96.5t48 53.5t28 24.5zM341 575q-29 -46 -66 -169l-31 -104h194l-31 104q-11 37 -27.5 79.5t-27.5 66.5zM199 792q-22 29 -4.5 72.5t59.5 43.5q26 0 90 -23t94 -23q31 0 49 26q21 -32 6 -74.5t-61 -42.5q-27 0 -90.5 23t-92.5 23q-32 0 -50 -25z" />
    <glyph glyph-name="Adieresis" unicode="&#xc4;" horiz-adv-x="682" 
d="M341 738q10 -7 28 -24.5t48 -53.5t62.5 -96.5t55.5 -131.5l85 -263q44 -138 62 -165q-33 -11 -56 -11q-32 0 -55.5 11.5t-39.5 36.5t-24 44t-20 55l-3 9l-17 53h-252l-17 -53q-28 -84 -49 -112q-34 -44 -93 -44q-10 0 -24 3t-23 6l-9 2q18 27 62 165l85 263
q23 71 55.5 131.5t62.5 96.5t48 53.5t28 24.5zM341 575q-29 -46 -66 -169l-31 -104h194l-31 104q-11 37 -27.5 79.5t-27.5 66.5zM373 808v84h80q15 0 25 -9.5t10 -19.5v-83h-80q-16 0 -25.5 8.5t-9.5 19.5zM194 808v84h80q15 0 25 -9.5t10 -19.5v-83h-80q-16 0 -25.5 8.5
t-9.5 19.5z" />
    <glyph glyph-name="Aring" unicode="&#xc5;" horiz-adv-x="682" 
d="M341 738q10 -7 28 -24.5t48 -53.5t62.5 -96.5t55.5 -131.5l85 -263q44 -138 62 -165q-33 -11 -56 -11q-32 0 -55.5 11.5t-39.5 36.5t-24 44t-20 55l-3 9l-17 53h-252l-17 -53q-28 -84 -49 -112q-34 -44 -93 -44q-10 0 -24 3t-23 6l-9 2q18 27 62 165l85 263
q23 71 55.5 131.5t62.5 96.5t48 53.5t28 24.5zM341 575q-29 -46 -66 -169l-31 -104h194l-31 104q-11 37 -27.5 79.5t-27.5 66.5zM375 841v26q0 24 -35 24q-20 0 -26.5 -6t-6.5 -18v-26q0 -12 6.5 -17.5t26.5 -5.5q35 0 35 23zM443 878v-48q0 -31 -27.5 -48t-74.5 -17
t-74.5 17t-27.5 48v48q0 30 28 48t74 18q47 0 74.5 -17.5t27.5 -48.5z" />
    <glyph glyph-name="AE" unicode="&#xc6;" horiz-adv-x="854" 
d="M684 332h-172v-233h307q0 -8 -2 -19t-8 -32t-23 -34.5t-42 -13.5h-257q-4 0 -11.5 0.5t-26.5 4t-33 9.5t-26 19.5t-12 31.5v143h-166l-16 -54q-1 -3 -6.5 -21.5t-7 -23l-7 -21t-9 -22t-10.5 -19t-13 -18.5l-16 -14t-20 -12.5t-23 -6.5t-28 -3q-10 0 -24 3t-23 6l-9 2
q19 34 63 177l81 260q32 102 84 173t100 101h491q0 -4 -0.5 -10.5t-4.5 -24t-11 -30.5t-22.5 -23.5t-36.5 -10.5h-232v-185h156q38 0 66 4t36 8l9 4q0 -115 -95 -115zM271 407q-5 -19 -15 -51l-15 -49h137v305q-64 -54 -107 -205z" />
    <glyph glyph-name="Ccedilla" unicode="&#xc7;" horiz-adv-x="690" 
d="M289 -103q4 18 10 36l20 57q-115 10 -187 69.5t-72 174.5v247q0 127 86.5 186.5t219.5 59.5q52 0 99 -7t87.5 -23.5t64 -41.5t23.5 -64t-29 -87q-17 63 -88 91t-157 28q-172 0 -172 -156v-218q0 -158 172 -158q208 0 245 120q29 -57 24.5 -98t-42.5 -68t-88.5 -40.5
t-112.5 -15.5l-3 -26l20 -2q43 -5 68 -30t25 -67q0 -44 -34.5 -71t-81.5 -27q-36 0 -59.5 17t-29.5 32.5t-6 27.5q26 -13 63 -13q23 0 38.5 10t15.5 30q0 38 -61 38q-14 0 -28.5 -3t-22.5 -5z" />
    <glyph glyph-name="Egrave" unicode="&#xc8;" horiz-adv-x="596" 
d="M426 332h-222v-233h357q0 -8 -2 -19t-8 -32t-23 -34.5t-42 -13.5h-307q-4 0 -11.5 0.5t-26.5 4t-33 9.5t-26 19.5t-12 31.5v650h491q0 -4 -0.5 -10.5t-4.5 -24t-11 -30.5t-22.5 -23.5t-36.5 -10.5h-282v-185h206q38 0 66 4t36 8l9 4q0 -115 -95 -115zM298 966
q-12 -21 0.5 -43t50.5 -60l33 -33q12 -13 10.5 -24t-13 -19t-24.5 -13.5t-23 -8.5l-11 -3l-59 44q-39 29 -48 64t13.5 62.5t70.5 33.5z" />
    <glyph glyph-name="Eacute" unicode="&#xc9;" horiz-adv-x="596" 
d="M426 332h-222v-233h357q0 -8 -2 -19t-8 -32t-23 -34.5t-42 -13.5h-307q-4 0 -11.5 0.5t-26.5 4t-33 9.5t-26 19.5t-12 31.5v650h491q0 -4 -0.5 -10.5t-4.5 -24t-11 -30.5t-22.5 -23.5t-36.5 -10.5h-282v-185h206q38 0 66 4t36 8l9 4q0 -115 -95 -115zM353 966
q48 -6 70.5 -33.5t13.5 -62.5t-48 -64l-59 -44l-38 13q-54 24 -23 55l33 33q38 38 50.5 60t0.5 43z" />
    <glyph glyph-name="Ecircumflex" unicode="&#xca;" horiz-adv-x="596" 
d="M426 332h-222v-233h357q0 -8 -2 -19t-8 -32t-23 -34.5t-42 -13.5h-307q-4 0 -11.5 0.5t-26.5 4t-33 9.5t-26 19.5t-12 31.5v650h491q0 -4 -0.5 -10.5t-4.5 -24t-11 -30.5t-22.5 -23.5t-36.5 -10.5h-282v-185h206q38 0 66 4t36 8l9 4q0 -115 -95 -115zM390 765
q13 20 -3 47.5t-38 45.5l-23 17q-2 -1 -5 -3.5l-12.5 -10.5t-16.5 -15t-16.5 -18.5t-12.5 -20.5t-5.5 -21t5.5 -21q-28 10 -47 20t-27.5 21t-11.5 21t5.5 23t18.5 24t31.5 27.5t41.5 30l52 34.5l52 -34t42 -29.5t32 -28t18.5 -24.5t5.5 -23t-11.5 -21t-27.5 -21t-47 -20z
" />
    <glyph glyph-name="Edieresis" unicode="&#xcb;" horiz-adv-x="596" 
d="M426 332h-222v-233h357q0 -8 -2 -19t-8 -32t-23 -34.5t-42 -13.5h-307q-4 0 -11.5 0.5t-26.5 4t-33 9.5t-26 19.5t-12 31.5v650h491q0 -4 -0.5 -10.5t-4.5 -24t-11 -30.5t-22.5 -23.5t-36.5 -10.5h-282v-185h206q38 0 66 4t36 8l9 4q0 -115 -95 -115zM358 808v84h80
q15 0 25 -9.5t10 -19.5v-83h-80q-16 0 -25.5 8.5t-9.5 19.5zM179 808v84h80q15 0 25 -9.5t10 -19.5v-83h-80q-16 0 -25.5 8.5t-9.5 19.5z" />
    <glyph glyph-name="Igrave" unicode="&#xcc;" horiz-adv-x="274" 
d="M70 55v670q5 0 14.5 -0.5t32.5 -4t40.5 -9.5t32 -19.5t14.5 -31.5v-670q-5 0 -14.5 0.5t-32.5 4t-40.5 9.5t-32 19.5t-14.5 31.5zM109 966q-12 -21 0.5 -43t50.5 -60l33 -33q12 -13 10.5 -24t-13 -19t-24.5 -13.5t-23 -8.5l-11 -3l-59 44q-39 29 -48 64t13.5 62.5
t70.5 33.5z" />
    <glyph glyph-name="Iacute" unicode="&#xcd;" horiz-adv-x="274" 
d="M70 55v670q5 0 14.5 -0.5t32.5 -4t40.5 -9.5t32 -19.5t14.5 -31.5v-670q-5 0 -14.5 0.5t-32.5 4t-40.5 9.5t-32 19.5t-14.5 31.5zM164 966q48 -6 70.5 -33.5t13.5 -62.5t-48 -64l-59 -44l-38 13q-54 24 -23 55l33 33q38 38 50.5 60t0.5 43z" />
    <glyph glyph-name="Icircumflex" unicode="&#xce;" horiz-adv-x="274" 
d="M70 55v670q5 0 14.5 -0.5t32.5 -4t40.5 -9.5t32 -19.5t14.5 -31.5v-670q-5 0 -14.5 0.5t-32.5 4t-40.5 9.5t-32 19.5t-14.5 31.5zM201 765q13 20 -3 47.5t-38 45.5l-23 17q-2 -1 -5 -3.5l-12.5 -10.5t-16.5 -15t-16.5 -18.5t-12.5 -20.5t-5.5 -21t5.5 -21q-28 10 -47 20
t-27.5 21t-11.5 21t5.5 23t18.5 24t31.5 27.5t41.5 30l52 34.5l52 -34t42 -29.5t32 -28t18.5 -24.5t5.5 -23t-11.5 -21t-27.5 -21t-47 -20z" />
    <glyph glyph-name="Idieresis" unicode="&#xcf;" horiz-adv-x="274" 
d="M70 55v670q5 0 14.5 -0.5t32.5 -4t40.5 -9.5t32 -19.5t14.5 -31.5v-670q-5 0 -14.5 0.5t-32.5 4t-40.5 9.5t-32 19.5t-14.5 31.5zM169 808v84h80q15 0 25 -9.5t10 -19.5v-83h-80q-16 0 -25.5 8.5t-9.5 19.5zM-10 808v84h80q15 0 25 -9.5t10 -19.5v-83h-80
q-16 0 -25.5 8.5t-9.5 19.5z" />
    <glyph glyph-name="Eth" unicode="&#xd0;" horiz-adv-x="731" 
d="M52 404h18v311h290q64 0 116.5 -12t98 -38.5t71 -76t25.5 -119.5v-223q0 -70 -25.5 -119.5t-71 -76t-98 -38.5t-116.5 -12h-183q-9 0 -22 1.5t-34.5 7t-36 20.5t-14.5 36v243h-68q-1 4 -2 10.5t-0.5 23t4.5 29t16 23t32 10.5zM360 616h-156v-212h162q1 -4 2 -10.5t1 -23
t-4 -29t-16 -23t-32 -10.5h-113v-209h156q177 0 177 157v204q0 156 -177 156z" />
    <glyph glyph-name="Ntilde" unicode="&#xd1;" horiz-adv-x="736" 
d="M251 658l293 -459q-12 57 -12 106v410q5 0 14.5 -0.5t32.5 -4t40.5 -9.5t32 -19.5t14.5 -31.5v-660q-42 0 -76.5 7.5t-53 18t-31.5 21t-17 17.5l-4 8l-291 462q11 -57 11 -106v-428q-5 0 -14.5 0.5t-32.5 4t-40.5 9.5t-32 19.5t-14.5 31.5v660q52 0 77.5 -2t56.5 -15
t47 -40zM227 792q-22 29 -4.5 72.5t59.5 43.5q26 0 90 -23t94 -23q31 0 49 26q21 -32 6 -74.5t-61 -42.5q-27 0 -90.5 23t-92.5 23q-32 0 -50 -25z" />
    <glyph glyph-name="Ograve" unicode="&#xd2;" 
d="M662 490v-265q0 -114 -75 -175.5t-226 -61.5t-226 61.5t-75 175.5v265q0 114 75 175.5t226 61.5t226 -61.5t75 -175.5zM528 238v239q0 78 -34.5 114.5t-133.5 36.5q-98 0 -132 -36.5t-34 -114.5v-239q0 -78 34 -114.5t132 -36.5q99 0 133.5 36.5t34.5 114.5zM334 966
q-12 -21 0.5 -43t50.5 -60l33 -33q12 -13 10.5 -24t-13 -19t-24.5 -13.5t-23 -8.5l-11 -3l-59 44q-39 29 -48 64t13.5 62.5t70.5 33.5z" />
    <glyph glyph-name="Oacute" unicode="&#xd3;" 
d="M662 490v-265q0 -114 -75 -175.5t-226 -61.5t-226 61.5t-75 175.5v265q0 114 75 175.5t226 61.5t226 -61.5t75 -175.5zM528 238v239q0 78 -34.5 114.5t-133.5 36.5q-98 0 -132 -36.5t-34 -114.5v-239q0 -78 34 -114.5t132 -36.5q99 0 133.5 36.5t34.5 114.5zM389 966
q48 -6 70.5 -33.5t13.5 -62.5t-48 -64l-59 -44l-38 13q-54 24 -23 55l33 33q38 38 50.5 60t0.5 43z" />
    <glyph glyph-name="Ocircumflex" unicode="&#xd4;" 
d="M662 490v-265q0 -114 -75 -175.5t-226 -61.5t-226 61.5t-75 175.5v265q0 114 75 175.5t226 61.5t226 -61.5t75 -175.5zM528 238v239q0 78 -34.5 114.5t-133.5 36.5q-98 0 -132 -36.5t-34 -114.5v-239q0 -78 34 -114.5t132 -36.5q99 0 133.5 36.5t34.5 114.5zM426 765
q13 20 -3 47.5t-38 45.5l-23 17q-2 -1 -5 -3.5l-12.5 -10.5t-16.5 -15t-16.5 -18.5t-12.5 -20.5t-5.5 -21t5.5 -21q-28 10 -47 20t-27.5 21t-11.5 21t5.5 23t18.5 24t31.5 27.5t41.5 30l52 34.5l52 -34t42 -29.5t32 -28t18.5 -24.5t5.5 -23t-11.5 -21t-27.5 -21t-47 -20z
" />
    <glyph glyph-name="Otilde" unicode="&#xd5;" 
d="M662 490v-265q0 -114 -75 -175.5t-226 -61.5t-226 61.5t-75 175.5v265q0 114 75 175.5t226 61.5t226 -61.5t75 -175.5zM528 238v239q0 78 -34.5 114.5t-133.5 36.5q-98 0 -132 -36.5t-34 -114.5v-239q0 -78 34 -114.5t132 -36.5q99 0 133.5 36.5t34.5 114.5zM220 792
q-22 29 -4.5 72.5t59.5 43.5q26 0 90 -23t94 -23q31 0 49 26q21 -32 6 -74.5t-61 -42.5q-27 0 -90.5 23t-92.5 23q-32 0 -50 -25z" />
    <glyph glyph-name="Odieresis" unicode="&#xd6;" 
d="M662 490v-265q0 -114 -75 -175.5t-226 -61.5t-226 61.5t-75 175.5v265q0 114 75 175.5t226 61.5t226 -61.5t75 -175.5zM528 238v239q0 78 -34.5 114.5t-133.5 36.5q-98 0 -132 -36.5t-34 -114.5v-239q0 -78 34 -114.5t132 -36.5q99 0 133.5 36.5t34.5 114.5zM394 808v84
h80q15 0 25 -9.5t10 -19.5v-83h-80q-16 0 -25.5 8.5t-9.5 19.5zM215 808v84h80q15 0 25 -9.5t10 -19.5v-83h-80q-16 0 -25.5 8.5t-9.5 19.5z" />
    <glyph glyph-name="multiply" unicode="&#xd7;" horiz-adv-x="481" 
d="M300 132l-61 61l-97 -98l-10 7.5t-20 18t-22 26t-8.5 29.5t12.5 31l65 66l-99 97q2 4 6.5 10t18 19.5t27 21t32 6t35.5 -17.5l59 -57l98 98q4 -2 10 -6.5t20 -17.5t22 -25.5t8.5 -29t-12.5 -30.5l-66 -67l103 -103l-7.5 -10t-18.5 -19.5t-28 -21t-32.5 -6t-34.5 17.5z
" />
    <glyph glyph-name="Oslash" unicode="&#xd8;" 
d="M662 490v-265q0 -114 -75 -175.5t-226 -61.5q-146 0 -222 59l-54 -62q-2 2 -6 5t-12.5 12.5t-13 19.5t-3 24t12.5 27l26 30q-29 49 -29 122v265q0 114 75 175.5t226 61.5q143 0 221 -58l51 59q2 -2 6 -5t12.5 -13t12.5 -20t2.5 -24.5t-12.5 -27.5l-22 -26q30 -51 30 -122
zM528 238v239v16l-311 -357q34 -49 143 -49q99 0 133.5 36.5t34.5 114.5zM194 238v-15l310 356q-35 49 -144 49q-98 0 -132 -36.5t-34 -114.5v-239z" />
    <glyph glyph-name="Ugrave" unicode="&#xd9;" 
d="M662 660v-446q0 -108 -86.5 -167t-214.5 -59t-214.5 59t-86.5 167v511q5 0 14.5 -0.5t32.5 -4t40.5 -9.5t32 -19.5t14.5 -31.5v-431q0 -66 45.5 -101.5t121.5 -35.5t121.5 35.5t45.5 101.5v496q5 0 14.5 -0.5t32.5 -4t40.5 -9.5t32 -19.5t14.5 -31.5zM334 966
q-12 -21 0.5 -43t50.5 -60l33 -33q12 -13 10.5 -24t-13 -19t-24.5 -13.5t-23 -8.5l-11 -3l-59 44q-39 29 -48 64t13.5 62.5t70.5 33.5z" />
    <glyph glyph-name="Uacute" unicode="&#xda;" 
d="M662 660v-446q0 -108 -86.5 -167t-214.5 -59t-214.5 59t-86.5 167v511q5 0 14.5 -0.5t32.5 -4t40.5 -9.5t32 -19.5t14.5 -31.5v-431q0 -66 45.5 -101.5t121.5 -35.5t121.5 35.5t45.5 101.5v496q5 0 14.5 -0.5t32.5 -4t40.5 -9.5t32 -19.5t14.5 -31.5zM389 966
q48 -6 70.5 -33.5t13.5 -62.5t-48 -64l-59 -44l-38 13q-54 24 -23 55l33 33q38 38 50.5 60t0.5 43z" />
    <glyph glyph-name="Ucircumflex" unicode="&#xdb;" 
d="M662 660v-446q0 -108 -86.5 -167t-214.5 -59t-214.5 59t-86.5 167v511q5 0 14.5 -0.5t32.5 -4t40.5 -9.5t32 -19.5t14.5 -31.5v-431q0 -66 45.5 -101.5t121.5 -35.5t121.5 35.5t45.5 101.5v496q5 0 14.5 -0.5t32.5 -4t40.5 -9.5t32 -19.5t14.5 -31.5zM426 765
q13 20 -3 47.5t-38 45.5l-23 17q-2 -1 -5 -3.5l-12.5 -10.5t-16.5 -15t-16.5 -18.5t-12.5 -20.5t-5.5 -21t5.5 -21q-28 10 -47 20t-27.5 21t-11.5 21t5.5 23t18.5 24t31.5 27.5t41.5 30l52 34.5l52 -34t42 -29.5t32 -28t18.5 -24.5t5.5 -23t-11.5 -21t-27.5 -21t-47 -20z
" />
    <glyph glyph-name="Udieresis" unicode="&#xdc;" 
d="M662 660v-446q0 -108 -86.5 -167t-214.5 -59t-214.5 59t-86.5 167v511q5 0 14.5 -0.5t32.5 -4t40.5 -9.5t32 -19.5t14.5 -31.5v-431q0 -66 45.5 -101.5t121.5 -35.5t121.5 35.5t45.5 101.5v496q5 0 14.5 -0.5t32.5 -4t40.5 -9.5t32 -19.5t14.5 -31.5zM394 808v84h80
q15 0 25 -9.5t10 -19.5v-83h-80q-16 0 -25.5 8.5t-9.5 19.5zM215 808v84h80q15 0 25 -9.5t10 -19.5v-83h-80q-16 0 -25.5 8.5t-9.5 19.5z" />
    <glyph glyph-name="Yacute" unicode="&#xdd;" horiz-adv-x="624" 
d="M245 55v243q-53 53 -93 123.5t-78.5 155t-71.5 135.5q36 9 61 9q81 0 113 -65l46 -93q63 -129 90 -163q11 14 23 35t19.5 36l23 45.5l21.5 42.5l49 97q33 65 113 65q9 0 24.5 -2.5t26.5 -4.5l10 -3q-28 -46 -69 -133.5t-82 -157.5t-92 -122v-308q-5 0 -14.5 0.5t-32.5 4
t-40.5 9.5t-32 19.5t-14.5 31.5zM339 966q48 -6 70.5 -33.5t13.5 -62.5t-48 -64l-59 -44l-38 13q-54 24 -23 55l33 33q38 38 50.5 60t0.5 43z" />
    <glyph glyph-name="Thorn" unicode="&#xde;" horiz-adv-x="611" 
d="M70 55v709q5 0 14.5 -0.5t32.5 -4t40.5 -9.5t32 -19.5t14.5 -31.5v-61h67q51 0 93 -5.5t82 -21.5t66.5 -41.5t43 -67t16.5 -97.5v-18q0 -235 -301 -235h-67v-162q-5 0 -14.5 0.5t-32.5 4t-40.5 9.5t-32 19.5t-14.5 31.5zM271 539h-67v-288h67q84 0 125.5 28.5t41.5 116.5
q0 82 -42.5 112.5t-124.5 30.5z" />
    <glyph glyph-name="germandbls" unicode="&#xdf;" horiz-adv-x="667" 
d="M323 668q-62 0 -97.5 -34.5t-35.5 -94.5v-549q-5 0 -14 0.5t-31.5 4t-39.5 9.5t-31 19.5t-14 31.5v504q0 91 79.5 148.5t180.5 57.5q110 0 177.5 -39t67.5 -121q0 -40 -24.5 -74t-53.5 -53t-53.5 -43t-24.5 -46q0 -20 17.5 -32.5t44 -18t57.5 -17t57.5 -27t44 -51.5
t17.5 -87q0 -77 -59 -122.5t-172 -45.5q-57 0 -107.5 25t-66 69.5t42.5 107.5q-7 -45 37.5 -73.5t93.5 -28.5q58 0 79.5 19t21.5 54q0 30 -24 49t-58.5 29.5t-68.5 23.5t-58 41t-24 72q0 37 24 71.5t52 56.5t52 46t24 41q0 39 -31 58t-82 19z" />
    <glyph glyph-name="agrave" unicode="&#xe0;" horiz-adv-x="534" 
d="M354 97v163q-7 -17 -38 -27.5t-62.5 -15.5t-57 -22.5t-25.5 -47.5q0 -68 90 -68q24 0 47 4.5t34 8.5zM42 145q0 52 28 86t69.5 49t84.5 24.5t79.5 23t47.5 34.5q0 68 -97 68q-70 0 -115 -27t-45 -86q-38 51 -38 97q0 41 34 67.5t76 36t89 9.5q110 0 167.5 -44.5
t57.5 -126.5v-366q-32 16 -77 16q-24 0 -76 -9t-81 -9q-56 0 -99.5 13.5t-74 50.5t-30.5 93zM237 782q-12 -21 0.5 -43t50.5 -60l33 -33q12 -13 10.5 -24t-13 -19t-24.5 -13.5t-23 -8.5l-11 -3l-59 44q-39 29 -48 64t13.5 62.5t70.5 33.5z" />
    <glyph glyph-name="aacute" unicode="&#xe1;" horiz-adv-x="534" 
d="M354 97v163q-7 -17 -38 -27.5t-62.5 -15.5t-57 -22.5t-25.5 -47.5q0 -68 90 -68q24 0 47 4.5t34 8.5zM42 145q0 52 28 86t69.5 49t84.5 24.5t79.5 23t47.5 34.5q0 68 -97 68q-70 0 -115 -27t-45 -86q-38 51 -38 97q0 41 34 67.5t76 36t89 9.5q110 0 167.5 -44.5
t57.5 -126.5v-366q-32 16 -77 16q-24 0 -76 -9t-81 -9q-56 0 -99.5 13.5t-74 50.5t-30.5 93zM292 782q48 -6 70.5 -33.5t13.5 -62.5t-48 -64l-59 -44l-38 13q-54 24 -23 55l33 33q38 38 50.5 60t0.5 43z" />
    <glyph glyph-name="acircumflex" unicode="&#xe2;" horiz-adv-x="534" 
d="M354 97v163q-7 -17 -38 -27.5t-62.5 -15.5t-57 -22.5t-25.5 -47.5q0 -68 90 -68q24 0 47 4.5t34 8.5zM42 145q0 52 28 86t69.5 49t84.5 24.5t79.5 23t47.5 34.5q0 68 -97 68q-70 0 -115 -27t-45 -86q-38 51 -38 97q0 41 34 67.5t76 36t89 9.5q110 0 167.5 -44.5
t57.5 -126.5v-366q-32 16 -77 16q-24 0 -76 -9t-81 -9q-56 0 -99.5 13.5t-74 50.5t-30.5 93zM329 581q13 20 -3 47.5t-38 45.5l-23 17q-2 -1 -5 -3.5l-12.5 -10.5t-16.5 -15t-16.5 -18.5t-12.5 -20.5t-5.5 -21t5.5 -21q-28 10 -47 20t-27.5 21t-11.5 21t5.5 23t18.5 24
t31.5 27.5t41.5 30l52 34.5l52 -34t42 -29.5t32 -28t18.5 -24.5t5.5 -23t-11.5 -21t-27.5 -21t-47 -20z" />
    <glyph glyph-name="atilde" unicode="&#xe3;" horiz-adv-x="534" 
d="M354 97v163q-7 -17 -38 -27.5t-62.5 -15.5t-57 -22.5t-25.5 -47.5q0 -68 90 -68q24 0 47 4.5t34 8.5zM42 145q0 52 28 86t69.5 49t84.5 24.5t79.5 23t47.5 34.5q0 68 -97 68q-70 0 -115 -27t-45 -86q-38 51 -38 97q0 41 34 67.5t76 36t89 9.5q110 0 167.5 -44.5
t57.5 -126.5v-366q-32 16 -77 16q-24 0 -76 -9t-81 -9q-56 0 -99.5 13.5t-74 50.5t-30.5 93zM123 608q-22 29 -4.5 72.5t59.5 43.5q26 0 90 -23t94 -23q31 0 49 26q21 -32 6 -74.5t-61 -42.5q-27 0 -90.5 23t-92.5 23q-32 0 -50 -25z" />
    <glyph glyph-name="adieresis" unicode="&#xe4;" horiz-adv-x="534" 
d="M354 97v163q-7 -17 -38 -27.5t-62.5 -15.5t-57 -22.5t-25.5 -47.5q0 -68 90 -68q24 0 47 4.5t34 8.5zM42 145q0 52 28 86t69.5 49t84.5 24.5t79.5 23t47.5 34.5q0 68 -97 68q-70 0 -115 -27t-45 -86q-38 51 -38 97q0 41 34 67.5t76 36t89 9.5q110 0 167.5 -44.5
t57.5 -126.5v-366q-32 16 -77 16q-24 0 -76 -9t-81 -9q-56 0 -99.5 13.5t-74 50.5t-30.5 93zM297 624v84h80q15 0 25 -9.5t10 -19.5v-83h-80q-16 0 -25.5 8.5t-9.5 19.5zM118 624v84h80q15 0 25 -9.5t10 -19.5v-83h-80q-16 0 -25.5 8.5t-9.5 19.5z" />
    <glyph glyph-name="aring" unicode="&#xe5;" horiz-adv-x="534" 
d="M354 97v163q-7 -17 -38 -27.5t-62.5 -15.5t-57 -22.5t-25.5 -47.5q0 -68 90 -68q24 0 47 4.5t34 8.5zM42 145q0 52 28 86t69.5 49t84.5 24.5t79.5 23t47.5 34.5q0 68 -97 68q-70 0 -115 -27t-45 -86q-38 51 -38 97q0 41 34 67.5t76 36t89 9.5q110 0 167.5 -44.5
t57.5 -126.5v-366q-32 16 -77 16q-24 0 -76 -9t-81 -9q-56 0 -99.5 13.5t-74 50.5t-30.5 93zM299 657v26q0 24 -35 24q-20 0 -26.5 -6t-6.5 -18v-26q0 -12 6.5 -17.5t26.5 -5.5q35 0 35 23zM367 694v-48q0 -31 -27.5 -48t-74.5 -17t-74.5 17t-27.5 48v48q0 30 28 48t74 18
q47 0 74.5 -17.5t27.5 -48.5z" />
    <glyph glyph-name="ae" unicode="&#xe6;" horiz-adv-x="830" 
d="M592 -12q-44 0 -79 7.5t-54 17.5t-31.5 20.5t-16.5 18.5l-4 7l-5 -7.5t-16.5 -17t-30.5 -22t-46.5 -17t-63.5 -7.5q-41 0 -76 8t-65 25.5t-47 49t-17 74.5q0 34 12.5 60.5t29.5 42t48 29t53 20t59 14.5q93 20 107 51q0 67 -97 67q-69 0 -114.5 -28.5t-45.5 -87.5
q-38 56 -38 101q0 41 34.5 67.5t76.5 36t88 9.5q105 0 163 -41q56 41 156 41q104 0 157.5 -44.5t53.5 -121.5q0 -72 -49 -118t-159 -46q-49 0 -94 18v-36q0 -91 111 -91q74 0 120 28.5t47 73.5q31 -44 31 -82q0 -54 -55.5 -87t-142.5 -33zM259 82q30 0 50.5 10.5t28.5 28
t10.5 29.5t2.5 24v75q-11 -13 -43 -23t-61.5 -16t-53 -23t-23.5 -43q0 -62 89 -62zM481 336v-29q45 -9 75 -9q97 0 97 63q0 71 -85 71q-49 0 -68 -23.5t-19 -72.5z" />
    <glyph glyph-name="ccedilla" unicode="&#xe7;" horiz-adv-x="509" 
d="M205 -103q4 18 10 36l21 58q-87 9 -136 54t-49 119v187q0 82 59.5 129t166.5 47q44 0 84.5 -9.5t73 -37t32.5 -68.5q0 -43 -39 -99q0 57 -38 86.5t-90 29.5q-59 0 -89.5 -22.5t-30.5 -81.5v-135q0 -54 28.5 -78.5t88.5 -24.5q65 0 108 29t44 73q31 -46 31 -82
q0 -49 -47.5 -81t-124.5 -37l-3 -26l20 -2q43 -5 68 -30t25 -67q0 -44 -34.5 -71t-81.5 -27q-36 0 -59.5 17t-29.5 32.5t-6 27.5q26 -13 63 -13q23 0 38.5 10t15.5 30q0 38 -61 38q-14 0 -28.5 -3t-22.5 -5z" />
    <glyph glyph-name="egrave" unicode="&#xe8;" horiz-adv-x="529" 
d="M180 336v-29q45 -9 75 -9q97 0 97 63q0 71 -85 71q-49 0 -68 -23.5t-19 -72.5zM291 -12q-114 0 -177.5 46.5t-63.5 129.5v187q0 83 57.5 129.5t163.5 46.5q104 0 157.5 -44.5t53.5 -121.5q0 -72 -49 -118t-159 -46q-49 0 -94 18v-36q0 -91 111 -91q74 0 120 28.5t47 73.5
q31 -44 31 -82q0 -54 -55.5 -87t-142.5 -33zM242 782q-12 -21 0.5 -43t50.5 -60l33 -33q12 -13 10.5 -24t-13 -19t-24.5 -13.5t-23 -8.5l-11 -3l-59 44q-39 29 -48 64t13.5 62.5t70.5 33.5z" />
    <glyph glyph-name="eacute" unicode="&#xe9;" horiz-adv-x="529" 
d="M180 336v-29q45 -9 75 -9q97 0 97 63q0 71 -85 71q-49 0 -68 -23.5t-19 -72.5zM291 -12q-114 0 -177.5 46.5t-63.5 129.5v187q0 83 57.5 129.5t163.5 46.5q104 0 157.5 -44.5t53.5 -121.5q0 -72 -49 -118t-159 -46q-49 0 -94 18v-36q0 -91 111 -91q74 0 120 28.5t47 73.5
q31 -44 31 -82q0 -54 -55.5 -87t-142.5 -33zM297 782q48 -6 70.5 -33.5t13.5 -62.5t-48 -64l-59 -44l-38 13q-54 24 -23 55l33 33q38 38 50.5 60t0.5 43z" />
    <glyph glyph-name="ecircumflex" unicode="&#xea;" horiz-adv-x="529" 
d="M180 336v-29q45 -9 75 -9q97 0 97 63q0 71 -85 71q-49 0 -68 -23.5t-19 -72.5zM291 -12q-114 0 -177.5 46.5t-63.5 129.5v187q0 83 57.5 129.5t163.5 46.5q104 0 157.5 -44.5t53.5 -121.5q0 -72 -49 -118t-159 -46q-49 0 -94 18v-36q0 -91 111 -91q74 0 120 28.5t47 73.5
q31 -44 31 -82q0 -54 -55.5 -87t-142.5 -33zM334 581q13 20 -3 47.5t-38 45.5l-23 17q-2 -1 -5 -3.5l-12.5 -10.5t-16.5 -15t-16.5 -18.5t-12.5 -20.5t-5.5 -21t5.5 -21q-28 10 -47 20t-27.5 21t-11.5 21t5.5 23t18.5 24t31.5 27.5t41.5 30l52 34.5l52 -34t42 -29.5t32 -28
t18.5 -24.5t5.5 -23t-11.5 -21t-27.5 -21t-47 -20z" />
    <glyph glyph-name="edieresis" unicode="&#xeb;" horiz-adv-x="529" 
d="M180 336v-29q45 -9 75 -9q97 0 97 63q0 71 -85 71q-49 0 -68 -23.5t-19 -72.5zM291 -12q-114 0 -177.5 46.5t-63.5 129.5v187q0 83 57.5 129.5t163.5 46.5q104 0 157.5 -44.5t53.5 -121.5q0 -72 -49 -118t-159 -46q-49 0 -94 18v-36q0 -91 111 -91q74 0 120 28.5t47 73.5
q31 -44 31 -82q0 -54 -55.5 -87t-142.5 -33zM302 624v84h80q15 0 25 -9.5t10 -19.5v-83h-80q-16 0 -25.5 8.5t-9.5 19.5zM123 624v84h80q15 0 25 -9.5t10 -19.5v-83h-80q-16 0 -25.5 8.5t-9.5 19.5z" />
    <glyph glyph-name="igrave" unicode="&#xec;" horiz-adv-x="250" 
d="M60 58v464q10 0 24.5 -1.5t42 -6.5t45.5 -20t18 -37v-464q-5 0 -14 0.5t-31.5 4t-39.5 9.5t-31 19.5t-14 31.5zM97 782q-12 -21 0.5 -43t50.5 -60l33 -33q12 -13 10.5 -24t-13 -19t-24.5 -13.5t-23 -8.5l-11 -3l-59 44q-39 29 -48 64t13.5 62.5t70.5 33.5z" />
    <glyph glyph-name="iacute" unicode="&#xed;" horiz-adv-x="250" 
d="M60 58v464q10 0 24.5 -1.5t42 -6.5t45.5 -20t18 -37v-464q-5 0 -14 0.5t-31.5 4t-39.5 9.5t-31 19.5t-14 31.5zM152 782q48 -6 70.5 -33.5t13.5 -62.5t-48 -64l-59 -44l-38 13q-54 24 -23 55l33 33q38 38 50.5 60t0.5 43z" />
    <glyph glyph-name="icircumflex" unicode="&#xee;" horiz-adv-x="250" 
d="M60 58v464q10 0 24.5 -1.5t42 -6.5t45.5 -20t18 -37v-464q-5 0 -14 0.5t-31.5 4t-39.5 9.5t-31 19.5t-14 31.5zM189 581q13 20 -3 47.5t-38 45.5l-23 17q-2 -1 -5 -3.5l-12.5 -10.5t-16.5 -15t-16.5 -18.5t-12.5 -20.5t-5.5 -21t5.5 -21q-28 10 -47 20t-27.5 21t-11.5 21
t5.5 23t18.5 24t31.5 27.5t41.5 30l52 34.5l52 -34t42 -29.5t32 -28t18.5 -24.5t5.5 -23t-11.5 -21t-27.5 -21t-47 -20z" />
    <glyph glyph-name="idieresis" unicode="&#xef;" horiz-adv-x="250" 
d="M60 58v464q10 0 24.5 -1.5t42 -6.5t45.5 -20t18 -37v-464q-5 0 -14 0.5t-31.5 4t-39.5 9.5t-31 19.5t-14 31.5zM157 624v84h80q15 0 25 -9.5t10 -19.5v-83h-80q-16 0 -25.5 8.5t-9.5 19.5zM-22 624v84h80q15 0 25 -9.5t10 -19.5v-83h-80q-16 0 -25.5 8.5t-9.5 19.5z" />
    <glyph glyph-name="eth" unicode="&#xf0;" horiz-adv-x="583" 
d="M50 164v187q0 82 59.5 129t170.5 47q38 0 71 -8.5t42 -16.5q-16 61 -61 109l-122 -51q-36 66 1 82l53 22q-66 38 -133 36q6 35 29 53.5t54 18.5q87 0 165 -59l121 51q33 -69 -1 -83l-62 -26q96 -120 96 -291v-200q0 -84 -60.5 -130t-180.5 -46q-121 0 -181.5 46
t-60.5 130zM180 179q0 -50 23 -73.5t89 -23.5q65 0 88 23.5t23 73.5v175q0 36 -31 57t-84 21q-64 0 -86 -23t-22 -73v-157z" />
    <glyph glyph-name="ntilde" unicode="&#xf1;" horiz-adv-x="571" 
d="M381 58v289q0 41 -22.5 62t-73.5 21q-23 0 -46.5 -3.5t-36.5 -6.5l-12 -4v-423q-5 0 -14 0.5t-31.5 4t-39.5 9.5t-31 19.5t-14 31.5v469q39 -21 90 -21q24 0 72.5 10.5t76.5 10.5q90 0 151 -38t61 -127v-369q-5 0 -14 0.5t-31.5 4.5t-39.5 10t-31 19t-14 31zM140 608
q-22 29 -4.5 72.5t59.5 43.5q26 0 90 -23t94 -23q31 0 49 26q21 -32 6 -74.5t-61 -42.5q-27 0 -90.5 23t-92.5 23q-32 0 -50 -25z" />
    <glyph glyph-name="ograve" unicode="&#xf2;" horiz-adv-x="582" 
d="M532 351v-187q0 -84 -60 -130t-181 -46t-181 46t-60 130v187q0 84 60 130t181 46t181 -46t60 -130zM402 179v157q0 50 -23 73t-88 23t-88 -23t-23 -73v-157q0 -50 23 -73t88 -23t88 23t23 73zM263 782q-12 -21 0.5 -43t50.5 -60l33 -33q12 -13 10.5 -24t-13 -19
t-24.5 -13.5t-23 -8.5l-11 -3l-59 44q-39 29 -48 64t13.5 62.5t70.5 33.5z" />
    <glyph glyph-name="oacute" unicode="&#xf3;" horiz-adv-x="582" 
d="M532 351v-187q0 -84 -60 -130t-181 -46t-181 46t-60 130v187q0 84 60 130t181 46t181 -46t60 -130zM402 179v157q0 50 -23 73t-88 23t-88 -23t-23 -73v-157q0 -50 23 -73t88 -23t88 23t23 73zM318 782q48 -6 70.5 -33.5t13.5 -62.5t-48 -64l-59 -44l-38 13q-54 24 -23 55
l33 33q38 38 50.5 60t0.5 43z" />
    <glyph glyph-name="ocircumflex" unicode="&#xf4;" horiz-adv-x="582" 
d="M532 351v-187q0 -84 -60 -130t-181 -46t-181 46t-60 130v187q0 84 60 130t181 46t181 -46t60 -130zM402 179v157q0 50 -23 73t-88 23t-88 -23t-23 -73v-157q0 -50 23 -73t88 -23t88 23t23 73zM355 581q13 20 -3 47.5t-38 45.5l-23 17q-2 -1 -5 -3.5l-12.5 -10.5
t-16.5 -15t-16.5 -18.5t-12.5 -20.5t-5.5 -21t5.5 -21q-28 10 -47 20t-27.5 21t-11.5 21t5.5 23t18.5 24t31.5 27.5t41.5 30l52 34.5l52 -34t42 -29.5t32 -28t18.5 -24.5t5.5 -23t-11.5 -21t-27.5 -21t-47 -20z" />
    <glyph glyph-name="otilde" unicode="&#xf5;" horiz-adv-x="582" 
d="M532 351v-187q0 -84 -60 -130t-181 -46t-181 46t-60 130v187q0 84 60 130t181 46t181 -46t60 -130zM402 179v157q0 50 -23 73t-88 23t-88 -23t-23 -73v-157q0 -50 23 -73t88 -23t88 23t23 73zM149 608q-22 29 -4.5 72.5t59.5 43.5q26 0 90 -23t94 -23q31 0 49 26
q21 -32 6 -74.5t-61 -42.5q-27 0 -90.5 23t-92.5 23q-32 0 -50 -25z" />
    <glyph glyph-name="odieresis" unicode="&#xf6;" horiz-adv-x="582" 
d="M532 351v-187q0 -84 -60 -130t-181 -46t-181 46t-60 130v187q0 84 60 130t181 46t181 -46t60 -130zM402 179v157q0 50 -23 73t-88 23t-88 -23t-23 -73v-157q0 -50 23 -73t88 -23t88 23t23 73zM323 624v84h80q15 0 25 -9.5t10 -19.5v-83h-80q-16 0 -25.5 8.5t-9.5 19.5z
M144 624v84h80q15 0 25 -9.5t10 -19.5v-83h-80q-16 0 -25.5 8.5t-9.5 19.5z" />
    <glyph glyph-name="divide" unicode="&#xf7;" horiz-adv-x="521" 
d="M205 53v94h82q15 0 27 -9.5t12 -21.5v-94h-81q-16 0 -28 9t-12 22zM205 394v94h82q15 0 27 -9.5t12 -21.5v-94h-81q-16 0 -28 9t-12 22zM120 307h337q1 -4 2 -11t0.5 -24.5t-4.5 -31t-18 -24.5t-36 -11h-338q-1 4 -2 11t-0.5 24.5t5.5 31t18.5 24.5t35.5 11z" />
    <glyph glyph-name="oslash" unicode="&#xf8;" horiz-adv-x="582" 
d="M532 351v-187q0 -84 -60 -130t-181 -46q-123 0 -183 48l-53 -51q-2 2 -6 5t-11.5 12t-11.5 18t-1 22t15 25l24 23q-14 34 -14 74v187q0 84 60 130t181 46q117 0 178 -44l53 52q2 -2 6 -5.5t11.5 -13.5t11 -20t0.5 -24t-15 -26l-20 -19q16 -32 16 -76zM402 179v138
l-209 -200q23 -34 98 -34q65 0 88 23t23 73zM180 336v-134l205 200q-24 30 -94 30q-65 0 -88 -23t-23 -73z" />
    <glyph glyph-name="ugrave" unicode="&#xf9;" horiz-adv-x="571" 
d="M190 457v-289q0 -41 22.5 -62t73.5 -21q23 0 46.5 3.5t35.5 7.5l13 3v423q5 0 14 -0.5t31.5 -4t39.5 -9.5t31 -19.5t14 -31.5v-469q-39 21 -90 21q-24 0 -72.5 -10.5t-76.5 -10.5q-90 0 -151 38t-61 127v369q5 0 14 -0.5t31.5 -4.5t39.5 -10t31 -19t14 -31zM254 782
q-12 -21 0.5 -43t50.5 -60l33 -33q12 -13 10.5 -24t-13 -19t-24.5 -13.5t-23 -8.5l-11 -3l-59 44q-39 29 -48 64t13.5 62.5t70.5 33.5z" />
    <glyph glyph-name="uacute" unicode="&#xfa;" horiz-adv-x="571" 
d="M190 457v-289q0 -41 22.5 -62t73.5 -21q23 0 46.5 3.5t35.5 7.5l13 3v423q5 0 14 -0.5t31.5 -4t39.5 -9.5t31 -19.5t14 -31.5v-469q-39 21 -90 21q-24 0 -72.5 -10.5t-76.5 -10.5q-90 0 -151 38t-61 127v369q5 0 14 -0.5t31.5 -4.5t39.5 -10t31 -19t14 -31zM309 782
q48 -6 70.5 -33.5t13.5 -62.5t-48 -64l-59 -44l-38 13q-54 24 -23 55l33 33q38 38 50.5 60t0.5 43z" />
    <glyph glyph-name="ucircumflex" unicode="&#xfb;" horiz-adv-x="571" 
d="M190 457v-289q0 -41 22.5 -62t73.5 -21q23 0 46.5 3.5t35.5 7.5l13 3v423q5 0 14 -0.5t31.5 -4t39.5 -9.5t31 -19.5t14 -31.5v-469q-39 21 -90 21q-24 0 -72.5 -10.5t-76.5 -10.5q-90 0 -151 38t-61 127v369q5 0 14 -0.5t31.5 -4.5t39.5 -10t31 -19t14 -31zM346 581
q13 20 -3 47.5t-38 45.5l-23 17q-2 -1 -5 -3.5l-12.5 -10.5t-16.5 -15t-16.5 -18.5t-12.5 -20.5t-5.5 -21t5.5 -21q-28 10 -47 20t-27.5 21t-11.5 21t5.5 23t18.5 24t31.5 27.5t41.5 30l52 34.5l52 -34t42 -29.5t32 -28t18.5 -24.5t5.5 -23t-11.5 -21t-27.5 -21t-47 -20z
" />
    <glyph glyph-name="udieresis" unicode="&#xfc;" horiz-adv-x="571" 
d="M190 457v-289q0 -41 22.5 -62t73.5 -21q23 0 46.5 3.5t35.5 7.5l13 3v423q5 0 14 -0.5t31.5 -4t39.5 -9.5t31 -19.5t14 -31.5v-469q-39 21 -90 21q-24 0 -72.5 -10.5t-76.5 -10.5q-90 0 -151 38t-61 127v369q5 0 14 -0.5t31.5 -4.5t39.5 -10t31 -19t14 -31zM314 624v84
h80q15 0 25 -9.5t10 -19.5v-83h-80q-16 0 -25.5 8.5t-9.5 19.5zM135 624v84h80q15 0 25 -9.5t10 -19.5v-83h-80q-16 0 -25.5 8.5t-9.5 19.5z" />
    <glyph glyph-name="yacute" unicode="&#xfd;" horiz-adv-x="533" 
d="M31 522q5 0 13.5 -0.5t30 -4.5t38.5 -11.5t33 -24.5t19 -40l20 -135q5 -35 16 -65t22.5 -49t23 -32.5t18 -19t7.5 -5.5l7 6q7 6 19 20t24 33t23 49t15 63l18 134q5 36 39 56.5t65 23.5l32 2l-22 -198q-10 -89 -56.5 -161.5t-101.5 -114.5l-39 -30q-39 -31 -59.5 -50
t-37.5 -48t-17 -61q0 -42 21 -87q-26 -14 -53 -14q-39 0 -65.5 28t-26.5 84q0 62 35 105t104 94q-51 30 -92.5 101t-50.5 154zM299 782q48 -6 70.5 -33.5t13.5 -62.5t-48 -64l-59 -44l-38 13q-54 24 -23 55l33 33q38 38 50.5 60t0.5 43z" />
    <glyph glyph-name="thorn" unicode="&#xfe;" horiz-adv-x="561" 
d="M60 -172v936q11 0 25 -1t41.5 -6.5t45.5 -23t18 -44.5v-141l-6 -58q4 4 13.5 10t42 16.5t71.5 10.5q83 0 141.5 -47.5t58.5 -125.5v-193q0 -78 -58.5 -125.5t-141.5 -47.5q-40 0 -71.5 10t-43.5 20l-12 9q6 -42 6 -60v-214q-13 0 -25.5 1.5t-41 7t-46 22.5t-17.5 44z
M190 349v-183q0 -36 33 -59.5t75 -23.5q38 0 60.5 23t22.5 70v163q0 47 -22.5 70t-60.5 23q-42 0 -75 -24t-33 -59z" />
    <glyph glyph-name="ydieresis" unicode="&#xff;" horiz-adv-x="533" 
d="M31 522q5 0 13.5 -0.5t30 -4.5t38.5 -11.5t33 -24.5t19 -40l20 -135q5 -35 16 -65t22.5 -49t23 -32.5t18 -19t7.5 -5.5l7 6q7 6 19 20t24 33t23 49t15 63l18 134q5 36 39 56.5t65 23.5l32 2l-22 -198q-10 -89 -56.5 -161.5t-101.5 -114.5l-39 -30q-39 -31 -59.5 -50
t-37.5 -48t-17 -61q0 -42 21 -87q-26 -14 -53 -14q-39 0 -65.5 28t-26.5 84q0 62 35 105t104 94q-51 30 -92.5 101t-50.5 154zM304 624v84h80q15 0 25 -9.5t10 -19.5v-83h-80q-16 0 -25.5 8.5t-9.5 19.5zM125 624v84h80q15 0 25 -9.5t10 -19.5v-83h-80q-16 0 -25.5 8.5
t-9.5 19.5z" />
    <glyph glyph-name="Amacron" unicode="&#x100;" horiz-adv-x="682" 
d="M341 738q10 -7 28 -24.5t48 -53.5t62.5 -96.5t55.5 -131.5l85 -263q44 -138 62 -165q-33 -11 -56 -11q-32 0 -55.5 11.5t-39.5 36.5t-24 44t-20 55l-3 9l-17 53h-252l-17 -53q-28 -84 -49 -112q-34 -44 -93 -44q-10 0 -24 3t-23 6l-9 2q18 27 62 165l85 263
q23 71 55.5 131.5t62.5 96.5t48 53.5t28 24.5zM341 575q-29 -46 -66 -169l-31 -104h194l-31 104q-11 37 -27.5 79.5t-27.5 66.5zM243 876h252q1 -4 2 -9.5t0.5 -21t-4.5 -27t-18 -21t-36 -9.5h-253q-1 4 -2 9.5t-0.5 21t5.5 27t18.5 21t35.5 9.5z" />
    <glyph glyph-name="amacron" unicode="&#x101;" horiz-adv-x="534" 
d="M354 97v163q-7 -17 -38 -27.5t-62.5 -15.5t-57 -22.5t-25.5 -47.5q0 -68 90 -68q24 0 47 4.5t34 8.5zM42 145q0 52 28 86t69.5 49t84.5 24.5t79.5 23t47.5 34.5q0 68 -97 68q-70 0 -115 -27t-45 -86q-38 51 -38 97q0 41 34 67.5t76 36t89 9.5q110 0 167.5 -44.5
t57.5 -126.5v-366q-32 16 -77 16q-24 0 -76 -9t-81 -9q-56 0 -99.5 13.5t-74 50.5t-30.5 93zM167 692h252q1 -4 2 -9.5t0.5 -21t-4.5 -27t-18 -21t-36 -9.5h-253q-1 4 -2 9.5t-0.5 21t5.5 27t18.5 21t35.5 9.5z" />
    <glyph glyph-name="Abreve" unicode="&#x102;" horiz-adv-x="682" 
d="M341 738q10 -7 28 -24.5t48 -53.5t62.5 -96.5t55.5 -131.5l85 -263q44 -138 62 -165q-33 -11 -56 -11q-32 0 -55.5 11.5t-39.5 36.5t-24 44t-20 55l-3 9l-17 53h-252l-17 -53q-28 -84 -49 -112q-34 -44 -93 -44q-10 0 -24 3t-23 6l-9 2q18 27 62 165l85 263
q23 71 55.5 131.5t62.5 96.5t48 53.5t28 24.5zM341 575q-29 -46 -66 -169l-31 -104h194l-31 104q-11 37 -27.5 79.5t-27.5 66.5zM341 850q41 0 64.5 21t23.5 55q0 18 -8 37q33 -10 50 -33.5t17 -52.5q0 -43 -39 -77t-107 -34q-70 0 -109.5 33.5t-39.5 77.5q0 29 17 52.5
t50 33.5q-8 -19 -8 -37q0 -34 24 -55t65 -21z" />
    <glyph glyph-name="abreve" unicode="&#x103;" horiz-adv-x="534" 
d="M354 97v163q-7 -17 -38 -27.5t-62.5 -15.5t-57 -22.5t-25.5 -47.5q0 -68 90 -68q24 0 47 4.5t34 8.5zM42 145q0 52 28 86t69.5 49t84.5 24.5t79.5 23t47.5 34.5q0 68 -97 68q-70 0 -115 -27t-45 -86q-38 51 -38 97q0 41 34 67.5t76 36t89 9.5q110 0 167.5 -44.5
t57.5 -126.5v-366q-32 16 -77 16q-24 0 -76 -9t-81 -9q-56 0 -99.5 13.5t-74 50.5t-30.5 93zM265 666q41 0 64.5 21t23.5 55q0 18 -8 37q33 -10 50 -33.5t17 -52.5q0 -43 -39 -77t-107 -34q-70 0 -109.5 33.5t-39.5 77.5q0 29 17 52.5t50 33.5q-8 -19 -8 -37q0 -34 24 -55
t65 -21z" />
    <glyph glyph-name="Aogonek" unicode="&#x104;" horiz-adv-x="682" 
d="M682 4q1 1 -14.5 -4.5t-36.5 -16t-43 -24.5t-37 -33.5t-15 -39.5q0 -18 12 -28.5t31 -10.5q18 0 39 6t24 9q-10 -39 -23 -57q-30 -42 -88 -42q-55 0 -85 30t-30 71q0 55 41.5 93t96.5 59q-18 13 -32 38t-20.5 42.5t-17.5 52.5l-17 53h-252l-17 -53q-10 -31 -15.5 -46
t-18 -40.5t-25.5 -37.5t-34.5 -22t-48.5 -10q-10 0 -24 3t-23 6l-9 2q18 27 62 165l85 263q23 71 55 131.5t62 96t48.5 54t28.5 24.5q10 -7 28 -24.5t48 -53.5t62.5 -96.5t55.5 -131.5l85 -263q44 -138 62 -165zM341 575q-29 -46 -66 -169l-31 -104h194l-31 104
q-11 37 -27.5 79.5t-27.5 66.5z" />
    <glyph glyph-name="aogonek" unicode="&#x105;" horiz-adv-x="534" 
d="M252 429q-69 0 -114.5 -28.5t-45.5 -87.5q-38 56 -38 101q0 41 34.5 67.5t76.5 36t88 9.5q111 0 168.5 -44t57.5 -127v-330q-4 -3 -11.5 -7.5t-26.5 -20t-33.5 -31.5t-26.5 -38t-12 -43q0 -18 12 -28.5t31 -10.5q18 0 39 6t24 9q0 -38 -35 -69t-79 -31q-45 0 -78.5 28.5
t-33.5 78.5q0 78 100 132q-86 -13 -104 -13q-41 0 -76 8t-65 25.5t-47 49t-17 74.5q0 34 12.5 60.5t29.5 42t48 29t53 20t59 14.5q93 20 107 51q0 67 -97 67zM352 96v154q-11 -13 -42.5 -23t-61.5 -16.5t-54 -23.5t-24 -43q0 -62 89 -62q20 0 43.5 3.5t36.5 6.5z" />
    <glyph glyph-name="Cacute" unicode="&#x106;" horiz-adv-x="690" 
d="M366 623q-172 0 -172 -156v-218q0 -158 172 -158q208 0 245 120q31 -60 24 -102.5t-49.5 -69.5t-98 -39t-121.5 -12q-133 0 -219.5 59.5t-86.5 186.5v247q0 127 86.5 186.5t219.5 59.5q52 0 99 -7t87.5 -23.5t64 -41.5t23.5 -64t-29 -87q-17 63 -88 91t-157 28zM388 966
q48 -6 70.5 -33.5t13.5 -62.5t-48 -64l-59 -44l-38 13q-54 24 -23 55l33 33q38 38 50.5 60t0.5 43z" />
    <glyph glyph-name="cacute" unicode="&#x107;" horiz-adv-x="509" 
d="M448 189q31 -46 31 -82q0 -54 -55.5 -86.5t-142.5 -32.5q-107 0 -169 46.5t-62 129.5v187q0 82 59.5 129t166.5 47q44 0 84.5 -9.5t73 -37t32.5 -68.5q0 -43 -39 -99q0 57 -38 86.5t-90 29.5q-59 0 -89.5 -22.5t-30.5 -81.5v-135q0 -54 28.5 -78.5t88.5 -24.5
q65 0 108 29t44 73zM299 782q48 -6 70.5 -33.5t13.5 -62.5t-48 -64l-59 -44l-38 13q-54 24 -23 55l33 33q38 38 50.5 60t0.5 43z" />
    <glyph glyph-name="Ccircumflex" unicode="&#x108;" horiz-adv-x="690" 
d="M366 623q-172 0 -172 -156v-218q0 -158 172 -158q208 0 245 120q31 -60 24 -102.5t-49.5 -69.5t-98 -39t-121.5 -12q-133 0 -219.5 59.5t-86.5 186.5v247q0 127 86.5 186.5t219.5 59.5q52 0 99 -7t87.5 -23.5t64 -41.5t23.5 -64t-29 -87q-17 63 -88 91t-157 28zM425 765
q13 20 -3 47.5t-38 45.5l-23 17q-2 -1 -5 -3.5l-12.5 -10.5t-16.5 -15t-16.5 -18.5t-12.5 -20.5t-5.5 -21t5.5 -21q-28 10 -47 20t-27.5 21t-11.5 21t5.5 23t18.5 24t31.5 27.5t41.5 30l52 34.5l52 -34t42 -29.5t32 -28t18.5 -24.5t5.5 -23t-11.5 -21t-27.5 -21t-47 -20z
" />
    <glyph glyph-name="ccircumflex" unicode="&#x109;" horiz-adv-x="509" 
d="M448 189q31 -46 31 -82q0 -54 -55.5 -86.5t-142.5 -32.5q-107 0 -169 46.5t-62 129.5v187q0 82 59.5 129t166.5 47q44 0 84.5 -9.5t73 -37t32.5 -68.5q0 -43 -39 -99q0 57 -38 86.5t-90 29.5q-59 0 -89.5 -22.5t-30.5 -81.5v-135q0 -54 28.5 -78.5t88.5 -24.5
q65 0 108 29t44 73zM336 581q13 20 -3 47.5t-39 45.5l-22 17q-2 -1 -5 -3.5l-12.5 -10.5t-16.5 -15t-16.5 -18.5t-12.5 -20.5t-5.5 -21t5.5 -21q-28 10 -47 20t-27.5 21t-11.5 21t5.5 23t18.5 24t31.5 27.5t41.5 30l52 34.5l52 -34t42 -29.5t32 -28t18.5 -24.5t5.5 -23
t-11.5 -21t-27.5 -21t-47 -20z" />
    <glyph glyph-name="Ccaron" unicode="&#x10c;" horiz-adv-x="690" 
d="M366 623q-172 0 -172 -156v-218q0 -158 172 -158q208 0 245 120q31 -60 24 -102.5t-49.5 -69.5t-98 -39t-121.5 -12q-133 0 -219.5 59.5t-86.5 186.5v247q0 127 86.5 186.5t219.5 59.5q52 0 99 -7t87.5 -23.5t64 -41.5t23.5 -64t-29 -87q-17 63 -88 91t-157 28zM296 966
q-13 -20 3 -47.5t39 -44.5l22 -18q2 1 5 3.5l12.5 10.5t16.5 15t16.5 18.5t12.5 20.5t5.5 21t-5.5 21q85 -31 85 -67q0 -31 -73 -89l-60 -45h-30q-98 73 -119 99q-36 46 18 78q20 12 52 24z" />
    <glyph glyph-name="ccaron" unicode="&#x10d;" horiz-adv-x="509" 
d="M448 189q31 -46 31 -82q0 -54 -55.5 -86.5t-142.5 -32.5q-107 0 -169 46.5t-62 129.5v187q0 82 59.5 129t166.5 47q44 0 84.5 -9.5t73 -37t32.5 -68.5q0 -43 -39 -99q0 57 -38 86.5t-90 29.5q-59 0 -89.5 -22.5t-30.5 -81.5v-135q0 -54 28.5 -78.5t88.5 -24.5
q65 0 108 29t44 73zM207 782q-13 -20 3 -47.5t38 -44.5l23 -18q2 1 5 3.5l12.5 10.5t16.5 15t16.5 18.5t12.5 20.5t5.5 21t-5.5 21q85 -31 85 -67q0 -31 -73 -89l-60 -45h-30q-98 73 -119 99q-36 46 18 78q20 12 52 24z" />
    <glyph glyph-name="Dcaron" unicode="&#x10e;" horiz-adv-x="731" 
d="M360 0h-183q-9 0 -22 1.5t-34.5 7t-36 20.5t-14.5 36v650h290q64 0 116.5 -12t98 -38.5t71 -76t25.5 -119.5v-223q0 -70 -25.5 -119.5t-71 -76t-98 -38.5t-116.5 -12zM360 616h-156v-517h156q177 0 177 157v204q0 156 -177 156zM285 966q-13 -20 3 -47.5t39 -44.5l22 -18
q2 1 5 3.5l12.5 10.5t16.5 15t16.5 18.5t12.5 20.5t5.5 21t-5.5 21q85 -31 85 -67q0 -31 -73 -89l-60 -45h-30q-98 73 -119 99q-36 46 18 78q20 12 52 24z" />
    <glyph glyph-name="dcaron" unicode="&#x10f;" horiz-adv-x="732" 
d="M582 716h85q43 0 43 -38v-2q0 -71 -20.5 -108t-73.5 -37q-37 0 -63 21q19 4 29.5 18t12 33t1 33t-3.5 27zM371 546v216q12 0 25.5 -1.5t41.5 -7t45.5 -23t17.5 -43.5v-699q-34 17 -80 17q-28 0 -77 -8.5t-69 -8.5q-107 0 -166 45.5t-59 128.5v192q0 78 58.5 125.5
t141.5 47.5q37 0 69 -9.5t46 -19.5l14 -10q-8 33 -8 58zM371 95v254q0 35 -33 59t-75 24q-38 0 -60.5 -23t-22.5 -70v-162q0 -49 23.5 -71.5t83.5 -22.5q20 0 41 3t32 6z" />
    <glyph glyph-name="Dcroat" unicode="&#x110;" horiz-adv-x="731" 
d="M52 404h18v311h290q64 0 116.5 -12t98 -38.5t71 -76t25.5 -119.5v-223q0 -70 -25.5 -119.5t-71 -76t-98 -38.5t-116.5 -12h-183q-9 0 -22 1.5t-34.5 7t-36 20.5t-14.5 36v243h-68q-1 4 -2 10.5t-0.5 23t4.5 29t16 23t32 10.5zM360 616h-156v-212h162q1 -4 2 -10.5t1 -23
t-4 -29t-16 -23t-32 -10.5h-113v-209h156q177 0 177 157v204q0 156 -177 156z" />
    <glyph glyph-name="dcroat" unicode="&#x111;" horiz-adv-x="561" 
d="M336 677h35v85q9 0 25 -2.5t42.5 -9.5t44.5 -25.5t18 -44.5v-3h85q1 -4 2 -9.5t1 -21t-4 -27t-16 -21t-32 -9.5h-36v-601q-34 17 -80 17q-28 0 -77 -8.5t-69 -8.5q-107 0 -166 45.5t-59 128.5v192q0 78 58.5 125.5t141.5 47.5q37 0 69 -9.5t46 -19.5l14 -10q-8 33 -8 58
v43h-85q-1 4 -2 9.5t-0.5 21t4.5 27t16 21t32 9.5zM371 95v254q0 35 -33 59t-75 24q-38 0 -60.5 -23t-22.5 -70v-162q0 -49 23.5 -71.5t83.5 -22.5q20 0 41 3t32 6z" />
    <glyph glyph-name="Emacron" unicode="&#x112;" horiz-adv-x="596" 
d="M426 332h-222v-233h357q0 -8 -2 -19t-8 -32t-23 -34.5t-42 -13.5h-307q-4 0 -11.5 0.5t-26.5 4t-33 9.5t-26 19.5t-12 31.5v650h491q0 -4 -0.5 -10.5t-4.5 -24t-11 -30.5t-22.5 -23.5t-36.5 -10.5h-282v-185h206q38 0 66 4t36 8l9 4q0 -115 -95 -115zM228 876h252
q1 -4 2 -9.5t0.5 -21t-4.5 -27t-18 -21t-36 -9.5h-253q-1 4 -2 9.5t-0.5 21t5.5 27t18.5 21t35.5 9.5z" />
    <glyph glyph-name="emacron" unicode="&#x113;" horiz-adv-x="529" 
d="M180 336v-29q45 -9 75 -9q97 0 97 63q0 71 -85 71q-49 0 -68 -23.5t-19 -72.5zM291 -12q-114 0 -177.5 46.5t-63.5 129.5v187q0 83 57.5 129.5t163.5 46.5q104 0 157.5 -44.5t53.5 -121.5q0 -72 -49 -118t-159 -46q-49 0 -94 18v-36q0 -91 111 -91q74 0 120 28.5t47 73.5
q31 -44 31 -82q0 -54 -55.5 -87t-142.5 -33zM172 692h252q1 -4 2 -9.5t0.5 -21t-4.5 -27t-18 -21t-36 -9.5h-253q-1 4 -2 9.5t-0.5 21t5.5 27t18.5 21t35.5 9.5z" />
    <glyph glyph-name="Edotaccent" unicode="&#x116;" horiz-adv-x="596" 
d="M426 332h-222v-233h357q0 -8 -2 -19t-8 -32t-23 -34.5t-42 -13.5h-307q-4 0 -11.5 0.5t-26.5 4t-33 9.5t-26 19.5t-12 31.5v650h491q0 -4 -0.5 -10.5t-4.5 -24t-11 -30.5t-22.5 -23.5t-36.5 -10.5h-282v-185h206q38 0 66 4t36 8l9 4q0 -115 -95 -115zM264 808v83h88
q12 0 24.5 -9.5t12.5 -19.5v-83h-88q-15 0 -26 9t-11 20z" />
    <glyph glyph-name="edotaccent" unicode="&#x117;" horiz-adv-x="529" 
d="M180 336v-29q45 -9 75 -9q97 0 97 63q0 71 -85 71q-49 0 -68 -23.5t-19 -72.5zM291 -12q-114 0 -177.5 46.5t-63.5 129.5v187q0 83 57.5 129.5t163.5 46.5q104 0 157.5 -44.5t53.5 -121.5q0 -72 -49 -118t-159 -46q-49 0 -94 18v-36q0 -91 111 -91q74 0 120 28.5t47 73.5
q31 -44 31 -82q0 -54 -55.5 -87t-142.5 -33zM208 624v83h88q12 0 24.5 -9.5t12.5 -19.5v-83h-88q-15 0 -26 9t-11 20z" />
    <glyph glyph-name="Eogonek" unicode="&#x118;" horiz-adv-x="596" 
d="M426 332h-222v-233h357q-1 -28 -16 -52.5t-35.5 -42l-40.5 -34.5t-34 -38.5t-14 -45.5q0 -18 12 -28.5t31 -10.5q18 0 39 6t24 9q0 -38 -35 -69t-79 -31q-45 0 -78.5 28.5t-33.5 78.5q0 76 91 131h-213q-4 0 -11.5 0.5t-26.5 4t-33 9.5t-26 19.5t-12 31.5v650h491
q0 -4 -0.5 -10.5t-4.5 -24t-11 -30.5t-22.5 -23.5t-36.5 -10.5h-282v-185h206q38 0 66 4t36 8l9 4q0 -115 -95 -115z" />
    <glyph glyph-name="eogonek" unicode="&#x119;" horiz-adv-x="529" 
d="M302 -11l-16 -1q-109 0 -172.5 47t-63.5 129v187q0 83 57.5 129.5t163.5 46.5q104 0 157.5 -44.5t53.5 -121.5q0 -72 -49 -118t-159 -46q-49 0 -94 18v-36q0 -91 111 -91q74 0 120 28.5t47 73.5q31 -44 31 -82q0 -28 -15 -53t-37 -43.5l-44 -36.5t-37 -41t-15 -48
q0 -18 12 -28.5t31 -10.5q18 0 39 6t24 9q0 -38 -35 -69t-79 -31q-45 0 -78.5 28.5t-33.5 78.5q0 69 81 120zM180 336v-29q45 -9 75 -9q97 0 97 63q0 71 -85 71q-49 0 -68 -23.5t-19 -72.5z" />
    <glyph glyph-name="Ecaron" unicode="&#x11a;" horiz-adv-x="596" 
d="M426 332h-222v-233h357q0 -8 -2 -19t-8 -32t-23 -34.5t-42 -13.5h-307q-4 0 -11.5 0.5t-26.5 4t-33 9.5t-26 19.5t-12 31.5v650h491q0 -4 -0.5 -10.5t-4.5 -24t-11 -30.5t-22.5 -23.5t-36.5 -10.5h-282v-185h206q38 0 66 4t36 8l9 4q0 -115 -95 -115zM261 966
q-13 -20 3 -47.5t39 -44.5l22 -18q2 1 5 3.5l12.5 10.5t16.5 15t16.5 18.5t12.5 20.5t5.5 21t-5.5 21q85 -31 85 -67q0 -31 -73 -89l-60 -45h-30q-98 73 -119 99q-36 46 18 78q20 12 52 24z" />
    <glyph glyph-name="ecaron" unicode="&#x11b;" horiz-adv-x="529" 
d="M180 336v-29q45 -9 75 -9q97 0 97 63q0 71 -85 71q-49 0 -68 -23.5t-19 -72.5zM291 -12q-114 0 -177.5 46.5t-63.5 129.5v187q0 83 57.5 129.5t163.5 46.5q104 0 157.5 -44.5t53.5 -121.5q0 -72 -49 -118t-159 -46q-49 0 -94 18v-36q0 -91 111 -91q74 0 120 28.5t47 73.5
q31 -44 31 -82q0 -54 -55.5 -87t-142.5 -33zM205 782q-13 -20 3 -47.5t38 -44.5l23 -18q2 1 5 3.5l12.5 10.5t16.5 15t16.5 18.5t12.5 20.5t5.5 21t-5.5 21q85 -31 85 -67q0 -31 -73 -89l-60 -45h-30q-98 73 -119 99q-36 46 18 78q20 12 52 24z" />
    <glyph glyph-name="Gcircumflex" unicode="&#x11c;" 
d="M60 234v247q0 87 43 144t108 79.5t150 22.5q72 0 132.5 -12.5t103.5 -44.5t43 -79q0 -40 -31 -88q-12 44 -53.5 72t-90 38t-104.5 10q-167 0 -167 -156v-218q0 -157 167 -157q84 0 125.5 29.5t41.5 117.5v32h-115q-83 0 -83 112q27 -13 100 -13h232v-146
q0 -64 -24 -111.5t-67 -74t-95 -38.5t-115 -12q-85 0 -150 22.5t-108 79.5t-43 144zM425 765q13 20 -3 47.5t-38 45.5l-23 17q-2 -1 -5 -3.5l-12.5 -10.5t-16.5 -15t-16.5 -18.5t-12.5 -20.5t-5.5 -21t5.5 -21q-28 10 -47 20t-27.5 21t-11.5 21t5.5 23t18.5 24t31.5 27.5
t41.5 30l52 34.5l52 -34t42 -29.5t32 -28t18.5 -24.5t5.5 -23t-11.5 -21t-27.5 -21t-47 -20z" />
    <glyph glyph-name="gcircumflex" unicode="&#x11d;" horiz-adv-x="527" 
d="M34 94q0 28 13 51.5t41 56.5q-19 19 -30.5 52t-11.5 63v47q0 83 57.5 123t142.5 40q28 0 80 -10.5t76 -10.5q35 0 85 20v-209q0 -84 -57 -130.5t-163 -46.5q-33 0 -64.5 7t-46.5 14l-15 7q-6 -20 -6 -39q0 -31 28.5 -41.5t86.5 -10.5h33q31 0 46 -0.5t43.5 -3t43 -7.5
t34.5 -15t30 -25t17.5 -38t7.5 -53q0 -82 -59.5 -129.5t-178.5 -47.5q-101 0 -160 29.5t-59 79.5q0 40 34 84q11 -98 176 -98q120 0 120 75q0 32 -24 42t-74 10h-49q-45 0 -76 4t-61 15t-45 35t-15 60zM175 332q0 -50 19.5 -73.5t72.5 -23.5t72 23.5t19 73.5v85
q-45 17 -89 17q-51 0 -72.5 -19.5t-21.5 -65.5v-17zM326 581q13 20 -3 47.5t-39 45.5l-22 17q-2 -1 -5 -3.5l-12.5 -10.5t-16.5 -15t-16.5 -18.5t-12.5 -20.5t-5.5 -21t5.5 -21q-28 10 -47 20t-27.5 21t-11.5 21t5.5 23t18.5 24t31.5 27.5t41.5 30l52 34.5l52 -34t42 -29.5
t32 -28t18.5 -24.5t5.5 -23t-11.5 -21t-27.5 -21t-47 -20z" />
    <glyph glyph-name="Gbreve" unicode="&#x11e;" 
d="M60 234v247q0 87 43 144t108 79.5t150 22.5q72 0 132.5 -12.5t103.5 -44.5t43 -79q0 -40 -31 -88q-12 44 -53.5 72t-90 38t-104.5 10q-167 0 -167 -156v-218q0 -157 167 -157q84 0 125.5 29.5t41.5 117.5v32h-115q-83 0 -83 112q27 -13 100 -13h232v-146
q0 -64 -24 -111.5t-67 -74t-95 -38.5t-115 -12q-85 0 -150 22.5t-108 79.5t-43 144zM361 850q41 0 64.5 21t23.5 55q0 18 -8 37q33 -10 50 -33.5t17 -52.5q0 -43 -39 -77t-107 -34q-70 0 -109.5 33.5t-39.5 77.5q0 29 17 52.5t50 33.5q-8 -19 -8 -37q0 -34 24 -55t65 -21z
" />
    <glyph glyph-name="gbreve" unicode="&#x11f;" horiz-adv-x="527" 
d="M34 94q0 28 13 51.5t41 56.5q-19 19 -30.5 52t-11.5 63v47q0 83 57.5 123t142.5 40q28 0 80 -10.5t76 -10.5q35 0 85 20v-209q0 -84 -57 -130.5t-163 -46.5q-33 0 -64.5 7t-46.5 14l-15 7q-6 -20 -6 -39q0 -31 28.5 -41.5t86.5 -10.5h33q31 0 46 -0.5t43.5 -3t43 -7.5
t34.5 -15t30 -25t17.5 -38t7.5 -53q0 -82 -59.5 -129.5t-178.5 -47.5q-101 0 -160 29.5t-59 79.5q0 40 34 84q11 -98 176 -98q120 0 120 75q0 32 -24 42t-74 10h-49q-45 0 -76 4t-61 15t-45 35t-15 60zM175 332q0 -50 19.5 -73.5t72.5 -23.5t72 23.5t19 73.5v85
q-45 17 -89 17q-51 0 -72.5 -19.5t-21.5 -65.5v-17zM264 666q41 0 64.5 21t23.5 55q0 18 -8 37q33 -10 50 -33.5t17 -52.5q0 -43 -39 -77t-107 -34q-70 0 -109.5 33.5t-39.5 77.5q0 29 17 52.5t50 33.5q-8 -19 -8 -37q0 -34 24 -55t65 -21z" />
    <glyph glyph-name="Gcommaaccent" unicode="&#x122;" horiz-adv-x="724" 
d="M60 234v247q0 87 43 144t108 79.5t150 22.5q72 0 132.5 -12.5t103.5 -44.5t43 -79q0 -40 -31 -88q-12 44 -53.5 72t-90 38t-104.5 10q-167 0 -167 -156v-218q0 -157 167 -157q84 0 125.5 29.5t41.5 117.5v32h-115q-83 0 -83 112q27 -13 100 -13h232v-146
q0 -64 -24 -111.5t-67 -74t-95 -38.5t-115 -12q-85 0 -150 22.5t-108 79.5t-43 144zM312 -36h85q43 0 43 -38v-2q0 -71 -20.5 -108t-73.5 -37q-37 0 -63 21q19 4 29.5 18t12 33t1 33t-3.5 27z" />
    <glyph glyph-name="gcommaaccent" unicode="&#x123;" horiz-adv-x="532" 
d="M34 94q0 28 13 51.5t41 56.5q-19 19 -30.5 52t-11.5 63v47q0 83 57.5 123t142.5 40q28 0 80 -10.5t76 -10.5q35 0 85 20v-209q0 -84 -57 -130.5t-163 -46.5q-33 0 -64.5 7t-46.5 14l-15 7q-6 -20 -6 -39q0 -31 28.5 -41.5t86.5 -10.5h33q31 0 46 -0.5t43.5 -3t43 -7.5
t34.5 -15t30 -25t17.5 -38t7.5 -53q0 -82 -59.5 -129.5t-178.5 -47.5q-101 0 -160 29.5t-59 79.5q0 40 34 84q11 -98 176 -98q120 0 120 75q0 32 -24 42t-74 10h-49q-45 0 -76 4t-61 15t-45 35t-15 60zM175 332q0 -50 19.5 -73.5t72.5 -23.5t72 23.5t19 73.5v85
q-45 17 -89 17q-51 0 -72.5 -19.5t-21.5 -65.5v-17zM336 590h-85q-43 0 -43 38v2q0 71 20.5 108t73.5 37q37 0 63 -21q-19 -4 -29.5 -18t-12 -33t-1 -33t3.5 -27z" />
    <glyph glyph-name="Hcircumflex" unicode="&#x124;" horiz-adv-x="735" 
d="M531 55v257h-327v-322q-5 0 -14.5 0.5t-32.5 4t-40.5 9.5t-32 19.5t-14.5 31.5v670q5 0 14.5 -0.5t32.5 -4t40.5 -9.5t32 -19.5t14.5 -31.5v-248h327v313q5 0 14.5 -0.5t32.5 -4t40.5 -9.5t32 -19.5t14.5 -31.5v-670q-5 0 -14.5 0.5t-32.5 4t-40.5 9.5t-32 19.5
t-14.5 31.5zM430 781q13 20 -3 47.5t-38 45.5l-23 17q-2 -1 -5 -3.5l-12.5 -10.5t-16.5 -15t-16.5 -18.5t-12.5 -20.5t-5.5 -21t5.5 -21q-28 10 -47 20t-27.5 21t-11.5 21t5.5 23t18.5 24t31.5 27.5t41.5 30l52 34.5l52 -34t42 -29.5t32 -28t18.5 -24.5t5.5 -23t-11.5 -21
t-27.5 -21t-47 -20z" />
    <glyph glyph-name="hcircumflex" unicode="&#x125;" horiz-adv-x="571" 
d="M190 349v-356q-5 0 -14 0.5t-31.5 4t-39.5 9.5t-31 19.5t-14 31.5v704h17t31 -4t39.5 -11t29 -22.5t13.5 -37.5v-139l-8 -60q5 4 15.5 10.5t44 17.5t69.5 11q86 0 143 -44.5t57 -128.5v-361q-5 0 -14 0.5t-31.5 4.5t-39.5 10t-31 19t-14 31v281q0 47 -22.5 70t-60.5 23
q-42 0 -75 -24t-33 -59zM347 781q13 20 -3 47.5t-38 45.5l-23 17q-2 -1 -5 -3.5l-12.5 -10.5t-16.5 -15t-16.5 -18.5t-12.5 -20.5t-5.5 -21t5.5 -21q-28 10 -47 20t-27.5 21t-11.5 21t5.5 23t18.5 24t31.5 27.5t41.5 30l52 34.5l52 -34t42 -29.5t32 -28t18.5 -24.5t5.5 -23
t-11.5 -21t-27.5 -21t-47 -20z" />
    <glyph glyph-name="Imacron" unicode="&#x12a;" horiz-adv-x="274" 
d="M70 55v670q5 0 14.5 -0.5t32.5 -4t40.5 -9.5t32 -19.5t14.5 -31.5v-670q-5 0 -14.5 0.5t-32.5 4t-40.5 9.5t-32 19.5t-14.5 31.5zM39 876h252q1 -4 2 -9.5t0.5 -21t-4.5 -27t-18 -21t-36 -9.5h-253q-1 4 -2 9.5t-0.5 21t5.5 27t18.5 21t35.5 9.5z" />
    <glyph glyph-name="imacron" unicode="&#x12b;" horiz-adv-x="250" 
d="M60 58v464q10 0 24.5 -1.5t42 -6.5t45.5 -20t18 -37v-464q-5 0 -14 0.5t-31.5 4t-39.5 9.5t-31 19.5t-14 31.5zM27 692h252q1 -4 2 -9.5t0.5 -21t-4.5 -27t-18 -21t-36 -9.5h-253q-1 4 -2 9.5t-0.5 21t5.5 27t18.5 21t35.5 9.5z" />
    <glyph glyph-name="Iogonek" unicode="&#x12e;" horiz-adv-x="274" 
d="M70 55v670q5 0 14.5 -0.5t32.5 -4t40.5 -9.5t32 -19.5t14.5 -31.5v-670q-71 -53 -71 -104q0 -18 12 -28.5t31 -10.5q18 0 39 6t24 9q0 -38 -35 -69t-79 -31q-45 0 -78.5 28.5t-33.5 78.5q0 81 100 136q-43 17 -43 50z" />
    <glyph glyph-name="iogonek" unicode="&#x12f;" horiz-adv-x="250" 
d="M60 58v464q10 0 24.5 -1.5t42 -6.5t45.5 -20t18 -37v-464q-75 -54 -75 -107q0 -18 12 -28.5t31 -10.5q18 0 39 6t24 9q0 -38 -35 -69t-79 -31q-45 0 -78.5 28.5t-33.5 78.5q0 83 106 140q-41 15 -41 49zM68 611v89h77q15 0 26 -9t11 -20v-89h-76q-16 0 -27 8.5t-11 20.5z
" />
    <glyph glyph-name="Idotaccent" unicode="&#x130;" horiz-adv-x="274" 
d="M70 55v670q5 0 14.5 -0.5t32.5 -4t40.5 -9.5t32 -19.5t14.5 -31.5v-670q-5 0 -14.5 0.5t-32.5 4t-40.5 9.5t-32 19.5t-14.5 31.5zM75 808v83h88q12 0 24.5 -9.5t12.5 -19.5v-83h-88q-15 0 -26 9t-11 20z" />
    <glyph glyph-name="dotlessi" unicode="&#x131;" horiz-adv-x="250" 
d="M60 58v464q10 0 24.5 -1.5t42 -6.5t45.5 -20t18 -37v-464q-5 0 -14 0.5t-31.5 4t-39.5 9.5t-31 19.5t-14 31.5z" />
    <glyph glyph-name="Jcircumflex" unicode="&#x134;" horiz-adv-x="295" 
d="M225 658v-691q0 -70 -33.5 -118t-89.5 -48q-58 0 -109 47q34 0 57.5 27.5t32 60t8.5 65.5v724q11 0 24.5 -1.5t43 -6.5t48 -20.5t18.5 -38.5zM223 765q13 20 -3 47.5t-38 45.5l-23 17q-2 -1 -5 -3.5l-12.5 -10.5t-16.5 -15t-16.5 -18.5t-12.5 -20.5t-5.5 -21t5.5 -21
q-28 10 -47 20t-27.5 21t-11.5 21t5.5 23t18.5 24t31.5 27.5t41.5 30l52 34.5l52 -34t42 -29.5t32 -28t18.5 -24.5t5.5 -23t-11.5 -21t-27.5 -21t-47 -20z" />
    <glyph glyph-name="jcircumflex" unicode="&#x135;" horiz-adv-x="250" 
d="M190 457v-539q0 -66 -32 -111.5t-86 -45.5q-53 0 -105 45q47 0 70 46.5t23 97.5v572q5 0 14 -0.5t31.5 -4t39.5 -9.5t31 -19.5t14 -31.5zM188 581q13 20 -3 47.5t-39 45.5l-22 17q-2 -1 -5 -3.5l-12.5 -10.5t-16.5 -15t-16.5 -18.5t-12.5 -20.5t-5.5 -21t5.5 -21
q-28 10 -47 20t-27.5 21t-11.5 21t5.5 23t18.5 24t31.5 27.5t41.5 30l52 34.5l52 -34t42 -29.5t32 -28t18.5 -24.5t5.5 -23t-11.5 -21t-27.5 -21t-47 -20z" />
    <glyph glyph-name="Kcommaaccent" unicode="&#x136;" horiz-adv-x="645" 
d="M204 334v-344q-5 0 -14.5 0.5t-32.5 4t-40.5 9.5t-32 19.5t-14.5 31.5v670q5 0 14.5 -0.5t32.5 -4t40.5 -9.5t32 -19.5t14.5 -31.5v-233q72 15 126.5 72t113.5 163q36 65 115 65q11 0 26.5 -2.5t24.5 -4.5l10 -2q-17 -27 -55.5 -94.5t-62 -104.5t-65.5 -78.5t-88 -59.5
q125 -35 244 -278q38 -73 57 -101q-40 -10 -61 -10q-88 0 -124 65l-26 48.5t-29 52l-29 46t-35.5 46.5l-38.5 35.5t-48.5 31.5t-54.5 17zM273 -36h85q43 0 43 -38v-2q0 -71 -20.5 -108t-73.5 -37q-37 0 -63 21q19 4 29.5 18t12 33t1 33t-3.5 27z" />
    <glyph glyph-name="kcommaaccent" unicode="&#x137;" horiz-adv-x="531" 
d="M494 510q-15 -21 -47 -77.5t-62 -91.5t-70 -51q42 -15 73 -38.5t50.5 -54t32 -58.5l29 -67.5t30.5 -65.5q-54 -13 -74 -13q-28 0 -47 11.5t-30 30.5t-20.5 42.5t-21.5 48t-28.5 46.5t-46.5 39t-72 24v-242q-5 0 -14 0.5t-31.5 4t-39.5 9.5t-31 19.5t-14 31.5v706
q5 0 14 -0.5t31.5 -4t39.5 -9.5t31 -19.5t14 -31.5v-364q42 6 71.5 37.5t65.5 100.5q26 49 96 49q33 0 71 -12zM223 -36h85q43 0 43 -38v-2q0 -71 -20.5 -108t-73.5 -37q-37 0 -63 21q19 4 29.5 18t12 33t1 33t-3.5 27z" />
    <glyph glyph-name="Lacute" unicode="&#x139;" horiz-adv-x="544" 
d="M463 0h-284q-4 0 -11.5 0.5t-26.5 4t-33 9.5t-26 19.5t-12 31.5v660q5 0 14.5 -0.5t32.5 -4t40.5 -9.5t32 -19.5t14.5 -31.5v-561h223q38 0 65.5 4t36.5 8l9 4q0 -115 -75 -115zM159 966q48 -6 70.5 -33.5t13.5 -62.5t-48 -64l-59 -44l-38 13q-54 24 -23 55l33 33
q38 38 50.5 60t0.5 43z" />
    <glyph glyph-name="lacute" unicode="&#x13a;" horiz-adv-x="252" 
d="M55 150v614q10 0 24.5 -1.5t42 -6.5t45.5 -20t18 -37v-517q0 -29 1.5 -47.5t7.5 -45.5t21.5 -41.5t40.5 -14.5q-30 -40 -83 -40q-58 0 -88 44.5t-30 112.5zM147 995q48 -6 70.5 -33.5t13.5 -62.5t-48 -64l-59 -44l-38 13q-54 24 -23 55l33 33q38 38 50.5 60t0.5 43z" />
    <glyph glyph-name="Lcommaaccent" unicode="&#x13b;" horiz-adv-x="545" 
d="M463 0h-284q-4 0 -11.5 0.5t-26.5 4t-33 9.5t-26 19.5t-12 31.5v660q5 0 14.5 -0.5t32.5 -4t40.5 -9.5t32 -19.5t14.5 -31.5v-561h223q38 0 65.5 4t36.5 8l9 4q0 -115 -75 -115zM237 -36h85q43 0 43 -38v-2q0 -71 -20.5 -108t-73.5 -37q-37 0 -63 21q19 4 29.5 18t12 33
t1 33t-3.5 27z" />
    <glyph glyph-name="lcommaaccent" unicode="&#x13c;" horiz-adv-x="252" 
d="M55 150v614q10 0 24.5 -1.5t42 -6.5t45.5 -20t18 -37v-517q0 -29 1.5 -47.5t7.5 -45.5t21.5 -41.5t40.5 -14.5q-30 -40 -83 -40q-58 0 -88 44.5t-30 112.5zM88 -36h85q43 0 43 -38v-2q0 -71 -20.5 -108t-73.5 -37q-37 0 -63 21q19 4 29.5 18t12 33t1 33t-3.5 27z" />
    <glyph glyph-name="Lcaron" unicode="&#x13d;" horiz-adv-x="545" 
d="M295 715h85q43 0 43 -38v-2q0 -71 -20.5 -108t-73.5 -37q-37 0 -63 21q19 4 29.5 18t12 33t1 33t-3.5 27zM463 0h-284q-4 0 -11.5 0.5t-26.5 4t-33 9.5t-26 19.5t-12 31.5v660q5 0 14.5 -0.5t32.5 -4t40.5 -9.5t32 -19.5t14.5 -31.5v-561h223q38 0 65.5 4t36.5 8l9 4
q0 -115 -75 -115z" />
    <glyph glyph-name="lcaron" unicode="&#x13e;" horiz-adv-x="416" 
d="M266 715h85q43 0 43 -38v-2q0 -71 -20.5 -108t-73.5 -37q-37 0 -63 21q19 4 29.5 18t12 33t1 33t-3.5 27zM55 150v614q10 0 24.5 -1.5t42 -6.5t45.5 -20t18 -37v-517q0 -29 1.5 -47.5t7.5 -45.5t21.5 -41.5t40.5 -14.5q-30 -40 -83 -40q-58 0 -88 44.5t-30 112.5z" />
    <glyph glyph-name="Lslash" unicode="&#x141;" horiz-adv-x="544" 
d="M463 0h-284q-4 0 -11.5 0.5t-26.5 4t-33 9.5t-26 19.5t-12 31.5v258l-43 -17q-27 40 -27 67q0 32 34 46l36 15v291q5 0 14.5 -0.5t32.5 -4t40.5 -9.5t32 -19.5t14.5 -31.5v-171l52 22q29 -41 29 -68q0 -32 -36 -47l-45 -18v-279h223q38 0 65.5 4t36.5 8l9 4
q0 -115 -75 -115z" />
    <glyph glyph-name="lslash" unicode="&#x142;" horiz-adv-x="270" 
d="M65 150v176l-41 -16q-27 40 -27 67q0 32 34 46l34 14v327q10 0 24.5 -1.5t42 -6.5t45.5 -20t18 -37v-209l49 20q29 -41 29 -68q0 -32 -36 -47l-42 -17v-196q0 -29 1.5 -47.5t7.5 -45.5t21.5 -41.5t40.5 -14.5q-30 -40 -83 -40q-58 0 -88 44.5t-30 112.5z" />
    <glyph glyph-name="Nacute" unicode="&#x143;" horiz-adv-x="736" 
d="M251 658l293 -459q-12 57 -12 106v410q5 0 14.5 -0.5t32.5 -4t40.5 -9.5t32 -19.5t14.5 -31.5v-660q-42 0 -76.5 7.5t-53 18t-31.5 21t-17 17.5l-4 8l-291 462q11 -57 11 -106v-428q-5 0 -14.5 0.5t-32.5 4t-40.5 9.5t-32 19.5t-14.5 31.5v660q52 0 77.5 -2t56.5 -15
t47 -40zM396 966q48 -6 70.5 -33.5t13.5 -62.5t-48 -64l-59 -44l-38 13q-54 24 -23 55l33 33q38 38 50.5 60t0.5 43z" />
    <glyph glyph-name="nacute" unicode="&#x144;" horiz-adv-x="571" 
d="M381 58v289q0 41 -22.5 62t-73.5 21q-23 0 -46.5 -3.5t-36.5 -6.5l-12 -4v-423q-5 0 -14 0.5t-31.5 4t-39.5 9.5t-31 19.5t-14 31.5v469q39 -21 90 -21q24 0 72.5 10.5t76.5 10.5q90 0 151 -38t61 -127v-369q-5 0 -14 0.5t-31.5 4.5t-39.5 10t-31 19t-14 31zM309 782
q48 -6 70.5 -33.5t13.5 -62.5t-48 -64l-59 -44l-38 13q-54 24 -23 55l33 33q38 38 50.5 60t0.5 43z" />
    <glyph glyph-name="Ncommaaccent" unicode="&#x145;" horiz-adv-x="738" 
d="M251 658l293 -459q-12 57 -12 106v410q5 0 14.5 -0.5t32.5 -4t40.5 -9.5t32 -19.5t14.5 -31.5v-660q-42 0 -76.5 7.5t-53 18t-31.5 21t-17 17.5l-4 8l-291 462q11 -57 11 -106v-428q-5 0 -14.5 0.5t-32.5 4t-40.5 9.5t-32 19.5t-14.5 31.5v660q52 0 77.5 -2t56.5 -15
t47 -40zM318 -36h85q43 0 43 -38v-2q0 -71 -20.5 -108t-73.5 -37q-37 0 -63 21q19 4 29.5 18t12 33t1 33t-3.5 27z" />
    <glyph glyph-name="ncommaaccent" unicode="&#x146;" horiz-adv-x="575" 
d="M381 58v289q0 41 -22.5 62t-73.5 21q-23 0 -46.5 -3.5t-36.5 -6.5l-12 -4v-423q-5 0 -14 0.5t-31.5 4t-39.5 9.5t-31 19.5t-14 31.5v469q39 -21 90 -21q24 0 72.5 10.5t76.5 10.5q90 0 151 -38t61 -127v-369q-5 0 -14 0.5t-31.5 4.5t-39.5 10t-31 19t-14 31zM233 -36h85
q43 0 43 -38v-2q0 -71 -20.5 -108t-73.5 -37q-37 0 -63 21q19 4 29.5 18t12 33t1 33t-3.5 27z" />
    <glyph glyph-name="Ncaron" unicode="&#x147;" horiz-adv-x="736" 
d="M251 658l293 -459q-12 57 -12 106v410q5 0 14.5 -0.5t32.5 -4t40.5 -9.5t32 -19.5t14.5 -31.5v-660q-42 0 -76.5 7.5t-53 18t-31.5 21t-17 17.5l-4 8l-291 462q11 -57 11 -106v-428q-5 0 -14.5 0.5t-32.5 4t-40.5 9.5t-32 19.5t-14.5 31.5v660q52 0 77.5 -2t56.5 -15
t47 -40zM304 966q-13 -20 3 -47.5t39 -44.5l22 -18q2 1 5 3.5l12.5 10.5t16.5 15t16.5 18.5t12.5 20.5t5.5 21t-5.5 21q85 -31 85 -67q0 -31 -73 -89l-60 -45h-30q-98 73 -119 99q-36 46 18 78q20 12 52 24z" />
    <glyph glyph-name="ncaron" unicode="&#x148;" horiz-adv-x="571" 
d="M381 58v289q0 41 -22.5 62t-73.5 21q-23 0 -46.5 -3.5t-36.5 -6.5l-12 -4v-423q-5 0 -14 0.5t-31.5 4t-39.5 9.5t-31 19.5t-14 31.5v469q39 -21 90 -21q24 0 72.5 10.5t76.5 10.5q90 0 151 -38t61 -127v-369q-5 0 -14 0.5t-31.5 4.5t-39.5 10t-31 19t-14 31zM217 782
q-13 -20 3 -47.5t38 -44.5l23 -18q2 1 5 3.5l12.5 10.5t16.5 15t16.5 18.5t12.5 20.5t5.5 21t-5.5 21q85 -31 85 -67q0 -31 -73 -89l-60 -45h-30q-98 73 -119 99q-36 46 18 78q20 12 52 24z" />
    <glyph glyph-name="Omacron" unicode="&#x14c;" 
d="M662 490v-265q0 -114 -75 -175.5t-226 -61.5t-226 61.5t-75 175.5v265q0 114 75 175.5t226 61.5t226 -61.5t75 -175.5zM528 238v239q0 78 -34.5 114.5t-133.5 36.5q-98 0 -132 -36.5t-34 -114.5v-239q0 -78 34 -114.5t132 -36.5q99 0 133.5 36.5t34.5 114.5zM264 876h252
q1 -4 2 -9.5t0.5 -21t-4.5 -27t-18 -21t-36 -9.5h-253q-1 4 -2 9.5t-0.5 21t5.5 27t18.5 21t35.5 9.5z" />
    <glyph glyph-name="omacron" unicode="&#x14d;" horiz-adv-x="582" 
d="M532 351v-187q0 -84 -60 -130t-181 -46t-181 46t-60 130v187q0 84 60 130t181 46t181 -46t60 -130zM402 179v157q0 50 -23 73t-88 23t-88 -23t-23 -73v-157q0 -50 23 -73t88 -23t88 23t23 73zM193 692h252q1 -4 2 -9.5t0.5 -21t-4.5 -27t-18 -21t-36 -9.5h-253
q-1 4 -2 9.5t-0.5 21t5.5 27t18.5 21t35.5 9.5z" />
    <glyph glyph-name="Ohungarumlaut" unicode="&#x150;" 
d="M662 490v-265q0 -114 -75 -175.5t-226 -61.5t-226 61.5t-75 175.5v265q0 114 75 175.5t226 61.5t226 -61.5t75 -175.5zM528 238v239q0 78 -34.5 114.5t-133.5 36.5q-98 0 -132 -36.5t-34 -114.5v-239q0 -78 34 -114.5t132 -36.5q99 0 133.5 36.5t34.5 114.5zM471 966
q48 -6 68 -32.5t8.5 -61t-50.5 -63.5l-59 -44q-2 0 -5.5 1t-12.5 4t-16.5 6.5t-15 9.5t-11 12t-1.5 14.5t11 17.5l33 33q38 38 50.5 60t0.5 43zM272 966q73 -10 84 -51t-44 -84l-53 -42q-2 0 -5 1l-11 3.5t-14.5 6t-13 9t-9.5 11.5t-1 15t11 18q49 53 58.5 71t-2.5 42z" />
    <glyph glyph-name="ohungarumlaut" unicode="&#x151;" horiz-adv-x="582" 
d="M532 351v-187q0 -84 -60 -130t-181 -46t-181 46t-60 130v187q0 84 60 130t181 46t181 -46t60 -130zM402 179v157q0 50 -23 73t-88 23t-88 -23t-23 -73v-157q0 -50 23 -73t88 -23t88 23t23 73zM400 782q48 -6 68 -32.5t8.5 -61t-50.5 -63.5l-59 -44q-2 0 -5.5 1t-12.5 4
t-16.5 6.5t-15 9.5t-11 12t-1.5 14.5t11 17.5l33 33q38 38 50.5 60t0.5 43zM201 782q73 -10 84 -51t-44 -84l-53 -42q-2 0 -5 1l-11 3.5t-14.5 6t-13 9t-9.5 11.5t-1 15t11 18q49 53 58.5 71t-2.5 42z" />
    <glyph glyph-name="OE" unicode="&#x152;" horiz-adv-x="860" 
d="M690 332h-172v-233h307q0 -8 -2 -19t-8 -32t-23 -34.5t-42 -13.5h-257h-1h-131q-151 0 -226 61.5t-75 175.5v241q0 114 75 175.5t226 61.5h464q0 -4 -0.5 -10.5t-4.5 -24t-11 -30.5t-22.5 -23.5t-36.5 -10.5h-232v-185h156q38 0 66 4t36 8l9 4q0 -115 -95 -115zM360 99
h24v516q-8 1 -24 1q-98 0 -132 -36.5t-34 -114.5v-215q0 -78 34 -114.5t132 -36.5z" />
    <glyph glyph-name="oe" unicode="&#x153;" horiz-adv-x="881" 
d="M643 -12q-130 0 -174 54q-43 -54 -178 -54q-121 0 -181 46t-60 130v187q0 84 60 130t181 46q133 0 174 -52q38 52 158 52q104 0 157.5 -44.5t53.5 -121.5q0 -72 -49 -118t-159 -46q-49 0 -94 18v-36q0 -91 111 -91q74 0 120 28.5t47 73.5q31 -44 31 -82q0 -54 -55.5 -87
t-142.5 -33zM402 170v175q-2 44 -25.5 65.5t-85.5 21.5q-65 0 -88 -23t-23 -73v-157q0 -50 23 -73t88 -23q62 0 85.5 21t25.5 66zM532 336v-29q45 -9 75 -9q97 0 97 63q0 71 -85 71q-49 0 -68 -23.5t-19 -72.5z" />
    <glyph glyph-name="Racute" unicode="&#x154;" horiz-adv-x="610" 
d="M562 504q0 -81 -50.5 -132.5t-130.5 -51.5q42 -25 78.5 -68t57.5 -82l48 -90.5t45 -77.5q-40 -10 -61 -10q-85 0 -119 65q-4 7 -22 42t-24.5 46.5t-24 40t-30.5 41.5l-33 32t-43 30.5t-49 18.5v-318q-5 0 -14.5 0.5t-32.5 4.5t-40.5 10t-32 19t-14.5 31v660h231
q261 0 261 -181v-30zM301 616h-97v-207h105q64 0 91.5 27t27.5 83q0 54 -30 75.5t-97 21.5zM326 966q48 -6 70.5 -33.5t13.5 -62.5t-48 -64l-59 -44l-38 13q-54 24 -23 55l33 33q38 38 50.5 60t0.5 43z" />
    <glyph glyph-name="racute" unicode="&#x155;" horiz-adv-x="418" 
d="M190 -7q-5 0 -14 0.5t-31.5 4t-39.5 9.5t-31 19.5t-14 31.5v468q40 -20 77 -20q20 0 68 10.5t79 10.5q58 0 96.5 -23t38.5 -71q0 -17 -6.5 -34.5t-13 -28t-16 -22.5t-10.5 -13q0 45 -30.5 68t-77.5 23q-15 0 -75 -11v-422zM255 782q48 -6 70.5 -33.5t13.5 -62.5t-48 -64
l-59 -44l-38 13q-54 24 -23 55l33 33q38 38 50.5 60t0.5 43z" />
    <glyph glyph-name="Rcommaaccent" unicode="&#x156;" horiz-adv-x="612" 
d="M562 504q0 -81 -50.5 -132.5t-130.5 -51.5q42 -25 78.5 -68t57.5 -82l48 -90.5t45 -77.5q-40 -10 -61 -10q-85 0 -119 65q-4 7 -22 42t-24.5 46.5t-24 40t-30.5 41.5l-33 32t-43 30.5t-49 18.5v-318q-5 0 -14.5 0.5t-32.5 4.5t-40.5 10t-32 19t-14.5 31v660h231
q261 0 261 -181v-30zM301 616h-97v-207h105q64 0 91.5 27t27.5 83q0 54 -30 75.5t-97 21.5zM255 -36h85q43 0 43 -38v-2q0 -71 -20.5 -108t-73.5 -37q-37 0 -63 21q19 4 29.5 18t12 33t1 33t-3.5 27z" />
    <glyph glyph-name="rcommaaccent" unicode="&#x157;" horiz-adv-x="419" 
d="M190 -7q-5 0 -14 0.5t-31.5 4t-39.5 9.5t-31 19.5t-14 31.5v468q40 -20 77 -20q20 0 68 10.5t79 10.5q58 0 96.5 -23t38.5 -71q0 -17 -6.5 -34.5t-13 -28t-16 -22.5t-10.5 -13q0 45 -30.5 68t-77.5 23q-15 0 -75 -11v-422zM70 -36h85q43 0 43 -38v-2q0 -71 -20.5 -108
t-73.5 -37q-37 0 -63 21q19 4 29.5 18t12 33t1 33t-3.5 27z" />
    <glyph glyph-name="Rcaron" unicode="&#x158;" horiz-adv-x="610" 
d="M562 504q0 -81 -50.5 -132.5t-130.5 -51.5q42 -25 78.5 -68t57.5 -82l48 -90.5t45 -77.5q-40 -10 -61 -10q-85 0 -119 65q-4 7 -22 42t-24.5 46.5t-24 40t-30.5 41.5l-33 32t-43 30.5t-49 18.5v-318q-5 0 -14.5 0.5t-32.5 4.5t-40.5 10t-32 19t-14.5 31v660h231
q261 0 261 -181v-30zM301 616h-97v-207h105q64 0 91.5 27t27.5 83q0 54 -30 75.5t-97 21.5zM234 966q-13 -20 3 -47.5t39 -44.5l22 -18q2 1 5 3.5l12.5 10.5t16.5 15t16.5 18.5t12.5 20.5t5.5 21t-5.5 21q85 -31 85 -67q0 -31 -73 -89l-60 -45h-30q-98 73 -119 99
q-36 46 18 78q20 12 52 24z" />
    <glyph glyph-name="rcaron" unicode="&#x159;" horiz-adv-x="418" 
d="M190 -7q-5 0 -14 0.5t-31.5 4t-39.5 9.5t-31 19.5t-14 31.5v468q40 -20 77 -20q20 0 68 10.5t79 10.5q58 0 96.5 -23t38.5 -71q0 -17 -6.5 -34.5t-13 -28t-16 -22.5t-10.5 -13q0 45 -30.5 68t-77.5 23q-15 0 -75 -11v-422zM163 782q-13 -20 3 -47.5t38 -44.5l23 -18
q2 1 5 3.5l12.5 10.5t16.5 15t16.5 18.5t12.5 20.5t5.5 21t-5.5 21q85 -31 85 -67q0 -31 -73 -89l-60 -45h-30q-98 73 -119 99q-36 46 18 78q20 12 52 24z" />
    <glyph glyph-name="Sacute" unicode="&#x15a;" horiz-adv-x="654" 
d="M40 515q0 212 287 212q263 0 263 -124q0 -41 -33 -101q0 121 -229 121q-150 0 -150 -93q0 -29 18.5 -48t49.5 -27t70 -15.5t80 -12.5t80 -20t70 -36.5t49.5 -62.5t18.5 -98q0 -107 -80.5 -164t-213.5 -57q-50 0 -94.5 6.5t-84 20.5t-62.5 39t-23 59q0 41 36 93
q0 -115 228 -115q77 0 116 28.5t39 80.5q0 37 -24 60t-62.5 33t-84.5 17t-92.5 18t-85 29.5t-62.5 58.5t-24 98zM351 966q48 -6 70.5 -33.5t13.5 -62.5t-48 -64l-59 -44l-38 13q-54 24 -23 55l33 33q38 38 50.5 60t0.5 43z" />
    <glyph glyph-name="sacute" unicode="&#x15b;" horiz-adv-x="511" 
d="M354 154q0 26 -24 39.5t-60 16t-78 9t-78 17t-60 42.5t-24 83q0 82 56.5 124t164.5 42q93 0 148 -26t55 -75q0 -42 -38 -90q0 44 -44 68t-111 24q-103 0 -103 -61q0 -22 24 -33.5t60 -13t77.5 -9.5t77.5 -21t60 -49t24 -92q0 -76 -58.5 -118.5t-171.5 -42.5
q-97 0 -155 28t-58 79q0 44 47 94q1 -40 28 -64.5t61 -32t77 -7.5q39 0 71 16.5t32 52.5zM275 782q48 -6 70.5 -33.5t13.5 -62.5t-48 -64l-59 -44l-38 13q-54 24 -23 55l33 33q38 38 50.5 60t0.5 43z" />
    <glyph glyph-name="Scircumflex" unicode="&#x15c;" horiz-adv-x="654" 
d="M40 515q0 212 287 212q263 0 263 -124q0 -41 -33 -101q0 121 -229 121q-150 0 -150 -93q0 -29 18.5 -48t49.5 -27t70 -15.5t80 -12.5t80 -20t70 -36.5t49.5 -62.5t18.5 -98q0 -107 -80.5 -164t-213.5 -57q-50 0 -94.5 6.5t-84 20.5t-62.5 39t-23 59q0 41 36 93
q0 -115 228 -115q77 0 116 28.5t39 80.5q0 37 -24 60t-62.5 33t-84.5 17t-92.5 18t-85 29.5t-62.5 58.5t-24 98zM388 765q13 20 -3 47.5t-38 45.5l-23 17q-2 -1 -5 -3.5l-12.5 -10.5t-16.5 -15t-16.5 -18.5t-12.5 -20.5t-5.5 -21t5.5 -21q-28 10 -47 20t-27.5 21t-11.5 21
t5.5 23t18.5 24t31.5 27.5t41.5 30l52 34.5l52 -34t42 -29.5t32 -28t18.5 -24.5t5.5 -23t-11.5 -21t-27.5 -21t-47 -20z" />
    <glyph glyph-name="scircumflex" unicode="&#x15d;" horiz-adv-x="511" 
d="M354 154q0 26 -24 39.5t-60 16t-78 9t-78 17t-60 42.5t-24 83q0 82 56.5 124t164.5 42q93 0 148 -26t55 -75q0 -42 -38 -90q0 44 -44 68t-111 24q-103 0 -103 -61q0 -22 24 -33.5t60 -13t77.5 -9.5t77.5 -21t60 -49t24 -92q0 -76 -58.5 -118.5t-171.5 -42.5
q-97 0 -155 28t-58 79q0 44 47 94q1 -40 28 -64.5t61 -32t77 -7.5q39 0 71 16.5t32 52.5zM312 581q13 20 -3 47.5t-39 45.5l-22 17q-2 -1 -5 -3.5l-12.5 -10.5t-16.5 -15t-16.5 -18.5t-12.5 -20.5t-5.5 -21t5.5 -21q-28 10 -47 20t-27.5 21t-11.5 21t5.5 23t18.5 24
t31.5 27.5t41.5 30l52 34.5l52 -34t42 -29.5t32 -28t18.5 -24.5t5.5 -23t-11.5 -21t-27.5 -21t-47 -20z" />
    <glyph glyph-name="Scedilla" unicode="&#x15e;" horiz-adv-x="654" 
d="M244 -103q4 18 10 36l21 58q-44 3 -81.5 11t-69.5 22t-50 37t-18 53q0 41 36 93q0 -115 228 -115q77 0 116 28.5t39 80.5q0 37 -24 60t-62.5 33t-84.5 17t-92.5 18t-85 29.5t-62.5 58.5t-24 98q0 212 287 212q263 0 263 -124q0 -41 -33 -101q0 121 -229 121
q-150 0 -150 -93q0 -29 18.5 -48t49.5 -27t70 -15.5t80 -12.5t80 -20t70 -36.5t49.5 -62.5t18.5 -98q0 -102 -73 -158.5t-194 -61.5l-3 -27l20 -2q43 -5 68 -30t25 -67q0 -44 -34.5 -71t-81.5 -27q-36 0 -59.5 17t-29.5 32.5t-6 27.5q26 -13 63 -13q23 0 38.5 10t15.5 30
q0 38 -61 38q-14 0 -28.5 -3t-21.5 -5z" />
    <glyph glyph-name="scedilla" unicode="&#x15f;" horiz-adv-x="511" 
d="M175 -103q4 18 10 36l20 57q-78 7 -122.5 33.5t-44.5 71.5q0 44 47 94q1 -40 28 -64.5t61 -32t77 -7.5q39 0 71 16.5t32 52.5q0 26 -24 39.5t-60 16t-78 9t-78 17t-60 42.5t-24 83q0 82 56.5 124t164.5 42q93 0 148 -26t55 -75q0 -42 -38 -90q0 44 -44 68t-111 24
q-103 0 -103 -61q0 -22 24 -33.5t60 -13t77.5 -9.5t77.5 -21t60 -49t24 -92q0 -71 -51.5 -113t-151.5 -47l-3 -26l20 -2q43 -5 68 -30t25 -67q0 -44 -34.5 -71t-81.5 -27q-36 0 -59.5 17t-29.5 32.5t-6 27.5q26 -13 63 -13q23 0 38.5 10t15.5 30q0 38 -61 38q-14 0 -28.5 -3
t-22.5 -5z" />
    <glyph glyph-name="Scaron" unicode="&#x160;" horiz-adv-x="654" 
d="M40 515q0 212 287 212q263 0 263 -124q0 -41 -33 -101q0 121 -229 121q-150 0 -150 -93q0 -29 18.5 -48t49.5 -27t70 -15.5t80 -12.5t80 -20t70 -36.5t49.5 -62.5t18.5 -98q0 -107 -80.5 -164t-213.5 -57q-50 0 -94.5 6.5t-84 20.5t-62.5 39t-23 59q0 41 36 93
q0 -115 228 -115q77 0 116 28.5t39 80.5q0 37 -24 60t-62.5 33t-84.5 17t-92.5 18t-85 29.5t-62.5 58.5t-24 98zM259 966q-13 -20 3 -47.5t39 -44.5l22 -18q2 1 5 3.5l12.5 10.5t16.5 15t16.5 18.5t12.5 20.5t5.5 21t-5.5 21q85 -31 85 -67q0 -31 -73 -89l-60 -45h-30
q-98 73 -119 99q-36 46 18 78q20 12 52 24z" />
    <glyph glyph-name="scaron" unicode="&#x161;" horiz-adv-x="511" 
d="M354 154q0 26 -24 39.5t-60 16t-78 9t-78 17t-60 42.5t-24 83q0 82 56.5 124t164.5 42q93 0 148 -26t55 -75q0 -42 -38 -90q0 44 -44 68t-111 24q-103 0 -103 -61q0 -22 24 -33.5t60 -13t77.5 -9.5t77.5 -21t60 -49t24 -92q0 -76 -58.5 -118.5t-171.5 -42.5
q-97 0 -155 28t-58 79q0 44 47 94q1 -40 28 -64.5t61 -32t77 -7.5q39 0 71 16.5t32 52.5zM183 782q-13 -20 3 -47.5t38 -44.5l23 -18q2 1 5 3.5l12.5 10.5t16.5 15t16.5 18.5t12.5 20.5t5.5 21t-5.5 21q85 -31 85 -67q0 -31 -73 -89l-60 -45h-30q-98 73 -119 99
q-36 46 18 78q20 12 52 24z" />
    <glyph glyph-name="Tcommaaccent" unicode="&#x162;" horiz-adv-x="577" 
d="M212 -103q4 18 10 36l28 78q-30 17 -30 44v561h-123q-95 0 -95 115q35 -16 111 -16h351q34 0 61.5 4t38.5 8l11 4q0 -115 -95 -115h-126v-626q-18 0 -38 3l-4 -30l20 -2q43 -5 68 -30t25 -67q0 -44 -34.5 -71t-81.5 -27q-36 0 -59.5 17t-29.5 32.5t-6 27.5q26 -13 63 -13
q23 0 38.5 10t15.5 30q0 38 -61 38q-14 0 -28.5 -3t-21.5 -5z" />
    <glyph glyph-name="tcommaaccent" unicode="&#x163;" horiz-adv-x="445" 
d="M177 -103q4 18 10 36l22 60q-71 13 -109.5 57t-38.5 114v448q129 0 129 -85v-36h204q0 -4 -0.5 -10.5t-4.5 -23.5t-11 -30t-22.5 -23.5t-35.5 -10.5h-130v-201q0 -54 20.5 -80t74.5 -26q50 0 84 25t34 80q42 -47 42 -89q0 -47 -42.5 -78.5t-122.5 -34.5l-3 -26l20 -2
q43 -5 68 -30t25 -67q0 -44 -34.5 -71t-81.5 -27q-36 0 -59.5 17t-29.5 32.5t-6 27.5q26 -13 63 -13q23 0 38.5 10t15.5 30q0 38 -61 38q-14 0 -28.5 -3t-22.5 -5z" />
    <glyph glyph-name="Tcaron" unicode="&#x164;" horiz-adv-x="576" 
d="M480 616h-126v-626q-5 0 -14.5 0.5t-32.5 4t-40.5 9.5t-32 19.5t-14.5 31.5v561h-123q-95 0 -95 115q35 -16 111 -16h351q34 0 61.5 4t38.5 8l11 4q0 -115 -95 -115zM222 966q-13 -20 3 -47.5t39 -44.5l22 -18q2 1 5 3.5l12.5 10.5t16.5 15t16.5 18.5t12.5 20.5t5.5 21
t-5.5 21q85 -31 85 -67q0 -31 -73 -89l-60 -45h-30q-98 73 -119 99q-36 46 18 78q20 12 52 24z" />
    <glyph glyph-name="tcaron" unicode="&#x165;" horiz-adv-x="572" 
d="M61 164v448q129 0 129 -85v-36h204q0 -4 -0.5 -10.5t-4.5 -23.5t-11 -30t-22.5 -23.5t-35.5 -10.5h-130v-201q0 -54 20.5 -80t74.5 -26q50 0 84 25t34 80q42 -47 42 -89q0 -49 -46 -81.5t-132 -32.5q-98 0 -152 46.5t-54 129.5zM422 715h85q43 0 43 -38v-2
q0 -71 -20.5 -108t-73.5 -37q-37 0 -63 21q19 4 29.5 18t12 33t1 33t-3.5 27z" />
    <glyph glyph-name="Umacron" unicode="&#x16a;" 
d="M662 660v-446q0 -108 -86.5 -167t-214.5 -59t-214.5 59t-86.5 167v511q5 0 14.5 -0.5t32.5 -4t40.5 -9.5t32 -19.5t14.5 -31.5v-431q0 -66 45.5 -101.5t121.5 -35.5t121.5 35.5t45.5 101.5v496q5 0 14.5 -0.5t32.5 -4t40.5 -9.5t32 -19.5t14.5 -31.5zM264 876h252
q1 -4 2 -9.5t0.5 -21t-4.5 -27t-18 -21t-36 -9.5h-253q-1 4 -2 9.5t-0.5 21t5.5 27t18.5 21t35.5 9.5z" />
    <glyph glyph-name="umacron" unicode="&#x16b;" horiz-adv-x="571" 
d="M190 457v-289q0 -41 22.5 -62t73.5 -21q23 0 46.5 3.5t35.5 7.5l13 3v423q5 0 14 -0.5t31.5 -4t39.5 -9.5t31 -19.5t14 -31.5v-469q-39 21 -90 21q-24 0 -72.5 -10.5t-76.5 -10.5q-90 0 -151 38t-61 127v369q5 0 14 -0.5t31.5 -4.5t39.5 -10t31 -19t14 -31zM184 692h252
q1 -4 2 -9.5t0.5 -21t-4.5 -27t-18 -21t-36 -9.5h-253q-1 4 -2 9.5t-0.5 21t5.5 27t18.5 21t35.5 9.5z" />
    <glyph glyph-name="Ubreve" unicode="&#x16c;" 
d="M662 660v-446q0 -108 -86.5 -167t-214.5 -59t-214.5 59t-86.5 167v511q5 0 14.5 -0.5t32.5 -4t40.5 -9.5t32 -19.5t14.5 -31.5v-431q0 -66 45.5 -101.5t121.5 -35.5t121.5 35.5t45.5 101.5v496q5 0 14.5 -0.5t32.5 -4t40.5 -9.5t32 -19.5t14.5 -31.5zM362 850
q41 0 64.5 21t23.5 55q0 18 -8 37q33 -10 50 -33.5t17 -52.5q0 -43 -39 -77t-107 -34q-70 0 -109.5 33.5t-39.5 77.5q0 29 17 52.5t50 33.5q-8 -19 -8 -37q0 -34 24 -55t65 -21z" />
    <glyph glyph-name="ubreve" unicode="&#x16d;" horiz-adv-x="571" 
d="M190 457v-289q0 -41 22.5 -62t73.5 -21q23 0 46.5 3.5t35.5 7.5l13 3v423q5 0 14 -0.5t31.5 -4t39.5 -9.5t31 -19.5t14 -31.5v-469q-39 21 -90 21q-24 0 -72.5 -10.5t-76.5 -10.5q-90 0 -151 38t-61 127v369q5 0 14 -0.5t31.5 -4.5t39.5 -10t31 -19t14 -31zM282 666
q41 0 64.5 21t23.5 55q0 18 -8 37q33 -10 50 -33.5t17 -52.5q0 -43 -39 -77t-107 -34q-70 0 -109.5 33.5t-39.5 77.5q0 29 17 52.5t50 33.5q-8 -19 -8 -37q0 -34 24 -55t65 -21z" />
    <glyph glyph-name="Uring" unicode="&#x16e;" 
d="M662 660v-446q0 -108 -86.5 -167t-214.5 -59t-214.5 59t-86.5 167v511q5 0 14.5 -0.5t32.5 -4t40.5 -9.5t32 -19.5t14.5 -31.5v-431q0 -66 45.5 -101.5t121.5 -35.5t121.5 35.5t45.5 101.5v496q5 0 14.5 -0.5t32.5 -4t40.5 -9.5t32 -19.5t14.5 -31.5zM396 841v26
q0 24 -35 24q-20 0 -26.5 -6t-6.5 -18v-26q0 -12 6.5 -17.5t26.5 -5.5q35 0 35 23zM464 878v-48q0 -31 -27.5 -48t-74.5 -17t-74.5 17t-27.5 48v48q0 30 28 48t74 18q47 0 74.5 -17.5t27.5 -48.5z" />
    <glyph glyph-name="uring" unicode="&#x16f;" horiz-adv-x="571" 
d="M190 457v-289q0 -41 22.5 -62t73.5 -21q23 0 46.5 3.5t35.5 7.5l13 3v423q5 0 14 -0.5t31.5 -4t39.5 -9.5t31 -19.5t14 -31.5v-469q-39 21 -90 21q-24 0 -72.5 -10.5t-76.5 -10.5q-90 0 -151 38t-61 127v369q5 0 14 -0.5t31.5 -4.5t39.5 -10t31 -19t14 -31zM316 657v26
q0 24 -35 24q-20 0 -26.5 -6t-6.5 -18v-26q0 -12 6.5 -17.5t26.5 -5.5q35 0 35 23zM384 694v-48q0 -31 -27.5 -48t-74.5 -17t-74.5 17t-27.5 48v48q0 30 28 48t74 18q47 0 74.5 -17.5t27.5 -48.5z" />
    <glyph glyph-name="Uhungarumlaut" unicode="&#x170;" 
d="M662 660v-446q0 -108 -86.5 -167t-214.5 -59t-214.5 59t-86.5 167v511q5 0 14.5 -0.5t32.5 -4t40.5 -9.5t32 -19.5t14.5 -31.5v-431q0 -66 45.5 -101.5t121.5 -35.5t121.5 35.5t45.5 101.5v496q5 0 14.5 -0.5t32.5 -4t40.5 -9.5t32 -19.5t14.5 -31.5zM471 966
q48 -6 68 -32.5t8.5 -61t-50.5 -63.5l-59 -44q-2 0 -5.5 1t-12.5 4t-16.5 6.5t-15 9.5t-11 12t-1.5 14.5t11 17.5l33 33q38 38 50.5 60t0.5 43zM272 966q73 -10 84 -51t-44 -84l-53 -42q-2 0 -5 1l-11 3.5t-14.5 6t-13 9t-9.5 11.5t-1 15t11 18q49 53 58.5 71t-2.5 42z" />
    <glyph glyph-name="uhungarumlaut" unicode="&#x171;" horiz-adv-x="571" 
d="M190 457v-289q0 -41 22.5 -62t73.5 -21q23 0 46.5 3.5t35.5 7.5l13 3v423q5 0 14 -0.5t31.5 -4t39.5 -9.5t31 -19.5t14 -31.5v-469q-39 21 -90 21q-24 0 -72.5 -10.5t-76.5 -10.5q-90 0 -151 38t-61 127v369q5 0 14 -0.5t31.5 -4.5t39.5 -10t31 -19t14 -31zM391 782
q48 -6 68 -32.5t8.5 -61t-50.5 -63.5l-59 -44q-2 0 -5.5 1t-12.5 4t-16.5 6.5t-15 9.5t-11 12t-1.5 14.5t11 17.5l33 33q38 38 50.5 60t0.5 43zM192 782q73 -10 84 -51t-44 -84l-53 -42q-2 0 -5 1l-11 3.5t-14.5 6t-13 9t-9.5 11.5t-1 15t11 18q49 53 58.5 71t-2.5 42z" />
    <glyph glyph-name="Uogonek" unicode="&#x172;" 
d="M662 660v-446q0 -124 -117 -186q-73 -39 -100 -68q-30 -33 -30 -70q0 -19 12 -31t29 -12q13 0 29.5 6t26.5 12t10 7q0 -4 -1 -11.5t-7 -26.5t-16.5 -33t-31.5 -26t-50 -12q-55 0 -87.5 29t-32.5 83q0 62 73 113h-8q-128 0 -214.5 59t-86.5 167v511q5 0 14.5 -0.5t32.5 -4
t40.5 -9.5t32 -19.5t14.5 -31.5v-431q0 -66 45.5 -101.5t121.5 -35.5t121.5 35.5t45.5 101.5v496q5 0 14.5 -0.5t32.5 -4t40.5 -9.5t32 -19.5t14.5 -31.5z" />
    <glyph glyph-name="uogonek" unicode="&#x173;" horiz-adv-x="571" 
d="M190 457v-289q0 -41 22.5 -62t73.5 -21q23 0 46.5 3.5t35.5 7.5l13 3v423q5 0 14 -0.5t31.5 -4t39.5 -9.5t31 -19.5t14 -31.5v-425q-41 -36 -60 -55t-35.5 -44.5t-16.5 -49.5q0 -16 10.5 -26t28.5 -10q15 0 32 6.5t26 12.5l9 6q0 -4 -1 -11.5t-7 -26.5t-16.5 -33
t-31.5 -26t-50 -12q-55 0 -87.5 29t-32.5 83q0 68 94 129q-7 -1 -30 -6t-39 -7.5t-32 -2.5q-90 0 -151 38t-61 127v369q5 0 14 -0.5t31.5 -4.5t39.5 -10t31 -19t14 -31z" />
    <glyph glyph-name="Ydieresis" unicode="&#x178;" horiz-adv-x="624" 
d="M245 55v243q-53 53 -93 123.5t-78.5 155t-71.5 135.5q36 9 61 9q81 0 113 -65l46 -93q63 -129 90 -163q11 14 23 35t19.5 36l23 45.5l21.5 42.5l49 97q33 65 113 65q9 0 24.5 -2.5t26.5 -4.5l10 -3q-28 -46 -69 -133.5t-82 -157.5t-92 -122v-308q-5 0 -14.5 0.5t-32.5 4
t-40.5 9.5t-32 19.5t-14.5 31.5zM337 808v84h80q15 0 25 -9.5t10 -19.5v-83h-80q-16 0 -25.5 8.5t-9.5 19.5zM158 808v84h80q15 0 25 -9.5t10 -19.5v-83h-80q-16 0 -25.5 8.5t-9.5 19.5z" />
    <glyph glyph-name="Zacute" unicode="&#x179;" horiz-adv-x="593" 
d="M508 0h-480q-5 77 23.5 144t77.5 121t101.5 104t103 115t74.5 132h-366q0 4 0.5 10.5t4.5 24t11 30.5t23 23.5t37 10.5h443q0 -82 -36.5 -163.5t-90 -145t-108 -119t-97 -105.5t-49.5 -84h292q38 0 65.5 4t36.5 8l8 5q-7 -115 -74 -115zM335 966q48 -6 70.5 -33.5
t13.5 -62.5t-48 -64l-59 -44l-38 13q-54 24 -23 55l33 33q38 38 50.5 60t0.5 43z" />
    <glyph glyph-name="zacute" unicode="&#x17a;" horiz-adv-x="475" 
d="M304 416h-269q0 4 0.5 10.5t4.5 24t11 30.5t22.5 23.5t36.5 10.5h348q-5 -17 -11.5 -48t-9.5 -44q-13 -46 -48.5 -92.5t-73.5 -79t-82.5 -75t-67.5 -77.5h295q0 -4 -0.5 -10.5t-4.5 -24t-11 -30.5t-22.5 -23.5t-36.5 -10.5h-356q-6 27 -6 43q0 45 22 86t57.5 75
t72.5 65.5t74 70t55 76.5zM267 782q48 -6 70.5 -33.5t13.5 -62.5t-48 -64l-59 -44l-38 13q-54 24 -23 55l33 33q38 38 50.5 60t0.5 43z" />
    <glyph glyph-name="Zdotaccent" unicode="&#x17b;" horiz-adv-x="593" 
d="M508 0h-480q-5 77 23.5 144t77.5 121t101.5 104t103 115t74.5 132h-366q0 4 0.5 10.5t4.5 24t11 30.5t23 23.5t37 10.5h443q0 -82 -36.5 -163.5t-90 -145t-108 -119t-97 -105.5t-49.5 -84h292q38 0 65.5 4t36.5 8l8 5q-7 -115 -74 -115zM246 808v83h88q12 0 24.5 -9.5
t12.5 -19.5v-83h-88q-15 0 -26 9t-11 20z" />
    <glyph glyph-name="zdotaccent" unicode="&#x17c;" horiz-adv-x="475" 
d="M304 416h-269q0 4 0.5 10.5t4.5 24t11 30.5t22.5 23.5t36.5 10.5h348q-5 -17 -11.5 -48t-9.5 -44q-13 -46 -48.5 -92.5t-73.5 -79t-82.5 -75t-67.5 -77.5h295q0 -4 -0.5 -10.5t-4.5 -24t-11 -30.5t-22.5 -23.5t-36.5 -10.5h-356q-6 27 -6 43q0 45 22 86t57.5 75
t72.5 65.5t74 70t55 76.5zM178 624v83h88q12 0 24.5 -9.5t12.5 -19.5v-83h-88q-15 0 -26 9t-11 20z" />
    <glyph glyph-name="Zcaron" unicode="&#x17d;" horiz-adv-x="593" 
d="M508 0h-480q-5 77 23.5 144t77.5 121t101.5 104t103 115t74.5 132h-366q0 4 0.5 10.5t4.5 24t11 30.5t23 23.5t37 10.5h443q0 -82 -36.5 -163.5t-90 -145t-108 -119t-97 -105.5t-49.5 -84h292q38 0 65.5 4t36.5 8l8 5q-7 -115 -74 -115zM243 966q-13 -20 3 -47.5
t39 -44.5l22 -18q2 1 5 3.5l12.5 10.5t16.5 15t16.5 18.5t12.5 20.5t5.5 21t-5.5 21q85 -31 85 -67q0 -31 -73 -89l-60 -45h-30q-98 73 -119 99q-36 46 18 78q20 12 52 24z" />
    <glyph glyph-name="zcaron" unicode="&#x17e;" horiz-adv-x="475" 
d="M304 416h-269q0 4 0.5 10.5t4.5 24t11 30.5t22.5 23.5t36.5 10.5h348q-5 -17 -11.5 -48t-9.5 -44q-13 -46 -48.5 -92.5t-73.5 -79t-82.5 -75t-67.5 -77.5h295q0 -4 -0.5 -10.5t-4.5 -24t-11 -30.5t-22.5 -23.5t-36.5 -10.5h-356q-6 27 -6 43q0 45 22 86t57.5 75
t72.5 65.5t74 70t55 76.5zM175 782q-13 -20 3 -47.5t38 -44.5l23 -18q2 1 5 3.5l12.5 10.5t16.5 15t16.5 18.5t12.5 20.5t5.5 21t-5.5 21q85 -31 85 -67q0 -31 -73 -89l-60 -45h-30q-98 73 -119 99q-36 46 18 78q20 12 52 24z" />
    <glyph glyph-name="florin" unicode="&#x192;" horiz-adv-x="505" 
d="M200 322l-64 -406q-10 -63 -50.5 -109t-89.5 -46q-44 0 -99 55q46 0 76 43t38 93l101 639q12 80 84.5 127t172.5 47q178 0 178 -84q0 -56 -58 -111q-5 37 -13.5 55t-36.5 30t-81 12q-102 0 -118 -95l-24 -151h189q0 -2 -1 -5.5l-4 -14t-7 -19.5t-11.5 -20.5t-16.5 -20
t-21.5 -14t-27.5 -5.5h-116z" />
    <glyph glyph-name="Scommaaccent" unicode="&#x218;" horiz-adv-x="654" 
d="M40 515q0 212 287 212q263 0 263 -124q0 -41 -33 -101q0 121 -229 121q-150 0 -150 -93q0 -29 18.5 -48t49.5 -27t70 -15.5t80 -12.5t80 -20t70 -36.5t49.5 -62.5t18.5 -98q0 -107 -80.5 -164t-213.5 -57q-50 0 -94.5 6.5t-84 20.5t-62.5 39t-23 59q0 41 36 93
q0 -115 228 -115q77 0 116 28.5t39 80.5q0 37 -24 60t-62.5 33t-84.5 17t-92.5 18t-85 29.5t-62.5 58.5t-24 98zM275 -36h85q43 0 43 -38v-2q0 -71 -20.5 -108t-73.5 -37q-37 0 -63 21q19 4 29.5 18t12 33t1 33t-3.5 27z" />
    <glyph glyph-name="scommaaccent" unicode="&#x219;" horiz-adv-x="511" 
d="M354 154q0 26 -24 39.5t-60 16t-78 9t-78 17t-60 42.5t-24 83q0 82 56.5 124t164.5 42q93 0 148 -26t55 -75q0 -42 -38 -90q0 44 -44 68t-111 24q-103 0 -103 -61q0 -22 24 -33.5t60 -13t77.5 -9.5t77.5 -21t60 -49t24 -92q0 -76 -58.5 -118.5t-171.5 -42.5
q-97 0 -155 28t-58 79q0 44 47 94q1 -40 28 -64.5t61 -32t77 -7.5q39 0 71 16.5t32 52.5zM205 -36h85q43 0 43 -38v-2q0 -71 -20.5 -108t-73.5 -37q-37 0 -63 21q19 4 29.5 18t12 33t1 33t-3.5 27z" />
    <glyph glyph-name="uni021A" unicode="&#x21a;" horiz-adv-x="577" 
d="M480 616h-126v-626q-5 0 -14.5 0.5t-32.5 4t-40.5 9.5t-32 19.5t-14.5 31.5v561h-123q-95 0 -95 115q35 -16 111 -16h351q34 0 61.5 4t38.5 8l11 4q0 -115 -95 -115zM233 -36h85q43 0 43 -38v-2q0 -71 -20.5 -108t-73.5 -37q-37 0 -63 21q19 4 29.5 18t12 33t1 33
t-3.5 27z" />
    <glyph glyph-name="uni021B" unicode="&#x21b;" horiz-adv-x="445" 
d="M61 164v448q129 0 129 -85v-36h204q0 -4 -0.5 -10.5t-4.5 -23.5t-11 -30t-22.5 -23.5t-35.5 -10.5h-130v-201q0 -54 20.5 -80t74.5 -26q50 0 84 25t34 80q42 -47 42 -89q0 -49 -46 -81.5t-132 -32.5q-98 0 -152 46.5t-54 129.5zM197 -36h85q43 0 43 -38v-2
q0 -71 -20.5 -108t-73.5 -37q-37 0 -63 21q19 4 29.5 18t12 33t1 33t-3.5 27z" />
    <glyph glyph-name="circumflex" unicode="&#x2c6;" horiz-adv-x="489" 
d="M321 581q13 20 -3 47.5t-38 45.5l-23 17q-2 -1 -5 -3.5l-12.5 -10.5t-16.5 -15t-16.5 -18.5t-12.5 -20.5t-5.5 -21t5.5 -21q-28 10 -47 20t-27.5 21t-11.5 21t5.5 23t18.5 24t31.5 27.5t41.5 30l52 34.5l52 -34t42 -29.5t32 -28t18.5 -24.5t5.5 -23t-11.5 -21t-27.5 -21
t-47 -20z" />
    <glyph glyph-name="caron" unicode="&#x2c7;" horiz-adv-x="489" 
d="M222 782q-13 -20 3 -47.5t39 -44.5l22 -18q2 1 5 3.5l12.5 10.5t16.5 15t16.5 18.5t12.5 20.5t5.5 21t-5.5 21q85 -31 85 -67q0 -31 -73 -89l-60 -45h-30q-98 73 -119 99q-36 46 18 78q20 12 52 24z" />
    <glyph glyph-name="breve" unicode="&#x2d8;" horiz-adv-x="571" 
d="M287 666q41 0 64.5 21t23.5 55q0 18 -8 37q33 -10 50 -33.5t17 -52.5q0 -43 -39 -77t-107 -34q-70 0 -109.5 33.5t-39.5 77.5q0 29 17 52.5t50 33.5q-8 -19 -8 -37q0 -34 24 -55t65 -21z" />
    <glyph glyph-name="dotaccent" unicode="&#x2d9;" horiz-adv-x="243" 
d="M57 624v83h88q12 0 24.5 -9.5t12.5 -19.5v-83h-88q-15 0 -26 9t-11 20z" />
    <glyph glyph-name="ring" unicode="&#x2da;" horiz-adv-x="341" 
d="M205 657v26q0 24 -35 24q-20 0 -26.5 -6t-6.5 -18v-26q0 -12 6.5 -17.5t26.5 -5.5q35 0 35 23zM273 694v-48q0 -31 -27.5 -48t-74.5 -17t-74.5 17t-27.5 48v48q0 30 28 48t74 18q47 0 74.5 -17.5t27.5 -48.5z" />
    <glyph glyph-name="ogonek" unicode="&#x2db;" horiz-adv-x="833" 
d="M390 42l56 -18l-4 -2q-4 -2 -11 -6.5l-16 -10.5t-19 -14t-20 -17t-19.5 -20t-16.5 -21.5t-11 -22.5t-4 -24q0 -18 12 -28.5t31 -10.5q6 0 12.5 0.5t12.5 2l12 3t10.5 3t8.5 3t6 2.5l1 1q1 -38 -34.5 -69t-79.5 -31q-45 0 -78.5 28.5t-33.5 78.5q0 40 25.5 74.5t63.5 55
t60 30t35 13.5h1z" />
    <glyph glyph-name="tilde" unicode="&#x2dc;" horiz-adv-x="389" 
d="M54 608q-22 29 -4.5 72.5t59.5 43.5q26 0 90 -23t94 -23q31 0 49 26q21 -32 6 -74.5t-61 -42.5q-27 0 -90.5 23t-92.5 23q-32 0 -50 -25z" />
    <glyph glyph-name="hungarumlaut" unicode="&#x2dd;" horiz-adv-x="468" 
d="M346 782q48 -6 68 -32.5t8.5 -61t-50.5 -63.5l-59 -44q-2 0 -5.5 1t-12.5 4t-16.5 6.5t-15 9.5t-11 12t-1.5 14.5t11 17.5l33 33q38 38 50.5 60t0.5 43zM147 782q73 -10 84 -51t-44 -84l-53 -42q-2 0 -5 1l-11 3.5t-14.5 6t-13 9t-9.5 11.5t-1 15t11 18q49 53 58.5 71
t-2.5 42z" />
    <glyph glyph-name="Omega" unicode="&#x3a9;" horiz-adv-x="1113" 
d="M524 319v78q0 97 42 162t118 65q98 0 103 -79q-33 29 -71 29q-57 0 -90 -50.5t-33 -128.5v-78q0 -97 -42 -162t-118 -65q-98 0 -103 79q33 -29 71 -29q57 0 90 50.5t33 128.5zM277 618q-21 -38 -21 -67q0 -30 23.5 -55t57 -44l66.5 -39.5t56.5 -52.5t23.5 -73
q0 -49 -30 -78.5t-71 -29.5t-71 28q1 -7 1 -21q-4 -40 -37 -68.5t-74 -28.5q-87 0 -134 72t-47 168q0 72 27.5 137t84.5 109t131 44q3 0 7.5 -0.5t6.5 -0.5zM836 99q21 38 21 67q0 30 -23.5 55t-56.5 44l-66.5 39.5t-57 52.5t-23.5 73q0 49 30 78.5t71 29.5t71 -28
q-1 7 -1 21q4 40 37 68.5t74 28.5q87 0 134 -72t47 -168q0 -72 -27.5 -137t-84.5 -109t-131 -44q-3 0 -7.5 0.5t-6.5 0.5z" />
    <glyph glyph-name="Omega" unicode="&#x2126;" horiz-adv-x="1113" 
d="M524 319v78q0 97 42 162t118 65q98 0 103 -79q-33 29 -71 29q-57 0 -90 -50.5t-33 -128.5v-78q0 -97 -42 -162t-118 -65q-98 0 -103 79q33 -29 71 -29q57 0 90 50.5t33 128.5zM277 618q-21 -38 -21 -67q0 -30 23.5 -55t57 -44l66.5 -39.5t56.5 -52.5t23.5 -73
q0 -49 -30 -78.5t-71 -29.5t-71 28q1 -7 1 -21q-4 -40 -37 -68.5t-74 -28.5q-87 0 -134 72t-47 168q0 72 27.5 137t84.5 109t131 44q3 0 7.5 -0.5t6.5 -0.5zM836 99q21 38 21 67q0 30 -23.5 55t-56.5 44l-66.5 39.5t-57 52.5t-23.5 73q0 49 30 78.5t71 29.5t71 -28
q-1 7 -1 21q4 40 37 68.5t74 28.5q87 0 134 -72t47 -168q0 -72 -27.5 -137t-84.5 -109t-131 -44q-3 0 -7.5 0.5t-6.5 0.5z" />
    <glyph glyph-name="pi" unicode="&#x3c0;" horiz-adv-x="1113" 
d="M524 216v78q0 97 42 162t118 65q98 0 103 -79q-33 29 -71 29q-57 0 -90 -50.5t-33 -128.5v-78q0 -97 -42 -162t-118 -65q-98 0 -103 79q33 -29 71 -29q57 0 90 50.5t33 128.5zM277 515q-21 -38 -21 -67q0 -30 23.5 -55t57 -44l66.5 -39.5t56.5 -52.5t23.5 -73
q0 -49 -30 -78.5t-71 -29.5t-71 28q1 -7 1 -21q-4 -40 -37 -68.5t-74 -28.5q-87 0 -134 72t-47 168q0 72 27.5 137t84.5 109t131 44q3 0 7.5 -0.5t6.5 -0.5zM836 -4q21 38 21 67q0 30 -23.5 55t-56.5 44l-66.5 39.5t-57 52.5t-23.5 73q0 49 30 78.5t71 29.5t71 -28
q-1 7 -1 21q4 40 37 68.5t74 28.5q87 0 134 -72t47 -168q0 -72 -27.5 -137t-84.5 -109t-131 -44q-3 0 -7.5 0.5t-6.5 0.5z" />
    <glyph glyph-name="endash" unicode="&#x2013;" horiz-adv-x="730" 
d="M80 307h626q1 -4 2 -11t0.5 -24.5t-4.5 -31t-18 -24.5t-36 -11h-627q-1 4 -2 11t-0.5 24.5t5.5 31t18.5 24.5t35.5 11z" />
    <glyph glyph-name="emdash" unicode="&#x2014;" horiz-adv-x="827" 
d="M80 307h723q1 -4 2 -11t0.5 -24.5t-4.5 -31t-18 -24.5t-36 -11h-724q-1 4 -2 11t-0.5 24.5t5.5 31t18.5 24.5t35.5 11z" />
    <glyph glyph-name="quoteleft" unicode="&#x2018;" horiz-adv-x="256" 
d="M190 477h-33h-52q-43 0 -43 38v55q0 71 20.5 108t73.5 37q37 0 63 -21q-25 -6 -37.5 -29t-11.5 -44.5t2 -37.5z" />
    <glyph glyph-name="quoteright" unicode="&#x2019;" horiz-adv-x="256" 
d="M66 715h33h52q43 0 43 -38v-55q0 -71 -20.5 -108t-73.5 -37q-37 0 -63 21q25 6 37.5 29t11.5 44.5t-2 37.5z" />
    <glyph glyph-name="quotesinglbase" unicode="&#x201a;" horiz-adv-x="256" 
d="M66 125h33h52q43 0 43 -38v-55q0 -71 -20.5 -108t-73.5 -37q-37 0 -63 21q25 6 37.5 29t11.5 44.5t-2 37.5z" />
    <glyph glyph-name="quotedblleft" unicode="&#x201c;" horiz-adv-x="437" 
d="M190 477h-33h-52q-43 0 -43 38v55q0 71 20.5 108t73.5 37q37 0 63 -21q-25 -6 -37.5 -29t-11.5 -44.5t2 -37.5zM371 477h-33h-52q-43 0 -43 38v55q0 71 20.5 108t73.5 37q37 0 63 -21q-25 -6 -37.5 -29t-11.5 -44.5t2 -37.5z" />
    <glyph glyph-name="quotedblright" unicode="&#x201d;" horiz-adv-x="437" 
d="M66 715h33h52q43 0 43 -38v-55q0 -71 -20.5 -108t-73.5 -37q-37 0 -63 21q25 6 37.5 29t11.5 44.5t-2 37.5zM247 715h33h52q43 0 43 -38v-55q0 -71 -20.5 -108t-73.5 -37q-37 0 -63 21q25 6 37.5 29t11.5 44.5t-2 37.5z" />
    <glyph glyph-name="quotedblbase" unicode="&#x201e;" horiz-adv-x="437" 
d="M66 125h33h52q43 0 43 -38v-55q0 -71 -20.5 -108t-73.5 -37q-37 0 -63 21q25 6 37.5 29t11.5 44.5t-2 37.5zM247 125h33h52q43 0 43 -38v-55q0 -71 -20.5 -108t-73.5 -37q-37 0 -63 21q25 6 37.5 29t11.5 44.5t-2 37.5z" />
    <glyph glyph-name="dagger" unicode="&#x2020;" horiz-adv-x="420" 
d="M70 515h76v250q5 0 14 -0.5t31.5 -4t39.5 -9.5t31 -19.5t14 -31.5v-185h131q3 -14 3 -31q0 -71 -59 -71h-75v-655q-5 0 -14 0.5t-31.5 4t-39.5 9.5t-31 19.5t-14 31.5v590h-133q-3 12 -3 29q0 73 60 73z" />
    <glyph glyph-name="daggerdbl" unicode="&#x2021;" horiz-adv-x="421" 
d="M70 102h76v311h-133q-1 4 -2 11t-0.5 24.5t5.5 31t18.5 24.5t35.5 11h76v250q5 0 14 -0.5t31.5 -4t39.5 -9.5t31 -19.5t14 -31.5v-185h131q1 -4 2 -11t0.5 -24.5t-4.5 -31t-18 -24.5t-36 -11h-75v-311h131q1 -4 2 -11t0.5 -24.5t-4.5 -31t-18 -24.5t-36 -11h-75v-242
q-5 0 -14 0.5t-31.5 4t-39.5 9.5t-31 19.5t-14 31.5v177h-133q-1 4 -2 11t-0.5 24.5t5.5 31t18.5 24.5t35.5 11z" />
    <glyph glyph-name="bullet" unicode="&#x2022;" horiz-adv-x="487" 
d="M437 305v-97q0 -68 -48 -105.5t-146 -37.5q-193 0 -193 143v97q0 142 193 142q194 0 194 -142z" />
    <glyph glyph-name="ellipsis" unicode="&#x2026;" horiz-adv-x="735" 
d="M62 31v94h82q15 0 27 -9.5t12 -21.5v-94h-81q-16 0 -28 9t-12 22zM307 31v94h82q15 0 27 -9.5t12 -21.5v-94h-81q-16 0 -28 9t-12 22zM552 31v94h82q15 0 27 -9.5t12 -21.5v-94h-81q-16 0 -28 9t-12 22z" />
    <glyph glyph-name="perthousand" unicode="&#x2030;" horiz-adv-x="1032" 
d="M998 415v-114q0 -50 -43.5 -76.5t-118.5 -26.5q-38 0 -65 6q5 -9 5 -25v-86q0 -50 -43.5 -76.5t-118.5 -26.5t-118.5 26.5t-43.5 76.5v114q0 49 44 77.5t118 28.5q37 0 64 -9q-4 13 -4 31v80q0 49 44 77.5t118 28.5t118 -28.5t44 -77.5zM358 618v-114q0 -50 -43.5 -76.5
t-118.5 -26.5t-118.5 26.5t-43.5 76.5v114q0 49 44 77.5t118 28.5t118 -28.5t44 -77.5zM155 183l463 463q52 -52 52 -82q0 -20 -18 -38l-463 -463q-51 49 -51 82q0 21 17 38zM667 119v65q0 23 -11 34.5t-42 11.5t-42 -11.5t-11 -34.5v-65q0 -24 10.5 -35t42.5 -11
q31 0 42 11t11 35zM249 530v65q0 23 -11 34.5t-42 11.5t-42 -11.5t-11 -34.5v-65q0 -24 10.5 -35t42.5 -11q31 0 42 11t11 35zM889 327v65q0 23 -11 34.5t-42 11.5t-42 -11.5t-11 -34.5v-65q0 -24 10.5 -35t42.5 -11q31 0 42 11t11 35z" />
    <glyph glyph-name="guilsinglleft" unicode="&#x2039;" horiz-adv-x="427" 
d="M174 255l183 -183q-16 -32 -50 -46.5t-64 9.5l-164 164q-56 56 1 113l201 201q93 -57 46 -104z" />
    <glyph glyph-name="guilsinglright" unicode="&#x203a;" horiz-adv-x="427" 
d="M70 72l183 183l-153 154q-47 47 46 104l201 -201q57 -57 1 -113l-164 -164q-30 -24 -64 -9.5t-50 46.5z" />
    <glyph glyph-name="fraction" unicode="&#x2044;" horiz-adv-x="569" 
d="M30 177l473 471q84 -79 36 -127l-473 -471q-84 79 -36 127z" />
    <glyph glyph-name="Euro" unicode="&#x20ac;" horiz-adv-x="644" 
d="M349 623q-76 0 -114.5 -33t-40.5 -113h314q0 -4 -0.5 -10t-5.5 -22t-14 -28t-28.5 -22t-46.5 -10h-219v-68h254q0 -4 -0.5 -10t-5.5 -22t-14 -28t-28.5 -22t-46.5 -10h-158q11 -134 154 -134q70 0 131.5 28t62.5 70q31 -46 31 -82q0 -53 -67.5 -86t-157.5 -33
q-125 0 -207 59.5t-82 186.5v247q0 66 22.5 115t62.5 77t91 41t113 13q45 0 89 -9.5t81 -37t37 -68.5q0 -43 -39 -99q0 38 -30 64t-66 36t-72 10z" />
    <glyph glyph-name="trademark" unicode="&#x2122;" horiz-adv-x="1096" 
d="M374 542v91h-70v-315q-5 0 -12.5 0.5t-27.5 3t-35.5 7.5t-28 15.5t-12.5 24.5v264h-68v-91q-9 1 -22.5 4.5t-35.5 18t-22 33.5v117h413v-117q0 -19 -19.5 -33t-39.5 -19zM905 369v154l-101 -144q-8 0 -21.5 2t-41.5 13t-41 28l-71 95v-199q-5 0 -12.5 0.5t-27.5 3
t-35.5 7.5t-28 15.5t-12.5 24.5v346h67q53 -1 81 -42l107 -158l133 200h35q3 0 9 -0.5t20.5 -3t26 -7.5t20.5 -15.5t9 -24.5v-346q-5 0 -12.5 0.5t-27.5 3t-35.5 7.5t-28 15.5t-12.5 24.5z" />
    <glyph glyph-name="partialdiff" unicode="&#x2202;" horiz-adv-x="786" 
d="M487 519h-426q-22 0 -35 15.5t-14 31.5l-2 15h490q92 0 149 -43.5t57 -115.5q0 -35 -16 -60.5t-45 -29.5q14 30 14 60q0 58 -44 92t-128 35zM283 135q7 -1 19 -1q45 0 69 25t31.5 63t13.5 78t25.5 76.5t56.5 51.5q21 8 40 8q37 0 64.5 -26t27.5 -68q0 -18 -6 -33
q24 9 46 9q48 0 77 -36t29 -82q0 -91 -85.5 -148.5t-188.5 -57.5q-79 0 -141 36.5t-78 104.5z" />
    <glyph glyph-name="product" unicode="&#x220f;" horiz-adv-x="786" 
d="M503 135q-16 -68 -78 -104.5t-141 -36.5q-103 0 -188.5 57.5t-85.5 148.5q0 46 29 82t77 36q22 0 46 -9q-6 15 -6 33q0 42 27.5 68t64.5 26q19 0 40 -8q37 -15 56.5 -51.5t25.5 -76.5t13.5 -78t31.5 -63t69 -25q12 0 19 1zM725 519h-426q-84 -1 -128 -35t-44 -92
q0 -30 14 -60q-29 4 -45 29.5t-16 60.5q0 72 57 115.5t149 43.5h490q0 -3 -0.5 -7t-3.5 -14.5t-7.5 -19t-15 -15t-24.5 -6.5z" />
    <glyph glyph-name="summation" unicode="&#x2211;" horiz-adv-x="851" 
d="M395 7q20 36 20 62q0 28 -21.5 51.5t-52.5 41l-62.5 36.5t-53 48.5t-21.5 67.5q0 46 28 73t66 27t66 -26q-1 7 -1 20q4 38 34.5 64t68.5 26q80 0 124 -66.5t44 -156.5q0 -105 -61.5 -187t-164.5 -82q-2 0 -6.5 0.5t-6.5 0.5zM70 131v177q0 93 43 152.5t114 59.5
q88 0 98 -63q-27 14 -59 14q-60 0 -96 -44.5t-36 -131.5v-151q0 -86 54.5 -142.5t168.5 -56.5h129q113 0 172 57.5t59 141.5v220q0 88 -35 132t-95 44q-27 0 -59 -10q10 57 98 57q71 0 113 -58.5t42 -151.5v-246q0 -107 -79 -175.5t-217 -68.5h-129q-137 0 -211.5 68
t-74.5 176z" />
    <glyph glyph-name="minus" unicode="&#x2212;" horiz-adv-x="521" 
d="M120 322h337q1 -4 2 -11t0.5 -24.5t-4.5 -31t-18 -24.5t-36 -11h-338q-1 4 -2 11t-0.5 24.5t5.5 31t18.5 24.5t35.5 11z" />
    <glyph glyph-name="radical" unicode="&#x221a;" horiz-adv-x="600" 
d="M136 208q18 31 59 62q-23 5 -40 5q-63 0 -108 -56q-12 35 -12 77q0 37 27.5 64t87.5 27q33 0 85 -19q-27 87 -117 104q5 7 13.5 16.5t36 26t54.5 16.5q38 0 72 -35.5t44 -111.5q42 45 42 96q0 26 -10 56q5 0 12.5 -1.5t27.5 -8t35 -16.5t27.5 -30t12.5 -45
q0 -67 -81 -134q21 -7 42 -7q61 0 107 56q12 -33 12 -75q0 -37 -27.5 -64t-88.5 -27q-32 0 -86 19q29 -91 119 -104q-5 -7 -14 -16.5t-36.5 -26t-54.5 -16.5q-37 0 -70 34.5t-47 113.5q-42 -47 -42 -96q0 -26 12 -57q-5 0 -13 1.5t-28 8.5t-35.5 16.5t-28 29.5t-12.5 45
q0 30 23 72z" />
    <glyph glyph-name="infinity" unicode="&#x221e;" horiz-adv-x="678" 
d="M339 740q51 50 51 90q0 22 -12 45q54 -18 86 -39.5t32 -54.5q0 -38 -50 -77l-27 -21q189 -192 189 -379v-314q-11 0 -26 1.5t-43 6.5t-46.5 20t-18.5 37v215h-270v-280q-11 0 -26 1.5t-43 6.5t-46.5 20t-18.5 37v249q0 190 189 379l-27 22v-1q-51 42 -51 77q0 55 119 94
q-12 -23 -12 -45q0 -43 51 -90zM470 366q-13 66 -54 137.5t-78 114.5q-39 -41 -80.5 -111.5t-50.5 -140.5h263z" />
    <glyph glyph-name="integral" unicode="&#x222b;" horiz-adv-x="851" 
d="M456 7q-2 0 -6.5 -0.5t-6.5 -0.5q-103 0 -164.5 82t-61.5 187q0 90 44 156.5t124 66.5q38 0 68.5 -26t34.5 -64q0 -13 -1 -20q28 26 66 26t66 -27t28 -73q0 -38 -21.5 -67.5t-52.5 -48.5l-62.5 -36.5t-53 -41t-21.5 -51.5q0 -26 20 -62zM781 308v-177q0 -108 -74.5 -176
t-211.5 -68h-129q-138 0 -217 68.5t-79 175.5v246q0 93 42 151.5t113 58.5q88 0 98 -57q-32 10 -59 10q-60 0 -95 -44t-35 -132v-220q0 -84 59 -141.5t172 -57.5h129q114 0 168.5 56.5t54.5 142.5v151q0 87 -36 131.5t-96 44.5q-32 0 -59 -14q10 63 98 63q71 0 114 -59.5
t43 -152.5z" />
    <glyph glyph-name="approxequal" unicode="&#x2248;" horiz-adv-x="659" 
d="M144 445q63 0 187 -26t189 -26q20 0 32 1.5t31.5 12.5t37.5 32q37 -147 -106 -147q-63 0 -187 26t-188 26q-62 0 -100 -41q-22 68 5 105t99 37zM144 256q63 0 187 -26t189 -26q20 0 32 1.5t31.5 12.5t37.5 32q37 -147 -106 -147q-63 0 -187 26t-188 26q-62 0 -100 -41
q-22 68 5 105t99 37z" />
    <glyph glyph-name="notequal" unicode="&#x2260;" horiz-adv-x="503" 
d="M120 394h134l33 122q8 -1 19 -3.5t26.5 -16.5t10.5 -35l-18 -67h115q16 -96 -55 -96h-85l-21 -78h161q16 -96 -55 -96h-131l-33 -125q-3 0 -7.5 1t-15.5 5t-19 9t-13 15.5t-2 23.5l19 71h-118q-11 35 3.5 65.5t51.5 30.5h88l21 78h-164q-11 35 3.5 65.5t51.5 30.5z" />
    <glyph glyph-name="lessequal" unicode="&#x2264;" horiz-adv-x="429" 
d="M184 400l164 -164q-18 -34 -54 -49.5t-67 10.5l-144 144q-32 32 -32.5 58t33.5 61l183 183q18 -11 31 -21t25 -25t10.5 -31.5t-17.5 -32.5zM119 102h255q10 -40 -3 -71t-55 -31h-255q-12 37 3 69.5t55 32.5z" />
    <glyph glyph-name="greaterequal" unicode="&#x2265;" horiz-adv-x="424" 
d="M66 236l164 164l-132 133q-16 16 -17.5 32.5t10.5 31.5t25 25t31 21l183 -183q34 -35 33.5 -61t-32.5 -58l-144 -144q-31 -26 -67 -10.5t-54 49.5zM114 102h255q10 -40 -3 -71t-55 -31h-255q-12 37 3 69.5t55 32.5z" />
    <glyph glyph-name="lozenge" unicode="&#x25ca;" horiz-adv-x="833" 
d="M189 613l25 -23q20 2 32 2q72 0 207 -30.5t185 -57.5l25 13q45 23 45 47q0 11 -8 26q76 -37 76 -75q0 -26 -38 -48l-38 -23q13 -33 14 -50l25 -225q1 -9 1 -26q0 -148 -212 -148q-47 0 -97 7q-167 21 -252.5 83.5t-85.5 156.5q0 8 2 28l30 234q4 28 18 51l-41 38
q-49 44 -47 71q0 43 93 43q-12 -9 -12 -21q0 -24 53 -73zM330 144l206 -30q2 0 5 -0.5t5 -0.5q61 0 61 59q0 6 -2 20l-8 27q-20 -22 -55 -22l-220 35q-34 9 -58 40l-8 -25q-2 -14 -2 -20q0 -67 76 -83zM605 345l-5 73l-89 18q-23 0 -23 -17l1 -74l91 -17h5q20 0 20 14v3z
M264 482l-5 -76q0 -20 27 -27l97 -16l2 76q0 7 -7.5 15t-17.5 10z" />
    <glyph glyph-name="st" unicode="&#xfb06;" horiz-adv-x="956" 
d="M354 154q0 26 -24 39.5t-60 16t-78 9t-78 17t-60 42.5t-24 83q0 82 56.5 124t164.5 42q58 0 99 -10q-14 71 36 113t129 42q82 0 134 -41t52 -127v-13h204q0 -4 -0.5 -10.5t-4.5 -23.5t-11 -30t-22.5 -23.5t-35.5 -10.5h-130v-201q0 -54 20.5 -80t74.5 -26q50 0 84 25
t34 80q42 -47 42 -89q0 -49 -46 -81.5t-132 -32.5q-98 0 -152 46.5t-54 129.5l-1 315q0 100 -74 100q-46 0 -61.5 -30t-3.5 -70h-1q23 -21 23 -53q0 -42 -38 -90q0 44 -44 68t-111 24q-103 0 -103 -61q0 -22 24 -33.5t60 -13t77.5 -9.5t77.5 -21t60 -49t24 -92
q0 -76 -58.5 -118.5t-171.5 -42.5q-97 0 -155 28t-58 79q0 44 47 94q1 -40 28 -64.5t61 -32t77 -7.5q39 0 71 16.5t32 52.5z" />
    <glyph glyph-name="CR" horiz-adv-x="280" 
 />
    <glyph glyph-name="kreska" horiz-adv-x="489" 
d="M181 609q29 113 29 118q0 23 -27 46q38 7 49 7q79 0 79 -66q0 -15 -12 -47.5t-24 -57.5l-12 -25q-18 -9 -36 -9q-11 0 -22 2.5t-19.5 10.5t-4.5 21z" />
    <glyph glyph-name="ct" horiz-adv-x="954" 
d="M699 504v-13h204q0 -4 -0.5 -10.5t-4.5 -23.5t-11 -30t-22.5 -23.5t-35.5 -10.5h-130v-201q0 -54 20.5 -80t74.5 -26q50 0 84 25t34 80q42 -47 42 -89q0 -49 -46 -81.5t-132 -32.5q-98 0 -152 46.5t-54 129.5l-1 315q0 100 -74 100q-45 0 -60.5 -28.5t-5.5 -67.5
q57 -54 -12 -147q0 93 -136 93q-43 0 -72 -24t-29 -79v-137q0 -101 101 -101q74 0 120 28.5t47 73.5q31 -44 31 -82q0 -54 -55.5 -87t-142.5 -33q-107 0 -169 47t-62 129v187q0 82 59 129t162 47q43 0 77 -7q-13 69 37 110.5t128 41.5q82 0 134 -41t52 -127z" />
    <glyph glyph-name="apple" horiz-adv-x="1019" 
d="M984 418v-252l-112 -66v-138l-241 -128l-120 64l-122 -64l-241 128v138l-113 66v252l113 65v137l241 129l122 -65l120 65l241 -129v-137zM938 178v227l-102 59v124l-218 115l-107 -59l-110 59l-217 -115v-124l-103 -59v-227l103 -58v-125l217 -116l110 60l107 -60
l218 116v125zM895 393v-203l-92 -54v-111l-195 -104l-97 53l-100 -53l-194 104v111l-91 54v203l91 54v111l194 104l100 -54l97 54l195 -104v-111zM368 531v-436q0 -24 23.5 -37.5t46.5 -15.5l24 -1v209h127q31 0 48.5 19t19.5 37l2 19h-197v133h187q22 0 34.5 18.5
t14.5 36.5l1 18h-331z" />
    <glyph glyph-name="commaaccent" horiz-adv-x="250" 
d="M61 -36h85q43 0 43 -38v-2q0 -71 -20.5 -108t-73.5 -37q-37 0 -63 21q19 4 29.5 18t12 33t1 33t-3.5 27z" />
    <glyph glyph-name="f.alt" horiz-adv-x="364" 
d="M60 58v551q0 78 44 124.5t118 46.5q88 0 107 -76q-87 0 -113 -29.5t-26 -100.5v-83h179q0 -4 -0.5 -10.5t-4.5 -24t-11.5 -30.5t-22.5 -23.5t-36 -10.5h-104v-399q-5 0 -14 0.5t-31.5 4t-39.5 9.5t-31 19.5t-14 31.5z" />
    <glyph glyph-name="ff.alt" horiz-adv-x="728" 
d="M424 58v334h-234v-399q-5 0 -14 0.5t-31.5 4t-39.5 9.5t-31 19.5t-14 31.5v521q0 79 67.5 127.5t161.5 48.5q111 0 158 -50q43 75 139 75q88 0 107 -76q-87 0 -113 -29.5t-26 -100.5v-83h179q0 -4 -0.5 -10.5t-4.5 -24t-11.5 -30.5t-22.5 -23.5t-36 -10.5h-104v-399
q-5 0 -14 0.5t-31.5 4t-39.5 9.5t-31 19.5t-14 31.5zM190 557v-66h234v81q-3 45 -40.5 64t-89.5 19q-48 0 -76 -26.5t-28 -71.5z" />
    <glyph glyph-name="f.alt2" horiz-adv-x="364" 
d="M60 58v561q0 78 66.5 127t147.5 49q67 0 115 -27t48 -69t-52 -87q-6 44 -35 63.5t-69 19.5q-37 0 -64 -23.5t-27 -67.5v-113h179q0 -4 -0.5 -10.5t-4.5 -24t-11.5 -30.5t-22.5 -23.5t-36 -10.5h-104v-399q-5 0 -14 0.5t-31.5 4t-39.5 9.5t-31 19.5t-14 31.5z" />
    <glyph glyph-name="ff.alt2" horiz-adv-x="728" 
d="M424 58v334h-234v-399q-5 0 -14 0.5t-31.5 4t-39.5 9.5t-31 19.5t-14 31.5v521q0 79 67.5 127.5t161.5 48.5q114 0 160 -53q29 43 81 68t108 25q67 0 115 -27t48 -69t-52 -87q-6 44 -35 63.5t-69 19.5q-37 0 -64 -23.5t-27 -67.5v-113h179q0 -4 -0.5 -10.5t-4.5 -24
t-11.5 -30.5t-22.5 -23.5t-36 -10.5h-104v-399q-5 0 -14 0.5t-31.5 4t-39.5 9.5t-31 19.5t-14 31.5zM190 557v-66h234v76q0 47 -38 67.5t-92 20.5q-48 0 -76 -26.5t-28 -71.5z" />
    <glyph glyph-name="zero.tnum" horiz-adv-x="662" 
d="M602 531v-347q0 -96 -73 -146t-198 -50t-198 50t-73 146v347q0 96 73 146t198 50t198 -50t73 -146zM468 199v317q0 59 -32.5 85.5t-104.5 26.5t-104.5 -26.5t-32.5 -85.5v-317q0 -59 32.5 -85.5t104.5 -26.5t104.5 26.5t32.5 85.5z" />
    <glyph glyph-name="one.tnum" horiz-adv-x="662" 
d="M220 715q42 0 92.5 3.5t80.5 7.5l30 3q-13 -72 -13 -113v-512h170q3 -14 3 -31q0 -73 -59 -73h-419q-3 13 -3 29q0 75 61 75h116v508q-14 -2 -32.5 0t-38.5 -1.5t-36.5 -9.5t-27 -24.5t-10.5 -47.5q0 -13 1 -20q-61 56 -61 113q0 41 37 67t109 26z" />
    <glyph glyph-name="two.tnum" horiz-adv-x="662" 
d="M71 0v103q0 50 21 89.5t55 64.5t74.5 46t81.5 39t75 38t55 49.5t21 66.5v17q0 49 -32.5 79.5t-94.5 30.5q-37 0 -69.5 -6t-62.5 -20t-47.5 -41t-17.5 -66q-85 92 -23 164.5t220 72.5q115 0 188 -53.5t73 -142.5v-40q0 -52 -21.5 -92.5t-55.5 -66t-75 -46.5t-82 -38
t-75 -34.5t-55.5 -42.5t-21.5 -57v-10h304q29 0 53 5t33 11l10 5q0 -5 -0.5 -13.5t-5 -30t-12.5 -38t-25.5 -30t-41.5 -13.5h-446z" />
    <glyph glyph-name="three.tnum" horiz-adv-x="662" 
d="M322 623q-37 0 -69.5 -6t-62.5 -20t-47.5 -41t-17.5 -66q-85 92 -23 164.5t220 72.5q116 0 188.5 -51.5t72.5 -139.5v-25q0 -49 -24.5 -89t-66.5 -52q47 -13 74 -57.5t27 -95.5v-30q0 -90 -74.5 -144.5t-196.5 -54.5q-168 0 -230 67.5t23 174.5q0 -39 18 -67t48.5 -43
t65 -21.5t75.5 -6.5q69 0 103 30.5t34 79.5q0 104 -101 116q-12 2 -19.5 4.5t-19.5 12t-17.5 31t-3.5 53.5h32q65 0 92 23.5t27 78.5q0 47 -32 74.5t-95 27.5z" />
    <glyph glyph-name="four.tnum" horiz-adv-x="662" 
d="M51 189q4 66 54 158.5t115.5 173.5t114.5 134.5t69 71.5q5 0 13 -0.5t29 -4.5t37.5 -10t29.5 -19.5t13 -30.5v-376h87q0 -7 -2 -18.5t-8 -31.5t-23 -33.5t-42 -13.5h-12v-199q-11 0 -26 1.5t-43 6.5t-46.5 20t-18.5 37v134h-341zM392 286v224l5 55q-23 -36 -33 -47
q-116 -134 -158 -232h186z" />
    <glyph glyph-name="five.tnum" horiz-adv-x="662" 
d="M315 -12q-168 0 -230 67.5t23 174.5q0 -39 18 -67t48.5 -43t65 -21.5t75.5 -6.5q73 0 105 24.5t32 83.5v58q0 115 -137 115h-127l-93 -3q8 39 8 86v165q0 4 0.5 10t4.5 22.5t11 29t22.5 22.5t36.5 10h275q32 0 56 3.5t32 7.5l8 3q0 -5 -0.5 -13t-5 -28t-12.5 -35.5
t-25.5 -28.5t-41.5 -13h-227v-95l-4 -44h80q129 0 201 -49t72 -152v-84q0 -96 -73 -147.5t-198 -51.5z" />
    <glyph glyph-name="six.tnum" horiz-adv-x="662" 
d="M602 258v-74q0 -96 -73 -146t-198 -50t-198 50t-73 146v347q0 96 73 146t198 50q170 0 231.5 -67.5t-24.5 -171.5q2 51 -28 82.5t-74 42t-105 10.5q-73 0 -105 -24.5t-32 -82.5v-53l-5 -51q5 5 15 12t49.5 18.5t87.5 11.5q118 0 189.5 -50.5t71.5 -145.5zM331 87
q72 0 104.5 26.5t32.5 85.5v44q0 59 -31 85.5t-96 26.5q-143 0 -147 -106v-50q0 -59 32.5 -85.5t104.5 -26.5z" />
    <glyph glyph-name="seven.tnum" horiz-adv-x="662" 
d="M479 611h-325q-32 0 -56 -3.5t-32 -7.5l-8 -3q0 5 0.5 13t5 28t12.5 35.5t25.5 28.5t41.5 13h481q2 -68 -15.5 -131t-47.5 -111.5t-66 -94.5l-73 -89t-68 -85.5t-52 -93t-23 -103.5q-32 -17 -56 -17q-75 0 -75 52q0 59 28.5 118.5t72 111.5l89 103t85.5 113.5t56 122.5z
" />
    <glyph glyph-name="eight.tnum" horiz-adv-x="662" 
d="M60 184v28q0 52 26 93.5t72 57.5q-38 16 -63 57.5t-25 88.5v22q0 95 71.5 145.5t189.5 50.5t189.5 -50.5t71.5 -145.5v-22q0 -47 -25 -88.5t-63 -57.5q46 -16 72 -57.5t26 -93.5v-25q0 -96 -73 -147.5t-198 -51.5t-198 50t-73 146zM468 199q0 60 -32.5 87t-104.5 27
t-104.5 -27.5t-32.5 -89.5q0 -59 32 -84t105 -25q72 0 104.5 26t32.5 86zM204 520q0 -58 27 -83t92 -25h16q65 0 92 25t27 83t-30.5 83t-96.5 25t-96.5 -25t-30.5 -83z" />
    <glyph glyph-name="nine.tnum" horiz-adv-x="662" 
d="M60 457v74q0 96 73 146t198 50t198 -50t73 -146v-347q0 -96 -73 -146t-198 -50q-170 0 -231.5 68t24.5 171q-2 -51 28 -82.5t74 -42t105 -10.5q73 0 105 24.5t32 82.5v53l5 51q-5 -5 -15 -12t-49.5 -18.5t-87.5 -11.5q-118 0 -189.5 50.5t-71.5 145.5zM331 628
q-72 0 -104.5 -26.5t-32.5 -85.5v-44q0 -59 31 -85.5t96 -26.5q143 0 147 106v50q0 59 -32.5 85.5t-104.5 26.5z" />
    </font>
</defs>
</svg>
